<?xml version="1.0" encoding="UTF-8"?>
<!DOCTYPE svg PUBLIC "-//W3C//DTD SVG 1.1//EN" "http://www.w3.org/Graphics/SVG/1.1/DTD/svg11.dtd">
<!-- Creator: CorelDRAW -->
<svg xmlns="http://www.w3.org/2000/svg" xml:space="preserve" width="200px" height="200px" style="shape-rendering:geometricPrecision; text-rendering:geometricPrecision; image-rendering:optimizeQuality; fill-rule:evenodd; clip-rule:evenodd"
viewBox="0 0 200 200"
 xmlns:xlink="http://www.w3.org/1999/xlink">
 <defs>
  <style type="text/css">
   <![CDATA[
    .fil0 {fill:#2B2A29;fill-rule:nonzero}
   ]]>
  </style>
 </defs>
 <g id="Layer_x0020_1">
  <metadata id="CorelCorpID_0Corel-Layer"/>
  <path class="fil0" d="M74.3864 72.4636l0 5.778 -54.8178 0 0 -5.778 54.8178 0zm-30.2932 -49.0445l0 0 39.9168 37.7483 -3.85397 3.84688 -39.6724 -37.994 3.60948 -3.60121zm39.9168 56.7453l0 0c0,-3.68625 0.878747,-6.44887 2.64097,-8.29731 1.7634,-1.8449 4.00751,-2.76853 6.73234,-2.76853l13.2261 -0.237403c3.84688,0.160631 6.41226,0.762998 7.69376,1.8012 1.28269,1.04528 1.92403,3.00711 1.92403,5.89257l18.7525 120.943 -69.9667 0 18.997 -117.334zm20.6765 -22.8439l0 0 -7.45636 0 0 -54.8225 7.45636 0 0 54.8225zm55.0611 -30.3002l0 0 -36.0641 37.994 -3.84688 -3.84688 36.0641 -37.7483 3.84688 3.60121zm20.6824 45.4433l0 0 0 5.778 -52.8996 0 0 -5.778 52.8996 0z"/>
 </g>
</svg>
