<?xml version="1.0" encoding="UTF-8"?>
<!DOCTYPE svg PUBLIC "-//W3C//DTD SVG 1.1//EN" "http://www.w3.org/Graphics/SVG/1.1/DTD/svg11.dtd">
<!-- Creator: CorelDRAW -->
<svg xmlns="http://www.w3.org/2000/svg" xml:space="preserve" width="200px" height="200px" style="shape-rendering:geometricPrecision; text-rendering:geometricPrecision; image-rendering:optimizeQuality; fill-rule:evenodd; clip-rule:evenodd"
viewBox="0 0 200 200"
 xmlns:xlink="http://www.w3.org/1999/xlink">
 <defs>
  <style type="text/css">
   <![CDATA[
    .fil0 {fill:#2B2A29;fill-rule:nonzero}
   ]]>
  </style>
 </defs>
 <g id="Layer_x0020_1">
  <metadata id="CorelCorpID_0Corel-Layer"/>
  <path class="fil0" d="M193.61 75.6797l-51.5626 0 -29.1073 -68.3793c-6.31068,-3.15829 -5.95871,4.20712 -5.95871,4.20712l24.899 64.5253 -68.0332 0 28.4022 -65.9308c0.709848,-10.1682 -6.31068,-2.8016 -6.31068,-2.8016l-30.5069 67.6871 -47.7086 0 -4.09019 1.04528c-2.79805,5.1461 0.470082,9.36503 0.470082,9.36503l8.41542 0 0.930716 1.6323 17.3175 89.7787c2.32679,5.83942 6.77131,4.21184 6.77131,4.21184l10.7552 0 0 10.519 1.86852 -0.118111 0.119292 1.98781 8.06227 0 0 -2.21458 2.10356 0 0 -10.206 82.9247 0 0 12.0946 2.17915 0 0 2.19332 7.72447 0 0 -2.45553 1.75159 0 0 -11.921 13.6844 0c3.15239,-0.703943 4.90516,-4.20948 4.90516,-4.20948l14.7249 -91.8846 5.26894 0c8.75558,-5.60437 0,-9.12645 0,-9.12645zm-171.728 9.00834l0 0 17.9942 0 0.237403 38.1121 -11.6989 0 -6.53273 -38.1121zm18.4655 84.1743l0 0 -3.97326 0 -6.31186 -39.9854 10.2851 0 0 39.9854zm19.6301 0.465358l0 0 -11.9198 0 0 -40.4507 11.9198 0 0 40.4507zm0 -46.7638l0 0 -11.6847 0 0 -37.1779 11.6847 0 0 37.1779zm64.7781 -37.1779l0 0 11.6847 0 0 37.1779 -11.6847 0 0 -37.1779zm-58.2135 0l0 0 11.6847 0 0 37.1779 -11.6847 0 0 -37.1779zm12.1536 83.9416l0 0 -11.9328 0 0 -40.4507 11.9328 0 0 40.4507zm7.94652 -83.9416l0 0 11.6836 0 0 37.1779 -11.6836 0 0 -37.1779zm12.1584 83.9416l0 0 -11.9375 0 0 -40.4507 11.9375 0 0 40.4507zm18.2305 0l0 0 -11.9198 0 0 -40.4507 11.9198 0 0 40.4507zm0 -46.7638l0 0 -11.6836 0 0 -37.1779 11.6836 0 0 37.1779zm19.6442 46.7638l0 0 -11.9198 0 0 -40.4507 11.9198 0 0 40.4507zm18.469 0l0 0 -11.9328 0 0 -40.4507 11.9328 0 0 40.4507zm0.468901 -46.7638l0 0 -11.6965 0 0 -37.1779 11.6965 0 0 37.1779zm10.9808 46.0634l0 0 -5.60674 0 0.23386 -39.7503 11.4639 0 -6.09099 39.7503zm6.78076 -46.5334l0 0 -11.9186 0.239766 -0.235041 -37.6456 18.2352 0 -6.08154 37.4058z"/>
 </g>
</svg>
