<?xml version="1.0" encoding="UTF-8"?>
<!DOCTYPE svg PUBLIC "-//W3C//DTD SVG 1.1//EN" "http://www.w3.org/Graphics/SVG/1.1/DTD/svg11.dtd">
<!-- Creator: CorelDRAW -->
<svg xmlns="http://www.w3.org/2000/svg" xml:space="preserve" width="200px" height="200px" style="shape-rendering:geometricPrecision; text-rendering:geometricPrecision; image-rendering:optimizeQuality; fill-rule:evenodd; clip-rule:evenodd"
viewBox="0 0 200 200"
 xmlns:xlink="http://www.w3.org/1999/xlink">
 <defs>
  <style type="text/css">
   <![CDATA[
    .fil0 {fill:#2B2A29;fill-rule:nonzero}
   ]]>
  </style>
 </defs>
 <g id="Layer_x0020_1">
  <metadata id="CorelCorpID_0Corel-Layer"/>
  <path class="fil0" d="M112.854 54.6311c-39.2117,0 -70.9978,31.7896 -70.9978,71.0002 0,13.0466 3.53625,25.2675 9.68157,35.7735 -3.70279,-2.23348 -10.1694,-8.24652 -16.6501,-24.4561 0,0 -22.1399,-41.4098 12.4985,-87.5086 0,0 18.7561,-29.953 68.4974,-32.0365l0 -14.8466c0,0 -69.2769,-4.68429 -95.5826,69.5403 0,0 -21.358,62.7666 32.8172,104.956 0,0 46.8771,35.4204 90.3728,13.0229 0,0 4.67484,-1.66419 10.9442,-6.91659 17.8147,-12.8989 29.4179,-33.8542 29.4179,-57.5284 0,-39.2105 -31.7884,-71.0002 -70.999,-71.0002zm-26.6671 117.058l0 0c-9.94732,0 -18.0096,-8.06109 -18.0096,-18.0084 0,-9.94496 8.06227,-18.0108 18.0096,-18.0108 9.94496,0 18.0084,8.06581 18.0084,18.0108 0,9.94732 -8.06345,18.0084 -18.0084,18.0084zm2.77089 -53.3343l0 0c-9.9485,0 -18.0096,-8.06227 -18.0096,-18.0096 0,-9.94378 8.06109,-18.0096 18.0096,-18.0096 9.94496,0 18.0096,8.06581 18.0096,18.0096 0,9.94732 -8.06463,18.0096 -18.0096,18.0096zm26.8998 17.5478l0 0c-3.44412,0 -6.23509,-2.79097 -6.23509,-6.23391 0,-3.44176 2.79097,-6.23509 6.23509,-6.23509 3.44176,0 6.23391,2.79333 6.23391,6.23509 0,3.44294 -2.79215,6.23391 -6.23391,6.23391zm22.9714 37.8641l0 0c-9.94732,0 -18.0096,-8.06227 -18.0096,-18.0084 0,-9.94496 8.06227,-18.0084 18.0096,-18.0084 9.94614,0 18.0096,8.06345 18.0096,18.0084 0,9.94614 -8.06345,18.0084 -18.0096,18.0084zm2.07876 -52.6421l0 0c-9.94732,0 -18.0096,-8.06109 -18.0096,-18.0084 0,-9.94496 8.06227,-18.0096 18.0096,-18.0096 9.94378,0 18.0096,8.06463 18.0096,18.0096 0,9.94732 -8.06581,18.0084 -18.0096,18.0084z"/>
 </g>
</svg>
