<?xml version="1.0" encoding="UTF-8"?>
<!DOCTYPE svg PUBLIC "-//W3C//DTD SVG 1.1//EN" "http://www.w3.org/Graphics/SVG/1.1/DTD/svg11.dtd">
<!-- Creator: CorelDRAW -->
<svg xmlns="http://www.w3.org/2000/svg" xml:space="preserve" width="200px" height="200px" style="shape-rendering:geometricPrecision; text-rendering:geometricPrecision; image-rendering:optimizeQuality; fill-rule:evenodd; clip-rule:evenodd"
viewBox="0 0 200 200"
 xmlns:xlink="http://www.w3.org/1999/xlink">
 <defs>
  <style type="text/css">
   <![CDATA[
    .fil0 {fill:#2B2A29;fill-rule:nonzero}
   ]]>
  </style>
 </defs>
 <g id="Layer_x0020_1">
  <metadata id="CorelCorpID_0Corel-Layer"/>
  <path class="fil0" d="M195.958 158.47c-2.60908,5.09413 -5.8843,7.67841 -9.81386,7.75636l-170.687 2.54057c-1.19529,-0.0129922 -2.44136,-0.355515 -3.74531,-1.02284 -3.67916,-1.88505 -6.35084,-4.62878 -8.0162,-8.24652 -1.66655,-3.61538 -1.58978,-7.19888 0.226773,-10.7481 1.75631,-3.42522 5.05752,-6.65911 9.91071,-9.69811l80.1313 -49.8618 -0.161812 -10.1564c0.00944889,-1.19056 -0.364964,-2.05513 -1.12796,-2.59608 1.41379,0.724021 -0.122836,-0.0614178 -4.60634,-2.35868 -5.43075,-2.78152 -9.08865,-7.1351 -10.9678,-13.0619 -1.88505,-5.928 -1.38899,-11.6918 1.47993,-17.295 2.86774,-5.59729 7.25675,-9.3674 13.1741,-11.3032 5.91501,-1.93112 11.5902,-1.50828 17.0281,1.27914 4.72563,2.41892 8.33392,6.44651 10.8202,12.0745 2.48742,5.63036 2.54411,10.7717 0.167718,15.4111 -1.58505,3.09451 -3.50318,4.06302 -5.74965,2.91262 -1.06654,-0.546855 -1.60749,-2.39648 -1.62875,-5.55949 -0.0685045,-4.52956 -0.272837,-7.63589 -0.608273,-9.30598 -0.972055,-3.64491 -3.05435,-6.28942 -6.24572,-7.92408 -3.31184,-1.69726 -6.85281,-1.85435 -10.6229,-0.474807 -3.76893,1.38072 -6.44178,3.61775 -8.0292,6.71698 -3.96735,7.74573 0.0330711,14.6836 12.0084,20.8159 3.55751,1.82246 5.35752,3.41814 5.40713,4.78705l0.296459 15.6332 82.966 50.5787c9.23393,5.62918 12.0343,12.0001 8.39416,19.1068zm-11.0965 -4.84138l0 0c1.03229,-2.01498 0.00826778,-3.96381 -3.06735,-5.83942 -13.258,-7.9914 -26.5774,-16.0088 -39.9511,-24.0592 -16.3962,-9.74417 -29.7475,-17.2619 -40.0515,-22.538 -2.84412,-1.45749 -5.67524,-1.33466 -8.49337,0.367326 -14.0233,8.40007 -28.0479,16.8001 -42.0688,25.1955 -23.6742,14.3942 -36.0877,22.7175 -37.2416,24.9722 -1.15513,2.25474 0.161812,4.35122 3.952,6.29296 1.77875,0.910637 26.94,0.989772 75.4825,0.235041 27.6392,-0.526776 55.3363,-1.01694 83.0983,-1.48111 4.52484,-0.0767723 7.30636,-1.12442 8.34101,-3.1453z"/>
 </g>
</svg>
