<?xml version="1.0" encoding="UTF-8"?>
<!DOCTYPE svg PUBLIC "-//W3C//DTD SVG 1.1//EN" "http://www.w3.org/Graphics/SVG/1.1/DTD/svg11.dtd">
<!-- Creator: CorelDRAW -->
<svg xmlns="http://www.w3.org/2000/svg" xml:space="preserve" width="200px" height="200px" style="shape-rendering:geometricPrecision; text-rendering:geometricPrecision; image-rendering:optimizeQuality; fill-rule:evenodd; clip-rule:evenodd"
viewBox="0 0 200 200"
 xmlns:xlink="http://www.w3.org/1999/xlink">
 <defs>
  <style type="text/css">
   <![CDATA[
    .fil0 {fill:#2B2A29;fill-rule:nonzero}
   ]]>
  </style>
 </defs>
 <g id="Layer_x0020_1">
  <metadata id="CorelCorpID_0Corel-Layer"/>
  <polygon class="fil0" points="95.4374,166.484 81.3904,196.213 79.0506,163.206 57.9808,188.485 64.0682,156.182 37.1471,175.38 51.1929,145.649 20.5265,157.589 41.3613,132.071 8.58786,136.05 35.2739,116.622 2.50041,112.173 33.168,100.001 2.50041,87.8275 35.2739,83.3794 8.58786,63.9489 41.3613,67.9293 20.5265,42.4137 51.1929,54.3524 37.1471,24.6215 64.0682,43.8169 57.9808,11.5123 79.0506,36.7952 81.3904,3.78901 95.4374,33.5176 105.738,2.38348 112.057,34.6869 129.849,6.83037 127.977,39.8377 152.088,17.3647 142.02,48.735 171.05,33.0499 153.494,60.9052 185.329,52.9481 161.451,75.4211 194.458,75.6549 165.666,91.5728 197.502,100.001 165.666,108.428 194.458,124.345 161.451,124.582 185.329,147.055 153.494,139.095 171.05,166.951 142.02,151.266 152.088,182.635 127.977,160.162 129.849,193.17 112.057,165.312 105.738,197.618 "/>
 </g>
</svg>
