<?xml version="1.0" encoding="UTF-8"?>
<!DOCTYPE svg PUBLIC "-//W3C//DTD SVG 1.1//EN" "http://www.w3.org/Graphics/SVG/1.1/DTD/svg11.dtd">
<!-- Creator: CorelDRAW -->
<svg xmlns="http://www.w3.org/2000/svg" xml:space="preserve" width="200px" height="200px" style="shape-rendering:geometricPrecision; text-rendering:geometricPrecision; image-rendering:optimizeQuality; fill-rule:evenodd; clip-rule:evenodd"
viewBox="0 0 200 200"
 xmlns:xlink="http://www.w3.org/1999/xlink">
 <defs>
  <style type="text/css">
   <![CDATA[
    .fil0 {fill:black;fill-rule:nonzero}
   ]]>
  </style>
 </defs>
 <g id="Layer_x0020_1">
  <metadata id="CorelCorpID_0Corel-Layer"/>
  <g id="_231999224">
   <g>
    <g>
     <g>
      <path id="_231999392" class="fil0" d="M149.594 39.4728c9.06739,0 16.4234,-7.35596 16.4234,-16.434 0,-9.06858 -7.35596,-16.4234 -16.4234,-16.4234 -9.07212,0 -16.4281,7.35478 -16.4281,16.4234 0,9.07802 7.35596,16.434 16.4281,16.434z"/>
      <g>
       <path id="_231998888" class="fil0" d="M93.0527 51.6807l-25.5687 29.5266c-1.51891,1.84962 -3.8079,3.01774 -6.38155,3.01774 -4.56972,0 -8.27369,-3.70633 -8.27369,-8.26542 0,-2.47207 1.08072,-4.68547 2.79215,-6.19847l27.5553 -31.7211c1.51891,-1.8319 3.81381,-3.01302 6.38627,-3.01302l39.8932 0c2.92325,0 5.56776,1.16812 7.49179,3.04845l25.4447 25.427 21.0746 -21.045c1.4882,-1.25316 3.39688,-2.00435 5.48981,-2.00435 4.72208,0 8.54534,3.82798 8.54534,8.54416 0,2.05632 -0.726384,3.93428 -1.92521,5.40595l-25.427 25.6065c-7.71738,7.7103 -13.9194,1.17875 -13.9194,1.17875l-15.5895 -15.684 -24.3817 28.192 22.3325 22.3289c0,0 4.69019,4.36303 2.02915,13.0725l-12.5316 55.8016c-0.995677,4.84256 -5.27484,8.48274 -10.4127,8.48274 -5.86422,0 -10.6217,-4.75752 -10.6217,-10.6217 0,-0.927173 0.120473,-1.82364 0.338979,-2.68112l10.2828 -45.7622 -25.375 -24.6781 -21.8175 24.3427c0,0 -3.52207,4.36303 -12.906,4.02641l-44.261 0.0661423c-4.94059,0.0921267 -9.42881,-3.28821 -10.5544,-8.29613 -1.27914,-5.72839 2.23703,-11.3328 7.96069,-12.6143 0.902369,-0.197246 1.80474,-0.281105 2.68703,-0.250396l38.072 0.102757 56.293 -65.2623 -14.7226 -0.0732289z"/>
       <path id="_231999032" class="fil0" d="M92.3015 109.639c-0.00472445,0 -0.00472445,0 -0.00472445,0 0,0 0,0 0.00472445,0zm0 0c-0.00472445,0 -0.00472445,0 -0.00472445,0l0.00472445 0c0,0 0,0 -0.00472445,0 0.00472445,0 0.00472445,0 0.00472445,0z"/>
      </g>
     </g>
    </g>
   </g>
  </g>
 </g>
</svg>
