<?xml version="1.0" encoding="UTF-8"?>
<!DOCTYPE svg PUBLIC "-//W3C//DTD SVG 1.1//EN" "http://www.w3.org/Graphics/SVG/1.1/DTD/svg11.dtd">
<!-- Creator: CorelDRAW -->
<svg xmlns="http://www.w3.org/2000/svg" xml:space="preserve" width="200px" height="200px" style="shape-rendering:geometricPrecision; text-rendering:geometricPrecision; image-rendering:optimizeQuality; fill-rule:evenodd; clip-rule:evenodd"
viewBox="0 0 200 200"
 xmlns:xlink="http://www.w3.org/1999/xlink">
 <defs>
  <style type="text/css">
   <![CDATA[
    .str0 {stroke:white;stroke-width:0.900007}
    .fil0 {fill:black;fill-rule:nonzero}
   ]]>
  </style>
 </defs>
 <g id="Layer_x0020_1">
  <metadata id="CorelCorpID_0Corel-Layer"/>
  <g id="_231994136">
   <g>
    <g>
     <path id="_231990656" class="fil0" d="M41.6743 35.0507c8.74023,0 15.8234,-7.08903 15.8234,-15.8257 0,-8.73905 -7.08313,-15.8269 -15.8234,-15.8269 -8.74023,0 -15.8234,7.08785 -15.8234,15.8269 0,8.73668 7.08313,15.8257 15.8234,15.8257z"/>
     <path id="_231988640" class="fil0" d="M59.1536 39.1007c11.1887,0 20.3647,9.07684 20.3647,20.2702 0,5.70477 0,45.246 0,49.0716 0,3.8268 -3.00829,6.92604 -6.83509,6.92604 -3.82798,0 -6.92958,-3.09924 -6.92958,-6.92604 0,-4.45988 0,-44.2421 0,-44.2421l-3.5705 0c0,0 0,115.523 0,123.114 0,5.12721 -4.20003,9.28472 -9.3237,9.28472 -5.12366,0 -9.28472,-4.15751 -9.28472,-9.28472 0,-7.591 0,-71.4891 0,-71.4891l-3.80318 0c0,0 0,63.8981 0,71.4891 0,5.12721 -4.15988,9.28472 -9.28236,9.28472 -5.12484,0 -9.3237,-4.15751 -9.3237,-9.28472 0,-7.591 0,-123.114 0,-123.114l-3.5705 0c0,0 0,39.7822 0,44.2421 0,3.8268 -3.10278,6.92604 -6.92958,6.92604 -3.8268,0 -6.83509,-3.09924 -6.83509,-6.92604 0,-3.82562 0,-43.3669 0,-49.0716 0,-11.1934 9.16897,-20.2702 20.3647,-20.2702 5.41185,0 29.4002,0 34.9585,0z"/>
    </g>
   </g>
  </g>
  <g id="_231990440">
   <g>
    <g>
     <g>
      <path id="_231990008" class="fil0 str0" d="M151.032 34.4743c-8.90558,0 -16.1198,-7.15636 -16.1198,-15.9863 0,-8.83117 7.21423,-15.9899 16.1198,-15.9899 8.90086,0 16.1151,7.15872 16.1151,15.9899 0,8.82999 -7.21423,15.9863 -16.1151,15.9863z"/>
     </g>
     <path id="_231990392" class="fil0 str0" d="M138.732 37.9952c0,0 -14.7922,-0.551579 -19.8616,17.1131l-12.697 44.1972c-1.21064,4.13153 1.07481,7.28864 4.68075,8.32447 3.6083,1.0382 7.29809,-0.781896 8.2477,-4.08901l12.345 -43.0834 3.36735 -0.00472445 -21.4088 74.6037 20.1462 0.00236222 0.0141733 0.0141733 0 54.7575c0,4.16814 3.57404,7.65006 7.93116,7.66778 3.84452,0.0129922 7.89927,-3.88231 7.89927,-8.05164l0 0.0153545 0 -54.4055 3.22562 0 0 54.4055 0 -0.0153545c0,4.16932 4.06066,8.06463 7.89809,8.05164 4.36775,-0.0177167 7.93825,-3.49963 7.93825,-7.66778l0 -54.7575 0.0129922 -0.0141733 20.1509 -0.00236222 -21.4076 -74.6037 3.36262 0.00472445 12.3414 43.0834c0.943708,3.30711 4.63823,5.12721 8.24298,4.08901 3.61302,-1.03583 5.89375,-4.19295 4.68193,-8.32447l-12.6934 -44.1972c-5.07051,-17.6647 -19.8616,-17.1131 -19.8616,-17.1131l-24.5565 0z"/>
    </g>
   </g>
  </g>
 </g>
</svg>
