<?xml version="1.0" encoding="UTF-8"?>
<!DOCTYPE svg PUBLIC "-//W3C//DTD SVG 1.1//EN" "http://www.w3.org/Graphics/SVG/1.1/DTD/svg11.dtd">
<!-- Creator: CorelDRAW -->
<svg xmlns="http://www.w3.org/2000/svg" xml:space="preserve" width="200px" height="200px" style="shape-rendering:geometricPrecision; text-rendering:geometricPrecision; image-rendering:optimizeQuality; fill-rule:evenodd; clip-rule:evenodd"
viewBox="0 0 200 200"
 xmlns:xlink="http://www.w3.org/1999/xlink">
 <defs>
  <style type="text/css">
   <![CDATA[
    .fil0 {fill:#2B2A29;fill-rule:nonzero}
    .fil1 {fill:#FEFEFE;fill-rule:nonzero}
   ]]>
  </style>
 </defs>
 <g id="Layer_x0020_1">
  <metadata id="CorelCorpID_0Corel-Layer"/>
  <path class="fil0" d="M42.8684 88.6082c4.86146,0 7.29336,0.738195 7.29336,2.21104 0,3.03428 -1.79765,4.8024 -5.35044,5.39296l-1.45867 0 -1.92876 -7.15872c0.30827,-0.268112 0.809061,-0.445279 1.4445,-0.445279z"/>
  <path class="fil0" d="M17.0978 43.8712c0,-0.614178 -0.650793,-0.762998 -1.94647,-0.46772 -1.28387,0.322443 -1.93112,0.793707 -1.93112,1.47285 1.28151,7.57211 6.79375,11.3469 16.5167,11.3469l1.94765 6.98273c-3.89058,2.29844 -5.8217,4.74571 -5.8217,7.39612 0.64843,0.324806 1.20946,0.679139 1.6949,0.975598 0.485437,0.35079 0.884653,0.676777 1.20828,0.970874 0,-2.12128 1.29804,-4.06657 3.90476,-5.89375l1.96065 7.63234c-7.1599,0 -11.0375,-2.62325 -11.6989,-7.72211 0,-0.970874 -0.0897645,-1.85553 -0.237403,-2.6516 -0.161812,-0.825597 -0.411027,-1.5319 -0.735833,-2.20868 -0.309451,-1.56379 -0.473626,-2.86065 -0.473626,-3.83389 0,-0.973236 0,-1.62167 0,-1.91458 -0.660241,-0.324806 -1.22009,-0.647249 -1.70789,-0.942527 -0.486618,-0.355515 -1.05946,-0.676777 -1.69371,-1.02993 0,0.353152 -0.103938,1.32521 -0.26575,2.9138 -0.147639,1.59332 -0.0732289,3.39215 0.26575,5.30673 0,0.676777 0.294097,1.44214 0.969693,2.41892 0.636619,0.970874 0.974417,1.94175 0.974417,2.9138 1.29686,7.04651 6.48312,10.6111 15.5446,10.6111l1.94529 7.69022c-3.88704,2.2701 -5.83351,4.53783 -5.83351,6.77722 0.647249,0.325987 1.20828,0.617721 1.70907,0.973236 0.471264,0.29764 0.897645,0.617721 1.23781,0.943708 0,-1.68072 1.26733,-3.38979 3.87523,-5.07051l1.93112 6.75005c-6.48548,0 -10.1965,-2.50632 -11.171,-7.54494 0,-0.294097 -0.175986,-0.99922 -0.500791,-2.09175 -0.323625,-1.12206 -0.64843,-1.97482 -0.972055,-2.59254 -0.322443,-1.6193 -0.471264,-2.91616 -0.471264,-4.03586 0,-1.06418 0,-1.77049 0,-2.12482 -0.663785,-0.294097 -1.22363,-0.588194 -1.72324,-0.91418 -0.487799,-0.292916 -1.04765,-0.646068 -1.68072,-0.941346 0,0.676777 0,1.85553 0,3.652 0,1.76812 0.147639,3.65672 0.472445,5.57367 0.322443,0.676777 0.646068,1.41497 0.986228,2.20868 0.294097,0.79725 0.485437,1.67836 0.485437,2.65278 1.26733,7.4847 6.46895,11.2005 15.5611,11.2005l1.92876 6.83391c-3.88822,2.2701 -5.83469,4.68665 -5.83469,7.28037 0.649611,0.324806 1.22481,0.676777 1.71025,0.942527 0.471264,0.38268 1.04765,0.676777 1.69371,1.0004 0,-1.70671 1.13505,-3.38861 3.4205,-5.03862l1.92876 6.75005c-6.80675,0 -10.5213,-2.77089 -11.1851,-8.22054 0,-0.325987 -0.160631,-0.976779 -0.485437,-1.91931 -0.309451,-0.968512 -0.64843,-1.76576 -0.955519,-2.41655 -0.34016,-1.6193 -0.413389,-2.88782 -0.251577,-3.82798 0.161812,-1.00513 0.251577,-1.65356 0.251577,-1.97836 -0.68032,-0.295278 -1.22599,-0.646068 -1.71025,-0.912999 -0.487799,-0.353152 -1.063,-0.674415 -1.69371,-1.03229 0,0.357877 -0.105119,1.29922 -0.251577,2.91853 -0.162993,1.59214 -0.0874023,3.39333 0.251577,5.30437 0.30827,0.976779 0.630714,1.85789 0.957882,2.68112 0.321262,0.798431 0.485437,1.68308 0.485437,2.65396 1.28033,7.04415 6.48312,10.578 15.5588,10.578l1.96065 7.21895c-3.90476,2.27246 -5.85123,4.68901 -5.85123,7.25203 0.649611,0.322443 1.22481,0.679139 1.71025,0.99922 0.472445,0.296459 0.884653,0.620084 1.20828,0.948433 0,-1.68072 1.28269,-3.39097 3.89058,-5.07406l1.94411 6.72171c-7.12919,0 -11.0068,-2.53467 -11.6682,-7.66187 0,-0.972055 -0.07441,-1.85553 -0.252758,-2.68112 -0.146458,-0.793707 -0.413389,-1.5319 -0.720478,-2.18151 -0.325987,-1.59096 -0.413389,-2.9764 -0.236222,-4.06539 0.147639,-1.17875 0.236222,-1.88624 0.236222,-2.18269 -0.635438,-0.323625 -1.22599,-0.558666 -1.69371,-0.706305 -0.487799,-0.147639 -1.06182,-0.440555 -1.7256,-0.737014 -0.295278,0.296459 -0.559847,1.02993 -0.721659,2.20868 -0.162993,1.09489 -0.0885834,3.15475 0.249215,6.07328 0,0.353152 0.325987,0.973236 0.987409,1.94529 0.618903,1.00158 0.957882,1.94175 0.957882,2.94805 1.31103,7.80833 6.6473,11.6965 16.0478,11.6965l1.9571 6.86935c-4.22602,1.94057 -6.31895,4.21303 -6.31895,6.80438 0.618903,0.327168 1.2071,0.679139 1.67954,1.00158 0.487799,0.355515 0.898826,0.617721 1.22245,0.94607 0,-1.53308 1.45985,-2.94687 4.37602,-4.21539l1.94647 6.77604c-7.13155,0 -11.0221,-2.59136 -11.6706,-7.71975 0,-0.294097 -0.160631,-1.03229 -0.486618,-2.21104 -0.323625,-1.09135 -0.64843,-1.976 -0.972055,-2.62207 -0.322443,-1.59096 -0.487799,-2.9764 -0.487799,-4.12562 0,-1.12206 0,-1.82718 0,-2.12128 -0.322443,-0.351971 -0.734651,-0.561028 -1.2071,-0.705124 -0.49961,-0.209057 -1.06182,-0.445279 -1.69371,-0.739376 0,0.294097 -0.105119,1.23899 -0.26575,2.82994 -0.147639,1.67954 -0.0732289,3.41696 0.26575,5.3339 0.322443,0.99922 0.631895,1.85435 0.957882,2.67994 0.30827,0.766541 0.484256,1.68072 0.484256,2.62443 1.29686,7.39494 6.66147,11.1107 16.0478,11.1107l1.92994 6.71934c-4.21421,1.94411 -6.30714,4.39137 -6.30714,7.24848 0.64843,0.323625 1.22599,0.675596 1.71025,1.00276 0.455909,0.324806 1.0441,0.618903 1.6949,0.910637 0,-1.64883 1.29568,-3.3579 3.90357,-5.03626l1.93112 6.74533c-7.14691,0 -11.0375,-2.59018 -11.654,-7.68667 0,-0.355515 -0.178348,-1.09371 -0.503154,-2.18388 -0.323625,-1.17757 -0.633076,-2.03387 -0.9567,-2.70829 -0.677958,-3.48192 -0.811424,-5.42366 -0.500791,-5.7213 -0.650793,-0.351971 -1.23781,-0.646068 -1.69726,-0.970874 -0.485437,-0.321262 -1.05946,-0.679139 -1.70789,-1.0004 -0.646068,0.679139 -0.485437,3.44648 0.500791,8.27723 0.324806,0.64843 0.620084,1.38899 0.959063,2.18388 0.322443,0.824416 0.500791,1.67836 0.500791,2.6823 1.28033,7.454 6.64612,11.1698 16.0312,11.1698l1.92994 7.77762 119.617 -32.0329 -42.7881 -162.969 -120.075 32.3282 1.94411 6.77722c-3.90357,1.5945 -5.83469,3.71578 -5.83469,6.25044 0.618903,0.35079 1.21064,0.679139 1.67954,0.99922 0.486618,0.29764 0.898826,0.591737 1.22481,0.943708 0,-1.88387 1.30985,-3.2705 3.90476,-4.24492l1.92876 6.75123c-6.80675,0 -10.682,-2.79923 -11.6682,-8.43196z"/>
  <path class="fil0" d="M35.0861 65.8304l1.47403 0c4.84846,0 7.28037,0.970874 7.28037,2.79805 0,3.47719 -1.60749,5.30437 -4.86382,5.65871l-1.45867 0 -2.43191 -8.45676z"/>
  <path class="fil0" d="M60.3725 155.27c4.84846,0 7.29455,0.706305 7.29455,2.03151 0,3.62365 -1.79883,5.778 -5.33508,6.45359l-1.47403 0 -1.92994 -7.95361c0.310632,-0.353152 0.796069,-0.5315 1.4445,-0.5315z"/>
  <path class="fil1" d="M69.1092 189.187c7.47171,-1.26379 10.5391,-4.74098 9.23866,-10.5213 -0.970874,-4.47641 -5.31855,-6.06501 -13.1127,-4.83075 -0.64843,0 -1.14922,0.354333 -1.45867,0.885834l-1.92876 -6.841 1.45631 0c7.44455,-1.23308 10.5225,-4.80004 9.21031,-10.6064 -0.959063,-4.86146 -5.34925,-6.65793 -13.1139,-5.33508 -0.662604,0 -1.1504,0 -1.45749,0l-1.94647 -6.80557 1.45867 0c2.91735,-0.649611 5.25949,-2.03506 7.04297,-4.15633 1.7823,-2.09411 2.35632,-4.45161 1.71025,-7.04297 -0.973236,-4.53783 -5.35044,-6.1595 -13.1316,-4.86264l-0.970874 0 -1.94411 -6.80438 1.45867 0c2.59254,-0.296459 4.86146,-1.59332 6.80793,-3.86342 1.94411,-2.2701 2.75317,-4.39019 2.42955,-6.33548 -0.986228,-5.51107 -5.83469,-7.09966 -14.5867,-4.83193l-1.92876 -6.80911 1.45749 0c7.42565,-1.29922 10.5202,-4.89216 9.2233,-10.6973 -0.972055,-4.53665 -5.52524,-6.15832 -13.5993,-4.86146l-0.986228 0 -1.93112 -7.31108 0.957882 0c2.57837,-0.322443 4.86146,-1.58978 6.80675,-3.85987 1.94411,-2.2701 2.75435,-4.38901 2.43191,-6.33666 -0.959063,-4.53783 -5.67288,-6.12761 -14.0718,-4.86146l-1.96065 -6.80793 0.974417 0c7.11502,-1.94529 10.1954,-5.33508 9.2233,-10.1965 -0.972055,-5.1839 -5.68941,-6.77958 -14.1025,-4.86027l-0.972055 -2.94805 112.812 -30.0912 40.844 154.367 -112.809 29.6176 -0.48898 -2.39175 0.957882 0z"/>
  <path class="fil0" d="M64.7355 178.552c0.322443,-0.325987 0.824416,-0.445279 1.47285,-0.445279 4.86146,0 7.29218,0.738195 7.29218,2.21104 0,3.2705 -1.60631,5.06933 -4.86027,5.36225l-1.47521 0 -2.42955 -7.12801z"/>
  <path class="fil0" d="M53.0768 133.372l0.974417 0c5.18744,-0.647249 7.79652,0.0921267 7.79652,2.18151 0,3.00593 -1.80001,4.80358 -5.36579,5.36343l-1.45867 0 -1.94647 -7.54494z"/>
  <path class="fil0" d="M48.7031 110.564c4.86264,0 7.29336,0.942527 7.29336,2.80042 0,3.44648 -1.60631,5.30201 -4.84728,5.65871l-1.94529 0 -1.96065 -7.98786c0.310632,-0.291735 0.825597,-0.471264 1.45985,-0.471264z"/>
  <path class="fil0" d="M29.2668 43.8712l1.45867 0c4.84728,0 7.3099,0.711029 7.3099,2.00671 0,3.97798 -1.65119,6.16068 -4.87799,6.42525l-1.47285 0 -2.41774 -8.43196z"/>
 </g>
</svg>
