<?xml version="1.0" encoding="UTF-8"?>
<!DOCTYPE svg PUBLIC "-//W3C//DTD SVG 1.1//EN" "http://www.w3.org/Graphics/SVG/1.1/DTD/svg11.dtd">
<!-- Creator: CorelDRAW -->
<svg xmlns="http://www.w3.org/2000/svg" xml:space="preserve" width="200px" height="200px" style="shape-rendering:geometricPrecision; text-rendering:geometricPrecision; image-rendering:optimizeQuality; fill-rule:evenodd; clip-rule:evenodd"
viewBox="0 0 200 200"
 xmlns:xlink="http://www.w3.org/1999/xlink">
 <defs>
  <style type="text/css">
   <![CDATA[
    .fil0 {fill:#2B2A29;fill-rule:nonzero}
   ]]>
  </style>
 </defs>
 <g id="Layer_x0020_1">
  <metadata id="CorelCorpID_0Corel-Layer"/>
  <path class="fil0" d="M153.193 13.8355l0 -2.30789 -3.07207 -2.01616 -4.32877 -2.50041c-4.2272,-2.04923 -7.78471,-3.55278 -10.6631,-4.51303l-14.1285 27.7668 -1.15276 2.02088 -5.86068 11.7261 -5.1898 9.98748 0.770085 0.388586 -0.770085 1.53663 -55.83 109.162 2.30671 1.05709 -4.90043 9.80086 1.91931 1.6323 -3.26695 6.44178 0 0 -2.20868 12.5859 -0.00708667 0.00826778 0.887015 0.887015 0.274018 -0.317719 8.83944 -9.32015c0,0.257482 -2.43663,-0.512602 0,0 0.576382,-0.830321 1.60159,-2.88427 3.07798,-6.15005l2.78624 0.479531 4.90043 -9.70874 2.68939 1.44568 55.2524 -108.301 1.43978 -2.49687 0.771266 0.383861 16.8178 -33.0558 3.64964 -6.72643 0.577564 0.387405 -15.3745 29.8798c-0.771266,1.34765 -1.02875,2.21577 -0.771266,2.59726 0,0.259845 0.35079,0.320081 1.05709,0.190159l0.480712 -0.383861 18.7419 -36.709c0.252758,-0.635438 0.188978,-1.11615 -0.194883,-1.43859 -0.706305,0 -1.21773,-0.124017 -1.53663,-0.38268l0 -0.387405 2.01734 -3.64964zm-31.0384 53.4299l0 0 -52.563 103.007c-0.0649611,0.516146 -0.257482,0.706305 -0.576382,0.576382 -0.193702,-0.38268 -4.51775,-2.59136 -12.9698,-6.63076l0 -0.285829c23.8266,-46.1212 35.6483,-69.2828 35.4582,-69.4777l9.0296 -17.1025 11.0517 -21.9073 0.387405 0 2.78506 1.63112 9.51031 4.70791c0.38268,0.0649611 0.576382,0.258663 0.576382,0.576382l-2.68939 4.90516zm4.89925 -7.30399l0 0 -0.479531 0.576382 -0.383861 -0.387405 -14.1273 -7.11029 -0.0909456 -0.188978 24.3108 -47.5657 0.38268 0c5.44374,2.37167 10.1835,4.83429 14.2194,7.39612l0.0968512 0.576382 -23.9281 46.7035z"/>
 </g>
</svg>
