<?xml version="1.0" encoding="UTF-8"?>
<!DOCTYPE svg PUBLIC "-//W3C//DTD SVG 1.1//EN" "http://www.w3.org/Graphics/SVG/1.1/DTD/svg11.dtd">
<!-- Creator: CorelDRAW -->
<svg xmlns="http://www.w3.org/2000/svg" xml:space="preserve" width="200px" height="200px" style="shape-rendering:geometricPrecision; text-rendering:geometricPrecision; image-rendering:optimizeQuality; fill-rule:evenodd; clip-rule:evenodd"
viewBox="0 0 200 200"
 xmlns:xlink="http://www.w3.org/1999/xlink">
 <defs>
  <style type="text/css">
   <![CDATA[
    .fil0 {fill:#2B2A29;fill-rule:nonzero}
   ]]>
  </style>
 </defs>
 <g id="Layer_x0020_1">
  <metadata id="CorelCorpID_0Corel-Layer"/>
  <path class="fil0" d="M2.50041 30.9156l194.619 0 0.38268 0 0 98.3878 -135.479 0c-1.55789,4.21893 -2.33624,8.27014 -2.33624,12.1607 0,6.12643 1.67127,11.7048 5.02209,16.7328 3.34845,5.02681 7.59219,8.65755 12.7383,10.8887 -10.4505,-0.12756 -18.9037,-1.79175 -25.3644,-4.99965 -6.4595,-3.2079 -11.2595,-7.67604 -14.3907,-13.4033 -3.13467,-5.72839 -5.12839,-12.7265 -5.98233,-20.9966l-29.2089 -0.38268 0 -98.3878zm57.8083 93.4153l132.221 0 0 -88.4428 -185.057 0 0 88.4428 28.5427 0c0,24.6297 10.0961,38.144 30.2861,40.5369 -6.78076,-5.36107 -10.167,-13.1316 -10.167,-23.3092 0,-6.69454 1.38781,-12.4383 4.17405,-17.2277z"/>
 </g>
</svg>
