<?xml version="1.0" encoding="UTF-8"?>
<!DOCTYPE svg PUBLIC "-//W3C//DTD SVG 1.1//EN" "http://www.w3.org/Graphics/SVG/1.1/DTD/svg11.dtd">
<!-- Creator: CorelDRAW -->
<svg xmlns="http://www.w3.org/2000/svg" xml:space="preserve" width="200px" height="200px" style="shape-rendering:geometricPrecision; text-rendering:geometricPrecision; image-rendering:optimizeQuality; fill-rule:evenodd; clip-rule:evenodd"
viewBox="0 0 200 200"
 xmlns:xlink="http://www.w3.org/1999/xlink">
 <defs>
  <style type="text/css">
   <![CDATA[
    .fil0 {fill:#2B2A29;fill-rule:nonzero}
   ]]>
  </style>
 </defs>
 <g id="Layer_x0020_1">
  <metadata id="CorelCorpID_0Corel-Layer"/>
  <path class="fil0" d="M80.4715 183.292c-11.8336,-0.543311 -20.6635,-4.52366 -26.4793,-11.9363 -5.8217,-7.4162 -9.36267,-18.0001 -10.6276,-31.7518l-2.33624 0c-6.84809,0 -13.2308,-1.74214 -19.147,-5.23941 -5.92209,-3.49018 -10.6347,-8.22999 -14.1296,-14.2194 -3.50318,-5.98351 -5.25122,-12.4383 -5.25122,-19.3631l0 -45.6819c0,-6.82683 1.74214,-13.1977 5.23469,-19.1257 3.49018,-5.92091 8.1851,-10.6111 14.0895,-14.0729 5.90556,-3.46302 12.267,-5.19571 19.0927,-5.19571l118.163 0c6.81974,0 13.18,1.73269 19.0868,5.19571 5.9032,3.46184 10.5993,8.15203 14.0954,14.0729 3.49137,5.928 5.23941,12.2989 5.23941,19.1257l0 45.6819c0,6.92486 -1.74805,13.3796 -5.23941,19.3631 -3.49018,5.98942 -8.18628,10.7292 -14.0907,14.2194 -5.90556,3.49727 -12.2718,5.23941 -19.0915,5.23941l-81.518 0c-3.3957,7.01935 -5.08823,13.4127 -5.08823,19.1848 0,6.63785 2.66459,14.8076 7.99731,24.5033zm-6.04965 -3.79019c-3.66853,-7.00399 -5.49926,-14.1792 -5.49926,-21.5411 0,-7.15754 1.83072,-15.0556 5.49926,-23.6848l81.4837 0c7.13155,0 13.4871,-1.59332 19.069,-4.77878 5.5843,-3.18546 9.90126,-7.56384 12.9651,-13.1316 3.0579,-5.55949 4.5898,-11.7367 4.5898,-18.5305l0 -39.5271c0,-7.00517 -1.57088,-13.3076 -4.71145,-18.9072 -3.14176,-5.59611 -7.49297,-9.95087 -13.0548,-13.0607 -5.56067,-3.10632 -11.8418,-4.66185 -18.8458,-4.66185l-111.837 0c-6.59415,0 -12.704,1.66064 -18.332,4.97248 -5.62563,3.3142 -10.0772,7.7977 -13.3572,13.4588 -3.27995,5.66107 -4.91815,11.7273 -4.91815,18.1986l0 39.5271c0,6.57052 1.6323,12.6521 4.90161,18.2482 3.26814,5.59256 7.70321,10.0276 13.3017,13.291 5.60083,3.26932 11.6836,4.90161 18.2541,4.90161l3.14176 0c0.75473,9.14062 2.20395,16.8049 4.33468,22.9974 2.13073,6.19493 5.07878,11.0906 8.84062,14.6859 3.76184,3.59649 8.48629,6.10989 14.1745,7.54258z"/>
 </g>
</svg>
