<?xml version="1.0" encoding="UTF-8"?>
<!DOCTYPE svg PUBLIC "-//W3C//DTD SVG 1.1//EN" "http://www.w3.org/Graphics/SVG/1.1/DTD/svg11.dtd">
<!-- Creator: CorelDRAW -->
<svg xmlns="http://www.w3.org/2000/svg" xml:space="preserve" width="200px" height="200px" style="shape-rendering:geometricPrecision; text-rendering:geometricPrecision; image-rendering:optimizeQuality; fill-rule:evenodd; clip-rule:evenodd"
viewBox="0 0 200 200"
 xmlns:xlink="http://www.w3.org/1999/xlink">
 <defs>
  <style type="text/css">
   <![CDATA[
    .str0 {stroke:#2B2A29;stroke-width:4.9524;stroke-linecap:round}
    .fil2 {fill:none;fill-rule:nonzero}
    .fil0 {fill:#2B2A29;fill-rule:nonzero}
    .fil1 {fill:#FEFEFE;fill-rule:nonzero}
   ]]>
  </style>
 </defs>
 <g id="Layer_x0020_1">
  <metadata id="CorelCorpID_0Corel-Layer"/>
  <path class="fil0" d="M164.336 14.3375c23.1569,18.5883 26.8632,52.4307 8.27841,75.5923 -18.5931,23.1557 -52.4355,26.8632 -75.5971,8.27369 -23.1545,-18.5883 -26.862,-52.4307 -8.27014,-75.59 18.586,-23.1581 52.4272,-26.8656 75.5888,-8.27605z"/>
  <path class="fil1" d="M157.499 22.8533c18.4572,14.8123 21.41,41.783 6.59533,60.2379 -14.8088,18.4561 -41.7795,21.4088 -60.2379,6.59651 -18.4572,-14.8159 -21.4112,-41.7842 -6.59533,-60.2379 14.8147,-18.4561 41.7854,-21.4076 60.2379,-6.59651z"/>
  <path class="fil2 str0" d="M152.808 28.6857c15.2363,12.2304 17.6718,34.4908 5.44492,49.7248"/>
  <path class="fil0" d="M18.9037 195.526c3.86696,3.10042 9.50441,2.48033 12.6036,-1.37954l59.867 -74.5789c3.09924,-3.86224 2.47915,-9.50441 -1.37954,-12.6048 -3.86696,-3.09924 -9.50441,-2.4827 -12.6048,1.37954l-59.8658 74.5801c-3.09333,3.86105 -2.48033,9.50441 1.37954,12.6036z"/>
  <path class="fil0" d="M89.7893 107.212c2.42837,1.95002 5.97643,1.56025 7.92526,-0.865755 1.94293,-2.426 1.55907,-5.97643 -0.869298,-7.92172 -2.42837,-1.95002 -5.97524,-1.56025 -7.92526,0.865755 -1.94293,2.42837 -1.55907,5.97288 0.869298,7.92172z"/>
 </g>
</svg>
