<?xml version="1.0" encoding="UTF-8"?>
<!DOCTYPE svg PUBLIC "-//W3C//DTD SVG 1.1//EN" "http://www.w3.org/Graphics/SVG/1.1/DTD/svg11.dtd">
<!-- Creator: CorelDRAW -->
<svg xmlns="http://www.w3.org/2000/svg" xml:space="preserve" width="200px" height="200px" style="shape-rendering:geometricPrecision; text-rendering:geometricPrecision; image-rendering:optimizeQuality; fill-rule:evenodd; clip-rule:evenodd"
viewBox="0 0 200 200"
 xmlns:xlink="http://www.w3.org/1999/xlink">
 <defs>
  <style type="text/css">
   <![CDATA[
    .fil0 {fill:#2B2A29;fill-rule:nonzero}
   ]]>
  </style>
 </defs>
 <g id="Layer_x0020_1">
  <metadata id="CorelCorpID_0Corel-Layer"/>
  <path class="fil0" d="M51.1551 147.686l0 9.79023 -10.9643 0 0 -9.79023 -10.0961 0 0 -11.2572 10.0961 0 0 -8.32093c-10.7339,-1.23899 -19.6986,-5.88075 -26.8963,-13.93 -7.19651,-8.04809 -10.7942,-17.5702 -10.7942,-28.5652 0,-11.8879 4.15515,-22.0407 12.4631,-30.4621 8.30912,-8.41896 18.3982,-12.6296 30.2683,-12.6296 11.8702,0 21.9592,4.21066 30.2683,12.6296 8.30912,8.42133 12.4643,18.5742 12.4643,30.4621 0,10.8473 -3.489,20.2572 -10.4646,28.2321 -6.97683,7.97368 -15.7584,12.704 -26.3447,14.1887l0 8.39534 10.3926 0 0 11.2572 -10.3926 0zm24.6699 -62.1489l0 0c0,-8.60912 -2.9705,-15.8611 -8.91149,-21.749 -5.94217,-5.8902 -13.1706,-8.83472 -21.6852,-8.83472 -8.46385,0 -15.6308,2.9575 -21.4974,8.87133 -5.8654,5.91383 -8.7981,13.1505 -8.7981,21.7124 0,8.46148 2.9327,15.6249 8.7981,21.4891 5.86658,5.8654 13.0336,8.7981 21.4974,8.7981 8.46503,0 15.6828,-2.9327 21.6474,-8.7981 5.9658,-5.86422 8.94928,-13.0277 8.94928,-21.4891z"/>
  <path class="fil0" d="M164.619 74.827l16.6052 -15.9533 -9.2044 -0.835046 5.68469 -6.02249 19.7978 0 0 19.2746 -6.29296 5.93981 -1.13032 -9.45007 -14.6233 15.8127c3.56696,3.96145 6.3532,8.4792 8.35991,13.5521 2.00671,5.07524 3.00947,10.4328 3.00947,16.0749 0,12.3284 -4.34413,22.786 -13.0288,31.3727 -8.68708,8.58904 -19.1931,12.8836 -31.5156,12.8836 -12.3261,0 -22.7801,-4.29452 -31.368,-12.8836 -8.58668,-8.58786 -12.88,-19.0466 -12.88,-31.3739 0,-12.3261 4.29334,-22.7836 12.8788,-31.3727 8.58668,-8.58786 19.0395,-12.8824 31.3621,-12.8824 4.10673,0 7.97959,0.483075 11.6174,1.44686 3.63782,0.964968 7.21305,2.43663 10.728,4.41618zm9.48078 38.7287l0 0c0,-8.76267 -3.08624,-16.1989 -9.25637,-22.3136 -6.17013,-6.11225 -13.6926,-9.17133 -22.5628,-9.17133 -8.7733,0 -16.2202,3.05908 -22.3395,9.17133 -6.1217,6.11462 -9.18078,13.5509 -9.18078,22.3136 0,8.76385 3.05908,16.2509 9.18078,22.4624 6.11934,6.21383 13.5662,9.31897 22.3395,9.31897 8.91976,0 16.4529,-3.09333 22.5994,-9.28236 6.14651,-6.18666 9.21976,-13.6867 9.21976,-22.499z"/>
 </g>
</svg>
