<?xml version="1.0" encoding="UTF-8"?>
<!DOCTYPE svg PUBLIC "-//W3C//DTD SVG 1.1//EN" "http://www.w3.org/Graphics/SVG/1.1/DTD/svg11.dtd">
<!-- Creator: CorelDRAW -->
<svg xmlns="http://www.w3.org/2000/svg" xml:space="preserve" width="200px" height="200px" style="shape-rendering:geometricPrecision; text-rendering:geometricPrecision; image-rendering:optimizeQuality; fill-rule:evenodd; clip-rule:evenodd"
viewBox="0 0 200 200"
 xmlns:xlink="http://www.w3.org/1999/xlink">
 <defs>
  <style type="text/css">
   <![CDATA[
    .fil1 {fill:#403F49}
    .fil0 {fill:#F00}
   ]]>
  </style>
 </defs>
 <g id="Layer_x0020_1">
  <metadata id="CorelCorpID_0Corel-Layer"/>
  <path class="fil1" d="M21.4951 137.588c0,0 -2.40238,11.791 4.95476,18.9285 7.35714,7.13273 16.108,6.21265 17.934,5.57721 0,-0.00118111 -21.8199,-2.34451 -22.8888,-24.5057zm36.8684 36.6546c0,0 3.79491,11.4273 13.7222,13.9525 9.92961,2.52167 17.0671,-2.63034 18.3261,-4.09373 0,0 -20.0848,8.83235 -32.0483,-9.85874zm52.1071 12.3568c0,0 10.1174,6.52564 19.4352,2.26537 9.32133,-4.26145 10.7824,-10.7186 10.8461,-12.6497 0,0 -9.24338,17.4391 -30.2813,10.3843zm46.5169 -23.3222c0,0 12.0237,0.656698 18.0072,-7.66069 5.9906,-8.31739 4.06657,-14.6505 3.16538,-16.3608 0,-0.00118111 0.602367,19.734 -21.1726,24.0214zm22.6195 -103.426c0,0 1.10906,-12.1182 -7.06659,-18.4773 -8.18156,-6.35911 -14.6564,-4.64886 -16.4139,-3.80082 0,0 19.9631,0.126379 23.4805,22.2781zm-37.2676 -33.044c0,0 -2.74845,-11.8619 -12.5139,-15.3296 -9.75834,-3.47247 -17.4214,1.05119 -18.8316,2.40829 0,0 21.0474,-7.0158 31.3455,12.9214zm-51.8567 -12.7194c0,0 -10.1576,-6.71108 -19.6265,-2.51104 -9.4737,4.20358 -11.9162,12.756 -12.0072,14.7131 0,-0.00118111 10.4446,-19.5793 31.6337,-12.2021zm-46.8015 21.6498c0,0 -12.13,-1.00749 -18.4194,7.23077 -6.2847,8.22999 -4.32169,16.91 -3.4642,18.6663 0,-0.00118111 -0.24449,-22.1848 21.8836,-25.8971zm121.744 64.2643c0,36.0782 -29.353,65.4289 -65.4241,65.4289 -36.0759,-0.00118111 -65.4241,-29.3494 -65.4241,-65.4289 0,-36.0771 29.3483,-65.4253 65.4241,-65.4253 36.0712,0 65.4241,29.3483 65.4241,65.4253zm-39.6027 -61.1178c-8.18274,-3.46066 -16.8675,-5.21343 -25.8215,-5.21343 -8.95401,-0.00118111 -17.6423,1.75277 -25.8226,5.21343 -7.89927,3.34018 -14.9883,8.1225 -21.0781,14.2147 -6.0969,6.09099 -10.8804,13.1847 -14.2206,21.084 -3.45829,8.17565 -5.20988,16.8651 -5.20988,25.8191 0,8.95519 1.75159,17.6446 5.20988,25.8215 3.34136,7.89219 8.12369,14.9942 14.2206,21.0864 6.08981,6.08863 13.1788,10.8698 21.0781,14.2147 8.18038,3.46066 16.8675,5.21343 25.8226,5.21343 8.95401,0 17.6375,-1.75277 25.8215,-5.21343 7.89455,-3.34491 14.993,-8.12605 21.0828,-14.2147 6.08981,-6.09336 10.8745,-13.193 14.2147,-21.0864 3.46066,-8.17684 5.20988,-16.8663 5.20988,-25.8215 0.00118111,-8.95519 -1.74923,-17.6423 -5.20988,-25.8191 -3.34018,-7.89927 -8.12605,-14.993 -14.2147,-21.084 -6.08981,-6.09336 -13.1883,-10.8745 -21.0828,-14.2147zm-25.8215 131.337c-38.7157,0 -70.2183,-31.4967 -70.2183,-70.2195 0,-38.7133 31.5026,-70.2159 70.2183,-70.2159 38.7192,-0.00118111 70.2183,31.5038 70.2183,70.2159 0,38.7227 -31.4991,70.2195 -70.2183,70.2195zm72.5899 -72.8368c-0.0307089,-0.826778 -0.0720478,-1.64883 -0.132285,-2.46734 -0.121655,-1.75986 -0.304727,-3.50318 -0.549217,-5.24059 -0.119292,-0.826778 -0.245671,-1.64765 -0.390948,-2.46616 -0.314176,-1.76104 -0.694494,-3.5079 -1.1315,-5.23941 -0.213781,-0.826778 -0.444098,-1.64647 -0.679139,-2.46262 -0.774809,-2.63624 -1.70553,-5.2276 -2.78152,-7.77998 -3.65908,-8.6481 -8.89377,-16.4163 -15.5659,-23.0896 -6.67092,-6.66738 -14.4344,-11.908 -23.0872,-15.5623 -8.95637,-3.78901 -18.4667,-5.70713 -28.2723,-5.70713 -9.80795,0 -19.3171,1.91813 -28.2723,5.70713 -8.64928,3.65318 -16.4198,8.89495 -23.0884,15.5623 -6.66856,6.67328 -11.9068,14.4415 -15.5682,23.0896 -1.07717,2.5512 -2.00198,5.14374 -2.77679,7.77998 -0.238585,0.816148 -0.462996,1.63584 -0.676777,2.46262 -0.441736,1.73033 -0.820873,3.47955 -1.1315,5.23941 -0.14882,0.81851 -0.278742,1.63938 -0.395672,2.46616 -0.248033,1.73742 -0.431106,3.48192 -0.546855,5.24059 -0.0578745,0.817329 -0.103938,1.64056 -0.135828,2.46734 -0.0283467,0.869298 -0.04252,1.7445 -0.04252,2.61734 0,0.878747 0.0141733,1.75395 0.04252,2.62207 0.03189,0.820873 0.0779534,1.64529 0.135828,2.46498 0.115749,1.75986 0.298821,3.50436 0.546855,5.24177 0.11693,0.822054 0.246852,1.64647 0.395672,2.46616 0.310632,1.75986 0.688588,3.50908 1.1315,5.23469 0.213781,0.827959 0.438192,1.65119 0.676777,2.4638 0.774809,2.64215 1.69962,5.23114 2.77679,7.78234 3.66145,8.64574 8.8985,16.4151 15.5682,23.0907 6.66856,6.66501 14.4391,11.9068 23.0884,15.5611 8.95519,3.78546 18.4643,5.70949 28.2723,5.70949 9.80559,0 19.3159,-1.92285 28.2723,-5.70949 8.65282,-3.65436 16.4151,-8.89495 23.0872,-15.5611 6.6721,-6.67564 11.9068,-14.445 15.5659,-23.0907 1.07599,-2.55238 2.00671,-5.1402 2.78152,-7.78234 0.235041,-0.813786 0.465358,-1.63466 0.679139,-2.4638 0.437011,-1.7256 0.817329,-3.47483 1.1315,-5.23469 0.145277,-0.820873 0.270475,-1.64411 0.390948,-2.46616 0.24449,-1.7386 0.427562,-3.48192 0.549217,-5.24177 0.0602367,-0.819691 0.105119,-1.64293 0.132285,-2.46498 0.0271656,-0.868117 0.0484256,-1.74332 0.0484256,-2.62207 0,-0.872842 -0.02126,-1.74805 -0.0484256,-2.61734zm-142.972 20.647l-17.6694 0c0.726384,0.73347 1.41733,1.56261 2.05277,2.4638l16.2946 0c-0.239766,-0.813786 -0.464177,-1.63466 -0.677958,-2.4638zm-1.52718 -7.70085l-23.1864 0c0.451185,0.885834 0.951976,1.70789 1.49293,2.46616l22.0892 0c-0.14882,-0.820873 -0.278742,-1.64411 -0.395672,-2.46616zm-0.681501 -7.70793l-24.7514 0c0.0413389,0.367326 0.0909456,0.734651 0.147639,1.09607l0.0165356 0.126379c0.0484256,0.282286 0.0992134,0.558666 0.158269,0.831503l0.0838589 0.412208 24.4797 0c-0.0578745,-0.819691 -0.103938,-1.64293 -0.134647,-2.46616zm0.134647 -7.70557l-24.625 0c-0.14882,0.804337 -0.261026,1.62285 -0.324806,2.46734l24.8152 0c0.0307089,-0.826778 0.0767723,-1.64883 0.134647,-2.46734zm0.942527 -7.70793l-22.5651 0c-0.503154,0.762998 -0.961425,1.58623 -1.363,2.46734l23.5325 -0.00118111c0.11693,-0.825597 0.246852,-1.64647 0.395672,-2.46616zm1.80946 -7.70085l-16.6312 0c-0.721659,0.922448 -1.50356,1.74805 -2.32088,2.46262l18.2742 -0.00118111c0.213781,-0.825597 0.438192,-1.64529 0.677958,-2.46144zm140.09 2.46144l17.6659 0c-0.729927,-0.73347 -1.41733,-1.55789 -2.05159,-2.46144l-16.2934 0c0.235041,0.816148 0.465358,1.63584 0.679139,2.46144zm1.52245 7.70557l23.1876 0c-0.452366,-0.888196 -0.951976,-1.71261 -1.49529,-2.46498l-22.0821 -0.00118111c0.144096,0.819691 0.269293,1.64056 0.389767,2.46616zm0.681501 7.70912l24.7478 0c-0.0389767,-0.370869 -0.0862212,-0.738195 -0.144096,-1.09843l-0.0141733 -0.121655c-0.0519689,-0.28701 -0.103938,-0.564571 -0.157088,-0.836227l-0.0862212 -0.411027 -24.4774 0c0.0590556,0.817329 0.100394,1.64056 0.131103,2.46734zm-0.131103 7.70439l24.6226 0c0.146458,-0.800794 0.256301,-1.62403 0.325987,-2.46498l-24.8175 -0.00118111c-0.0271656,0.822054 -0.0720478,1.64647 -0.131103,2.46616zm-0.940165 7.70793l22.5557 0c0.506697,-0.761817 0.960244,-1.58505 1.37363,-2.46616l-23.5396 0c-0.119292,0.822054 -0.245671,1.64647 -0.389767,2.46616zm17.145 5.23469l-18.2777 0c-0.213781,0.827959 -0.444098,1.65119 -0.679139,2.4638l16.6277 0c0.724021,-0.922448 1.50474,-1.74568 2.32915,-2.4638z"/>
  <path class="fil0" d="M100.001 34.5759c-36.0759,0 -65.4241,29.3483 -65.4241,65.4253 0,36.0782 29.3483,65.4289 65.4241,65.4289 36.0712,-0.00118111 65.4241,-29.3494 65.4241,-65.4289 0,-36.0771 -29.353,-65.4253 -65.4241,-65.4253zm66.33 65.4253c0,8.95519 -1.75041,17.6446 -5.21106,25.8215 -3.34018,7.89219 -8.12605,14.9942 -14.2147,21.0864 -6.08981,6.08863 -13.1883,10.8698 -21.0828,14.2147 -8.18274,3.46066 -16.8675,5.21343 -25.8215,5.21343 -8.95401,0 -17.6423,-1.75277 -25.8226,-5.21343 -7.89927,-3.34491 -14.9883,-8.12605 -21.0781,-14.2147 -6.0969,-6.09336 -10.8804,-13.193 -14.2206,-21.0864 -3.45829,-8.17684 -5.20988,-16.8663 -5.20988,-25.8215 0,-8.95519 1.75159,-17.6423 5.20988,-25.8191 3.34136,-7.89927 8.12369,-14.993 14.2206,-21.084 6.08981,-6.09336 13.1788,-10.8745 21.0781,-14.2147 8.18038,-3.46066 16.8675,-5.21343 25.8226,-5.21343 8.95401,-0.00118111 17.6375,1.75277 25.8215,5.21343 7.89455,3.34018 14.993,8.1225 21.0828,14.2147 6.08981,6.09099 10.8745,13.1847 14.2147,21.084 3.46066,8.17565 5.20988,16.8651 5.21106,25.8191zm-66.33 -70.2171c-38.7157,0 -70.2183,31.505 -70.2183,70.2171 0,38.7227 31.5026,70.2195 70.2183,70.2195 38.7192,0 70.2183,-31.4967 70.2183,-70.2195 0,-38.7133 -31.4991,-70.2159 -70.2183,-70.2171zm-70.3824 52.1851l-18.2742 0c-0.413389,0.355515 -0.833865,0.689769 -1.26261,0.986228l-0.0330711 0.0200789c-0.0826778,0.0673234 -0.161812,0.131103 -0.252758,0.178348 -0.04252,0.0377956 -0.08504,0.0755911 -0.129922,0.1063l0 0 -0.0153545 0.00944889c-1.39135,0.98859 -2.66223,2.32443 -3.72877,3.94019l22.5651 -0.00118111c0.310632,-1.75986 0.688588,-3.50672 1.1315,-5.23941zm-1.52718 7.70557l-23.5325 0c-0.00708667,0.00826778 -0.0118111,0.0177167 -0.0177167,0.0271656 -0.721659,1.57088 -1.2697,3.32837 -1.62167,5.21461l24.625 0c0.115749,-1.75986 0.298821,-3.50318 0.546855,-5.24177zm-0.725203 10.3265c0,-0.872842 0.0141733,-1.74805 0.04252,-2.61734l-24.8128 0c-0.0578745,0.66969 -0.0897645,1.3571 -0.09567,2.05159l0.00590556 0.141733 -0.00590556 0.235041c-0.00118111,0.953157 0.0578745,1.89568 0.158269,2.81105l24.7514 -0.00118111c-0.0295278,-0.866936 -0.0437011,-1.74214 -0.0437011,-2.62089zm0.178348 5.08705l-24.4797 0 0.0188978 0.0980323 0.137009 0.571658 0.192521 0.735833 0.114568 0.38268c0.0874023,0.295278 0.179529,0.58465 0.279923,0.876385l0.0885834 0.237403c0.118111,0.330711 0.251577,0.65906 0.376775,0.970874l0.05315 0.11693c0.150001,0.359058 0.311813,0.708667 0.479531,1.04765l0 0.00472445 0.00236222 0.00708667c0.0307089,0.06378 0.0661423,0.128741 0.0968512,0.192521l23.1864 0c-0.248033,-1.7386 -0.431106,-3.48192 -0.546855,-5.24177zm0.942527 7.70793l-22.0892 0c1.0193,1.41379 2.18151,2.59254 3.43703,3.47011l0.2126 0.151182c0.656698,0.468901 1.28741,1.01339 1.90159,1.6134l17.6694 0c-0.441736,-1.7256 -0.820873,-3.47483 -1.1315,-5.23469zm138.44 15.4796c-3.66027,8.64692 -8.89495,16.4163 -15.5671,23.0919 -6.67092,6.66501 -14.4344,11.9068 -23.0872,15.5611 -8.95637,3.78546 -18.4667,5.70949 -28.2723,5.70949 -9.80795,0 -19.3171,-1.92285 -28.2723,-5.70949 -8.64928,-3.65436 -16.4198,-8.89495 -23.0884,-15.5611 -6.66856,-6.67564 -11.9068,-14.445 -15.5682,-23.0907 -1.07717,-2.55238 -2.00198,-5.1402 -2.77679,-7.78234l-16.2934 0c1.26615,1.80474 2.32679,3.92602 3.10632,6.26344 0.207876,0.641344 0.375594,1.27796 0.518508,1.9134l-0.0330711 0.0141733c0.803156,3.77129 0.674415,7.43037 -0.367326,10.3808l-0.00944889 0.0330711c-0.0188978,0.103938 -0.0578745,0.203151 -0.0968512,0.296459 -0.0188978,0.0543311 -0.0307089,0.108662 -0.0484256,0.154726l0 0 -0.00708667 0.0177167c-0.801975,2.39411 -0.955519,5.21815 -0.349609,8.20754 0.59528,2.9953 1.95474,6.1406 4.06893,9.08393l0.0885834 0.112206 0.125198 0.19134c0.790164,1.08072 1.65356,2.07876 2.5512,2.97876l0.0968512 0.0944889c0.200789,0.199608 0.405121,0.394491 0.614178,0.582288l0.383861 0.349609 0.44646 0.38268 0.583469 0.481894 0.322443 0.242128 0.740557 0.540949 0.214962 0.139371c0.294097,0.199608 0.58465,0.387405 0.874023,0.571658l0.114568 0.0590556c0.336617,0.203151 0.666147,0.39331 1.0004,0.566934l0.00472445 0.00118111 0.01063 0.00354333c2.60908,1.36773 5.26421,2.03033 7.67014,1.99844l0.258663 -0.00826778c3.72286,-0.0342522 7.94179,1.45041 11.7922,4.20948 3.83743,2.85475 6.55281,6.47131 7.63234,10.0631l0.00944889 0.0259845c0.0460634,0.1063 0.0732289,0.203151 0.0921267,0.305908 0.02126,0.0496067 0.0484256,0.100394 0.0625989,0.152363l0 -0.00118111 0.00354333 0.0224411c0.759455,2.40356 2.29962,4.77405 4.552,6.83391 2.24529,2.05986 5.20162,3.81027 8.6481,4.93587 1.27678,0.415751 2.56065,0.714573 3.81972,0.912999l0.12756 0.0248033c0.285829,0.0437011 0.562209,0.07441 0.83977,0.111024l0.516146 0.0543311 0.589375 0.0496067 0.760636 0.0377956 0.40394 0.00708667 0.915362 0 0.259845 -0.00236222c0.348428,-0.0141733 0.696856,-0.0330711 1.03583,-0.0590556l0.131103 -0.00826778c0.389767,-0.0413389 0.768904,-0.0826778 1.14332,-0.134647l0.00590556 -0.00118111 0.00472445 -0.00236222c2.91971,-0.429925 5.45437,-1.46104 7.38077,-2.90317l0.205513 -0.157088c3.02128,-2.24411 7.37604,-3.54333 12.1784,-3.54924 0.617721,0.00354333 1.21891,0.0177167 1.81537,0.0661423l-0.0826778 -3.97444 0.0826778 4.04885c3.84334,0.402759 7.28037,1.65356 9.76071,3.56578l0.0236222 0.0177167c0.0944889,0.0543311 0.179529,0.119292 0.25512,0.185435 0.0496067,0.0283467 0.09567,0.0614178 0.137009,0.0921267l0 0 0.0129922 0.01063c2.02443,1.51182 4.66067,2.5323 7.69022,2.89018 3.02601,0.359058 6.44533,0.0484256 9.90598,-1.05119 1.2756,-0.409846 2.49333,-0.909456 3.63192,-1.48702l0.115749 -0.0578745 0.747644 -0.401578 0.450004 -0.252758 0.51024 -0.30827 0.634257 -0.406302 0.334255 -0.230317c0.257482,-0.173623 0.503154,-0.353152 0.7441,-0.533862l0.20197 -0.15945c0.285829,-0.210238 0.549217,-0.429925 0.817329,-0.657879l0.0933078 -0.0803156c0.295278,-0.248033 0.576382,-0.516146 0.849219,-0.777171l0.00118111 -0.00472445 0.00590556 -0.00708667c2.11655,-2.04805 3.57877,-4.36185 4.29688,-6.66501l0.0767723 -0.248033c1.14213,-3.58704 3.9083,-7.1788 7.80833,-9.99693 0.587012,-0.427562 1.18702,-0.820873 1.78938,-1.18111l0.02126 0.03189c3.34255,-1.93466 6.86108,-2.94687 9.98748,-2.86656l0.0389767 -0.00118111c0.109843,-0.00708667 0.211419,-0.00354333 0.310632,0.00472445 0.0566934,-0.00472445 0.109843,-0.00826778 0.164175,-0.00826778l0.00590556 0 0.0141733 0c2.51695,0.0330711 5.25358,-0.693313 7.91227,-2.19096 2.65986,-1.49056 5.23941,-3.75003 7.38431,-6.66619l0.0814967 -0.112206 0.139371 -0.186616c0.794888,-1.08426 1.47521,-2.2075 2.05632,-3.34727l0.0578745 -0.112206c0.133466,-0.251577 0.249215,-0.511421 0.368507,-0.762998l0.218506 -0.472445 0.219687 -0.546855 0.278742 -0.70158 0.128741 -0.38268c0.102757,-0.292916 0.203151,-0.582288 0.288191,-0.87166l0.0696856 -0.250396c0.0968512,-0.338979 0.186616,-0.670871 0.268112,-1.00867l0.0307089 -0.121655c0.08504,-0.381499 0.161812,-0.757093 0.224411,-1.12796l0.00236222 0 0 -0.0153545c0.501972,-2.89845 0.314176,-5.63154 -0.458271,-7.91345l-0.0885834 -0.243309c-1.18229,-3.53389 -1.07009,-8.00085 0.356696,-12.5162 0.216143,-0.638981 0.447641,-1.2567 0.706305,-1.85553l0.0354333 0.0118111c0.784258,-1.75513 1.73387,-3.35554 2.8075,-4.74334l-16.6277 0c-0.774809,2.64215 -1.70553,5.23114 -2.78034,7.78116zm-133.854 -56.5481c3.66027,-8.6481 8.89731,-16.4163 15.5671,-23.0896 6.66856,-6.66738 14.4391,-11.908 23.0884,-15.5623 8.95519,-3.78901 18.4643,-5.70713 28.2723,-5.70713 9.80559,0 19.3159,1.91813 28.2723,5.70713 8.65282,3.65318 16.4151,8.89495 23.0872,15.5623 6.6721,6.67328 11.9068,14.4415 15.5659,23.0896 1.07599,2.5512 2.00671,5.14374 2.78152,7.77998l16.2934 0c-1.26851,-1.80474 -2.32679,-3.92247 -3.10632,-6.26225 -0.203151,-0.638981 -0.376775,-1.27914 -0.519689,-1.91222l0.0342522 -0.00944889c-0.806699,-3.7772 -0.681501,-7.43746 0.364964,-10.3843l0.0118111 -0.0307089c0.0188978,-0.107481 0.0555122,-0.206695 0.0944889,-0.29764 0.0153545,-0.0555122 0.0295278,-0.111024 0.0484256,-0.15945l0 0 0.00354333 -0.0188978c0.80788,-2.39175 0.957882,-5.21697 0.357877,-8.20754 -0.598824,-2.98703 -1.95828,-6.1406 -4.07484,-9.08039l-0.0826778 -0.108662 -0.133466 -0.198427c-0.790164,-1.08072 -1.65119,-2.07639 -2.5512,-2.97876l-0.0921267 -0.0944889c-0.203151,-0.197246 -0.405121,-0.39331 -0.614178,-0.581107l-0.383861 -0.347247 -0.44646 -0.385042 -0.587012 -0.475988 -0.3189 -0.243309 -0.745281 -0.54213 -0.2126 -0.145277c-0.289372,-0.196065 -0.587012,-0.383861 -0.876385,-0.56339l-0.109843 -0.0696856c-0.337798,-0.193702 -0.666147,-0.381499 -1.0004,-0.559847l-0.00944889 -0.00354333 -0.00590556 -0.00236222c-2.60908,-1.36655 -5.26421,-2.02797 -7.67014,-1.99135l-0.256301 0c-3.72523,0.0389767 -7.94298,-1.45041 -11.7981,-4.20712 -0.54213,-0.402759 -1.05355,-0.812605 -1.54489,-1.23781l0.0236222 -0.0377956c-2.86538,-2.58427 -4.91461,-5.61619 -5.80044,-8.61739l-0.00944889 -0.03189c-0.04252,-0.102757 -0.07441,-0.203151 -0.0944889,-0.300002 -0.0200789,-0.0519689 -0.0389767,-0.103938 -0.0507878,-0.155907l-0.00590556 0 -0.00354333 -0.0188978c-0.751187,-2.40711 -2.28427,-4.78232 -4.52602,-6.85045 -2.23703,-2.07167 -5.18744,-3.82444 -8.63275,-4.96894l-0.131103 -0.0437011 -0.219687 -0.0708667c-1.27796,-0.424019 -2.56183,-0.716935 -3.81972,-0.921267l-0.125198 -0.0224411c-0.288191,-0.0366145 -0.565752,-0.0779534 -0.844495,-0.113387l-0.519689 -0.0566934 -0.588194 -0.04252 -0.75473 -0.0413389 -0.40394 -0.0129922 -0.912999 0 -0.261026 0.00826778c-0.351971,0.0141733 -0.70158,0.0366145 -1.04292,0.0602367l-0.12756 0.01063c-0.389767,0.0377956 -0.770085,0.0838589 -1.14095,0.137009l-0.00826778 0 -0.00590556 0c-2.91735,0.431106 -5.45319,1.46104 -7.3784,2.90553l-0.206695 0.155907c-2.99294,2.21813 -7.27565,3.50554 -12.0166,3.54097 -0.668509,-0.00590556 -1.32875,-0.0354333 -1.97718,-0.0944889l0 -0.0389767c-3.83861,-0.405121 -7.28155,-1.65001 -9.75953,-3.56105l-0.0271656 -0.0236222c-0.0944889,-0.0555122 -0.181891,-0.113387 -0.250396,-0.184253 -0.0484256,-0.0283467 -0.0968512,-0.0614178 -0.139371,-0.0944889l-0.00236222 0 -0.0118111 -0.00826778c-2.02324,-1.51064 -4.65949,-2.53348 -7.69494,-2.8949 -3.0201,-0.356696 -6.43824,-0.0413389 -9.8989,1.05355l-0.128741 0.0460634 -0.224411 0.0708667c-1.27796,0.407484 -2.49096,0.92481 -3.62956,1.49883l-0.11693 0.0578745c-0.252758,0.128741 -0.500791,0.266931 -0.745281,0.408665l-0.453547 0.251577 -0.503154 0.305908 -0.6378 0.413389 -0.331892 0.229136 -0.739376 0.536225 -0.205513 0.160631c-0.274018,0.217325 -0.544492,0.438192 -0.812605,0.65906l-0.0944889 0.0874023c-0.291735,0.253939 -0.571658,0.516146 -0.844495,0.781896l0 0 -0.01063 0.00472445c-2.10474,2.06222 -3.55515,4.38311 -4.26499,6.68037l-0.0779534 0.251577c-1.11261,3.54688 -3.82208,7.11029 -7.63352,9.92842 -0.543311,0.388586 -1.09961,0.751187 -1.65474,1.08426l-0.0224411 -0.03189c-3.34609,1.93702 -6.86226,2.95278 -9.98748,2.86538l-0.0354333 0c-0.108662,0.0129922 -0.2126,0.00826778 -0.315357,-0.00354333 -0.0543311,0.00354333 -0.103938,0.00944889 -0.161812,0.00944889l0 0 -0.0177167 0c-2.52167,-0.0236222 -5.25831,0.696856 -7.91581,2.18978 -2.65632,1.49293 -5.23469,3.75239 -7.38549,6.66738l-0.0791345 0.114568 -0.139371 0.185435c-0.79725,1.0819 -1.47285,2.2075 -2.05868,3.34373l-0.0590556 0.114568c-0.12756,0.257482 -0.248033,0.507878 -0.364964,0.766541l-0.214962 0.471264 -0.222049 0.544492 -0.279923 0.702761 -0.133466 0.380318c-0.101576,0.294097 -0.203151,0.58465 -0.283467,0.872842l-0.0732289 0.250396c-0.0933078,0.336617 -0.185435,0.675596 -0.268112,1.00985l-0.0259845 0.122836c-0.0826778,0.380318 -0.164175,0.751187 -0.225592,1.1256l0 0.00590556 -0.00590556 0.00590556c-0.498429,2.90317 -0.307089,5.63626 0.465358,7.91581l0.08504 0.24449c1.17993,3.53389 1.06772,8.00203 -0.36142,12.5198 -0.210238,0.6378 -0.44646,1.25434 -0.702761,1.85316l-0.0377956 -0.0118111c-0.783077,1.75631 -1.73505,3.35436 -2.80514,4.74098l16.6312 0c0.773628,-2.63624 1.69844,-5.2276 2.77679,-7.77998zm138.446 15.4808l22.0821 0c-1.01694,-1.41615 -2.18388,-2.59018 -3.43231,-3.47247l-0.216143 -0.146458c-0.65906,-0.46772 -1.28859,-1.01339 -1.90041,-1.6193l-17.6659 -0.00118111c0.437011,1.73151 0.817329,3.48074 1.13269,5.23941zm0.940165 7.70793l24.4774 0 -0.02126 -0.0980323 -0.134647 -0.572839 -0.19134 -0.73347 -0.115749 -0.383861c-0.0885834,-0.29764 -0.184253,-0.588194 -0.282286,-0.87166l-0.0874023 -0.24449c-0.11693,-0.327168 -0.246852,-0.650793 -0.377956,-0.970874l-0.0519689 -0.11693c-0.145277,-0.359058 -0.311813,-0.708667 -0.477169,-1.04646l-0.00354333 -0.00236222 -0.00472445 -0.00944889c-0.0307089,-0.0625989 -0.06378,-0.126379 -0.0921267,-0.190159l-23.1876 -0.00118111c0.24449,1.7386 0.427562,3.4831 0.550398,5.24177zm0.179529 5.08469c0,0.878747 -0.02126,1.75395 -0.0484256,2.62207l24.8175 -0.00118111c0.0555122,-0.672053 0.0885834,-1.3571 0.0885834,-2.05395l0 -0.142915 0.00472445 -0.232679c0.00354333,-0.955519 -0.0543311,-1.89214 -0.162993,-2.80868l-24.7478 0c0.0271656,0.869298 0.0484256,1.7445 0.0484256,2.61734zm-0.729927 10.3288l23.5396 0c0.00118111,-0.0118111 0.00826778,-0.0200789 0.00826778,-0.0295278 0.72284,-1.57088 1.2756,-3.32601 1.62521,-5.21225l-24.6226 0c-0.122836,1.75986 -0.305908,3.50436 -0.550398,5.24177zm-1.52245 7.70085l18.2777 0c0.406302,-0.353152 0.825597,-0.685045 1.25316,-0.979142l0.0307089 -0.0248033c0.0826778,-0.0649611 0.167718,-0.132285 0.252758,-0.178348 0.0472445,-0.0377956 0.0897645,-0.07441 0.129922,-0.101576l0 -0.00118111 0.0236222 -0.0118111c1.38781,-0.989772 2.65632,-2.32443 3.7205,-3.93783l-22.5557 0c-0.315357,1.75986 -0.695675,3.50908 -1.13269,5.23469z"/>
  <path class="fil1" d="M69.7943 59.5174c0,0 -0.0519689,-0.583469 0.39331,-0.840952 0,0 -0.381499,-0.34016 -0.237403,-0.796069 0.359058,-0.224411 0.809061,0.0921267 0.809061,0.0921267 0.145277,-0.51024 0.698037,-0.624808 0.698037,-0.624808 -0.336617,0.887015 0.153545,1.65592 0.698037,2.00789 1.03229,0.600005 3.7831,1.61222 8.72251,-0.480712 4.28035,-1.82482 9.96268,-6.6473 13.7824,-5.31264 3.79255,1.32403 3.53979,5.88194 0.745281,6.48076 -2.8075,0.591737 -3.36735,-1.3134 -3.36735,-2.07049 0,-0.336617 0.179529,-1.05709 0.824416,-1.17875 0.48898,-0.0814967 1.05001,0.377956 1.06182,0.842133l-0.0862212 0.237403c0,0 0.88229,0.177167 1.05119,-0.377956 0.154726,-0.544492 -0.41457,-1.89332 -2.64097,-1.48938 -2.20395,0.389767 -8.36109,3.49609 -10.395,4.14334 -1.92876,0.615359 -6.47485,1.96773 -9.93551,-0.41457l0 0c-0.00944889,-0.00590556 -0.0165356,-0.00708667 -0.0342522,-0.0200789 -0.0980323,-0.0673234 -0.197246,-0.140552 -0.312995,-0.22323 -0.500791,-0.309451 -1.16221,-0.416932 -1.77639,0.0259845zm34.1719 -8.6103c0,0 -1.44686,-1.37481 -3.08034,-0.64843 0,0 -0.103938,-1.80001 -1.5697,-2.3823 -1.36891,0.526776 -1.50828,2.45553 -1.50828,2.45553 -1.6382,-0.721659 -3.13231,0.575201 -3.13231,0.575201 4.46106,1.41497 4.80949,7.12447 3.79255,8.1355 -1.0193,1.01576 -0.598824,1.77639 -0.181891,1.99608 0.4252,0.2126 1.02993,1.19056 1.02993,1.19056 0,-0.00118111 0.596461,-0.976779 1.04292,-1.19056 0.422838,-0.220868 0.830321,-0.979142 -0.185435,-1.99608 -1.03702,-1.01221 -0.688588,-6.72053 3.79255,-8.1355zm24.7514 8.6103c0,0 0.0448822,-0.583469 -0.405121,-0.840952 0,0 0.392129,-0.34016 0.243309,-0.796069 -0.353152,-0.224411 -0.814967,0.0921267 -0.814967,0.0921267 -0.131103,-0.51024 -0.695675,-0.624808 -0.695675,-0.624808 0.333073,0.887015 -0.153545,1.65592 -0.696856,2.00789 -1.02639,0.600005 -3.77483,1.61222 -8.7166,-0.480712 -4.28271,-1.82482 -9.96386,-6.6473 -13.7824,-5.31264 -3.802,1.32403 -3.54688,5.88194 -0.737014,6.48076 2.80278,0.591737 3.34845,-1.3134 3.35672,-2.07049 0,-0.336617 -0.179529,-1.05709 -0.826778,-1.17875 -0.483075,-0.0814967 -1.05119,0.377956 -1.06182,0.842133l0.0921267 0.237403c0,0 -0.890558,0.177167 -1.05828,-0.377956 -0.14882,-0.544492 0.428744,-1.89332 2.62679,-1.48938 2.2264,0.389767 8.38353,3.49609 10.4139,4.14334 1.9323,0.615359 6.47485,1.96773 9.93433,-0.41457l0.00118111 0c0.0118111,-0.00590556 0.0118111,-0.00708667 0.0153545,-0.0200789 0.107481,-0.0673234 0.210238,-0.140552 0.32953,-0.22323 0.504335,-0.309451 1.16221,-0.416932 1.7823,0.0259845z"/>
 </g>
</svg>
