<?xml version="1.0" encoding="UTF-8"?>
<!DOCTYPE svg PUBLIC "-//W3C//DTD SVG 1.1//EN" "http://www.w3.org/Graphics/SVG/1.1/DTD/svg11.dtd">
<!-- Creator: CorelDRAW -->
<svg xmlns="http://www.w3.org/2000/svg" xml:space="preserve" width="200px" height="200px" style="shape-rendering:geometricPrecision; text-rendering:geometricPrecision; image-rendering:optimizeQuality; fill-rule:evenodd; clip-rule:evenodd"
viewBox="0 0 200 200"
 xmlns:xlink="http://www.w3.org/1999/xlink">
 <defs>
  <style type="text/css">
   <![CDATA[
    .fil0 {fill:#2B2A29;fill-rule:nonzero}
   ]]>
  </style>
 </defs>
 <g id="Layer_x0020_1">
  <metadata id="CorelCorpID_0Corel-Layer"/>
  <path class="fil0" d="M158.016 83.6227l-10.4245 -0.7441 -60.8024 -71.2021c-4.79649,-6.11816 -9.43236,-9.17842 -13.8922,-9.17842l-8.44022 0 38.5338 82.3306 -53.4642 3.96735 -20.888 -23.3695 -16.18 0 21.4183 32.757 -21.3864 35.9719 16.1612 0 20.8809 -23.3683 53.4583 3.97208 -38.5338 82.7404 8.44022 0c4.45988,0 9.09574,-3.06026 13.8922,-9.1796l60.8024 -71.201 10.4245 -0.7441c2.47561,-0.330711 4.75161,-0.622446 6.81974,-0.869298 2.06813,-0.246852 4.7587,-0.784258 8.06463,-1.61458 3.30711,-0.823235 6.57407,-2.56065 9.80205,-5.20516 3.2268,-2.64451 4.84256,-5.54296 4.84256,-8.68708 0,-9.25755 -9.84811,-14.7155 -29.529,-16.3761z"/>
 </g>
</svg>
