<?xml version="1.0" encoding="UTF-8"?>
<!DOCTYPE svg PUBLIC "-//W3C//DTD SVG 1.1//EN" "http://www.w3.org/Graphics/SVG/1.1/DTD/svg11.dtd">
<!-- Creator: CorelDRAW -->
<svg xmlns="http://www.w3.org/2000/svg" xml:space="preserve" width="200px" height="200px" style="shape-rendering:geometricPrecision; text-rendering:geometricPrecision; image-rendering:optimizeQuality; fill-rule:evenodd; clip-rule:evenodd"
viewBox="0 0 200 200"
 xmlns:xlink="http://www.w3.org/1999/xlink">
 <defs>
  <style type="text/css">
   <![CDATA[
    .fil0 {fill:#2B2A29;fill-rule:nonzero}
   ]]>
  </style>
 </defs>
 <g id="Layer_x0020_1">
  <metadata id="CorelCorpID_0Corel-Layer"/>
  <path class="fil0" d="M140.02 65.4631l4.03586 13.9596 -7.52486 0c-12.3556,0 -24.1762,6.98509 -29.5502,18.5328 -1.33702,2.95396 -2.13899,6.18194 -2.94451,9.39929 -0.811424,3.7642 -3.23152,6.98628 -7.52486,6.98628 -4.56145,0 -6.44651,-4.02405 -7.51541,-6.98628 -2.15199,-5.63745 -2.95396,-9.93433 -6.7158,-18.5281 -7.79297,-17.9954 -29.8136,-23.9057 -46.7413,-15.0415 -6.17603,3.22325 -12.0863,10.4776 -13.9714,13.6985 -1.87324,3.22325 -4.56027,4.83311 -8.5855,4.83311l-10.4812 0 0 26.053 13.9702 0c11.0068,0 19.871,-4.83193 25.7825,-12.893 0.800794,-1.07009 2.1508,-3.22443 2.68703,-4.29334 1.88269,-4.29925 4.03586,-5.10713 6.71226,-5.10713 2.68703,0 5.64217,1.07481 6.72289,5.10713 1.07009,3.49018 3.21262,14.5005 5.89965,19.6017 4.5709,8.59731 8.59613,13.4304 17.1946,17.7308 16.9241,8.32211 37.3302,1.60867 45.9287,-15.8458 1.61458,-3.23034 2.68585,-7.25439 3.22207,-11.0139 0.533862,-3.21971 2.15199,-4.83665 4.83901,-4.83665 2.68703,0 8.59613,0 8.59613,0l-4.03586 13.9655c-1.07127,2.68703 0,4.83901 1.61576,6.18312 1.60631,1.87797 4.29334,1.87797 7.79534,-0.54213l48.0712 -33.3003 -48.0712 -33.305c-3.502,-2.42246 -6.18903,-2.42246 -7.79534,-0.539768 -1.61576,1.34056 -2.68703,3.49137 -1.61576,6.18194z"/>
 </g>
</svg>
