<?xml version="1.0" encoding="UTF-8"?>
<!DOCTYPE svg PUBLIC "-//W3C//DTD SVG 1.1//EN" "http://www.w3.org/Graphics/SVG/1.1/DTD/svg11.dtd">
<!-- Creator: CorelDRAW -->
<svg xmlns="http://www.w3.org/2000/svg" xml:space="preserve" width="200px" height="200px" style="shape-rendering:geometricPrecision; text-rendering:geometricPrecision; image-rendering:optimizeQuality; fill-rule:evenodd; clip-rule:evenodd"
viewBox="0 0 200 200"
 xmlns:xlink="http://www.w3.org/1999/xlink">
 <defs>
  <style type="text/css">
   <![CDATA[
    .fil0 {fill:#2B2A29;fill-rule:nonzero}
   ]]>
  </style>
 </defs>
 <g id="Layer_x0020_1">
  <metadata id="CorelCorpID_0Corel-Layer"/>
  <path class="fil0" d="M27.1963 163.713c24.8742,-24.5636 52.0622,-48.2543 60.6229,-52.8311 14.0387,-7.50478 24.5459,-5.40713 32.542,-5.16736l-6.13824 19.7576c-1.03465,4.1398 0,7.24848 2.58545,9.83866 3.62719,3.09924 9.84457,2.06222 13.4635,-1.0441l67.2301 -47.9035 -68.1738 -47.1618c-3.62011,-3.1075 -9.83275,-4.14334 -13.4517,-1.03702 -2.59372,2.59018 -3.62601,5.69532 -2.59372,9.83866l7.41502 19.1742c0,0 -27.1986,-0.963787 -45.3972,8.13668 -18.2045,9.09692 -72.8002,63.0489 -72.8002,63.0489l24.6959 25.3502z"/>
 </g>
</svg>
