<?xml version="1.0" encoding="UTF-8"?>
<!DOCTYPE svg PUBLIC "-//W3C//DTD SVG 1.1//EN" "http://www.w3.org/Graphics/SVG/1.1/DTD/svg11.dtd">
<!-- Creator: CorelDRAW -->
<svg xmlns="http://www.w3.org/2000/svg" xml:space="preserve" width="200px" height="200px" style="shape-rendering:geometricPrecision; text-rendering:geometricPrecision; image-rendering:optimizeQuality; fill-rule:evenodd; clip-rule:evenodd"
viewBox="0 0 200 200"
 xmlns:xlink="http://www.w3.org/1999/xlink">
 <defs>
  <style type="text/css">
   <![CDATA[
    .str0 {stroke:#2B2A29;stroke-width:4.16696}
    .str1 {stroke:#2B2A29;stroke-width:12.4997}
    .fil0 {fill:none;fill-rule:nonzero}
   ]]>
  </style>
 </defs>
 <g id="Layer_x0020_1">
  <metadata id="CorelCorpID_0Corel-Layer"/>
  <path class="fil0 str0" d="M180.363 100.054c0.0519689,-2.04096 -0.668509,-4.10082 -2.15907,-5.70123"/>
  <polyline class="fil0 str0" points="178.204,94.3531 178.212,94.3378 125.682,41.8066 125.637,41.8539 122.781,38.9956 "/>
  <path class="fil0 str0" d="M122.781 38.9956c-0.204332,-0.25512 -0.413389,-0.503154 -0.646068,-0.738195 -3.15002,-3.14648 -8.25361,-3.14648 -11.3954,0 -3.0827,3.07798 -3.14294,8.01975 -0.197246,11.1816"/>
  <polyline class="fil0 str0" points="110.543,49.439 110.528,49.4508 153.286,92.2094 149.378,92.2094 68.3344,92.2094 45.4669,92.2094 45.4669,92.2743 28.6738,92.2743 "/>
  <path class="fil0 str0" d="M28.6738 92.2743c-0.314176,-0.0413389 -0.644887,-0.0649611 -0.976779,-0.0649611 -4.45043,0 -8.05754,3.6083 -8.05754,8.05872 0,4.3524 3.45003,7.89337 7.7729,8.04691"/>
  <polyline class="fil0 str0" points="27.4124,108.315 27.4124,108.33 50.2787,108.33 131.314,108.33 152.744,108.33 114.28,146.791 114.325,146.837 111.467,149.696 "/>
  <path class="fil0 str0" d="M111.467 149.696c-0.253939,0.198427 -0.503154,0.408665 -0.737014,0.643706 -3.14884,3.15002 -3.14884,8.25361 0,11.4036 3.07443,3.07325 8.02211,3.13467 11.178,0.193702"/>
  <polyline class="fil0 str0" points="121.908,161.937 121.925,161.947 174.453,109.417 174.409,109.37 177.266,106.509 "/>
  <path class="fil0 str0" d="M177.266 106.509c0.25512,-0.197246 0.503154,-0.408665 0.735833,-0.641344 1.60749,-1.60395 2.38939,-3.71342 2.36104,-5.81343"/>
  <path class="fil0 str1" d="M2.50041 99.9976c0,-53.8504 43.6515,-97.5019 97.4972,-97.5019 53.8516,0 97.5043,43.6515 97.5043,97.5019 0,53.854 -43.6527,97.5043 -97.5043,97.5043 -53.8457,0 -97.4972,-43.6503 -97.4972,-97.5043"/>
 </g>
</svg>
