<?xml version="1.0" encoding="UTF-8"?>
<!DOCTYPE svg PUBLIC "-//W3C//DTD SVG 1.1//EN" "http://www.w3.org/Graphics/SVG/1.1/DTD/svg11.dtd">
<!-- Creator: CorelDRAW -->
<svg xmlns="http://www.w3.org/2000/svg" xml:space="preserve" width="200px" height="200px" style="shape-rendering:geometricPrecision; text-rendering:geometricPrecision; image-rendering:optimizeQuality; fill-rule:evenodd; clip-rule:evenodd"
viewBox="0 0 200 200"
 xmlns:xlink="http://www.w3.org/1999/xlink">
 <defs>
  <style type="text/css">
   <![CDATA[
    .fil0 {fill:#2B2A29;fill-rule:nonzero}
   ]]>
  </style>
 </defs>
 <g id="Layer_x0020_1">
  <metadata id="CorelCorpID_0Corel-Layer"/>
  <path class="fil0" d="M164.192 26.386c0.0566934,0.114568 1.90513,-1.70553 5.5465,-5.46028 9.26936,9.4985 16.2202,20.2336 20.8561,32.203 4.63232,11.9706 6.93667,24.1844 6.90714,36.6369 -0.0295278,12.4536 -2.40238,24.6522 -7.12092,36.5944 -4.72327,11.941 -11.8028,22.6325 -21.2411,32.0695 -9.49614,9.49732 -20.2596,16.6371 -32.288,21.4136 -12.0273,4.77523 -24.2931,7.16226 -36.8034,7.16226 -12.5103,0 -24.7797,-2.37285 -36.8082,-7.12092 -12.0284,-4.74571 -22.7907,-11.8973 -32.2845,-21.4549 -18.769,-18.7655 -28.251,-41.5114 -28.4518,-68.2375 -0.199608,-26.7262 8.91385,-49.6457 27.3404,-68.7537l-8.61621 -2.64333 22.0939 -5.79926 -3.92365 21.834 -3.41105 -8.44377c-17.745,17.7462 -26.588,38.985 -26.5313,63.7198 0.0578745,24.7372 8.87369,45.9204 26.4439,63.5485 17.5714,17.5714 38.9436,26.4734 64.1072,26.699 25.1636,0.226773 46.5878,-8.47211 64.2726,-26.1037 17.5702,-17.6848 26.3423,-38.9932 26.3116,-63.9288 -0.0295278,-24.938 -8.82763,-46.25 -26.399,-63.9348z"/>
 </g>
</svg>
