<?xml version="1.0" encoding="UTF-8"?>
<!DOCTYPE svg PUBLIC "-//W3C//DTD SVG 1.1//EN" "http://www.w3.org/Graphics/SVG/1.1/DTD/svg11.dtd">
<!-- Creator: CorelDRAW -->
<svg xmlns="http://www.w3.org/2000/svg" xml:space="preserve" width="200px" height="200px" style="shape-rendering:geometricPrecision; text-rendering:geometricPrecision; image-rendering:optimizeQuality; fill-rule:evenodd; clip-rule:evenodd"
viewBox="0 0 200 200"
 xmlns:xlink="http://www.w3.org/1999/xlink">
 <defs>
  <style type="text/css">
   <![CDATA[
    .fil0 {fill:#2B2A29;fill-rule:nonzero}
   ]]>
  </style>
 </defs>
 <g id="Layer_x0020_1">
  <metadata id="CorelCorpID_0Corel-Layer"/>
  <g id="_265655072">
   <polygon id="_265656344" class="fil0" points="197.502,93.4578 181.155,108.652 179.233,102.304 169.616,105.189 159.809,108.075 150.193,110.382 140.578,112.499 130.772,114.038 121.155,115.383 111.349,116.151 101.732,116.344 92.5023,116.151 83.2707,115.383 74.2305,114.42 64.9989,112.884 55.7697,110.96 46.7295,108.843 37.5003,106.345 28.2711,103.461 22.8829,105.189 2.50041,95.9594 13.845,93.6492 6.53863,83.6522 27.8825,93.4578 31.1554,100.96 39.807,103.652 48.6535,105.96 57.5001,107.882 66.3466,109.614 75.1931,111.151 84.0396,112.112 92.885,112.69 101.732,113.075 111.349,112.69 120.772,111.921 130.386,110.767 140.002,109.228 149.619,107.113 159.233,104.806 168.848,102.113 178.271,99.2287 175.963,91.7275 "/>
  </g>
 </g>
</svg>
