<?xml version="1.0" encoding="UTF-8"?>
<!DOCTYPE svg PUBLIC "-//W3C//DTD SVG 1.1//EN" "http://www.w3.org/Graphics/SVG/1.1/DTD/svg11.dtd">
<!-- Creator: CorelDRAW -->
<svg xmlns="http://www.w3.org/2000/svg" xml:space="preserve" width="200px" height="200px" style="shape-rendering:geometricPrecision; text-rendering:geometricPrecision; image-rendering:optimizeQuality; fill-rule:evenodd; clip-rule:evenodd"
viewBox="0 0 200 200"
 xmlns:xlink="http://www.w3.org/1999/xlink">
 <defs>
  <style type="text/css">
   <![CDATA[
    .fil0 {fill:#2B2A29;fill-rule:nonzero}
   ]]>
  </style>
 </defs>
 <g id="Layer_x0020_1">
  <metadata id="CorelCorpID_0Corel-Layer"/>
  <path class="fil0" d="M165.653 40.218c9.17251,1.44804 15.4489,5.13311 18.834,11.0552 3.38625,5.93036 3.43822,13.2107 0.15945,21.8517 -3.27877,8.63983 -9.11582,17.6163 -17.5088,26.927 8.32329,9.31307 14.1226,18.2883 17.4013,26.9293 3.27995,8.63983 3.22798,15.9237 -0.154726,21.8506 -3.46066,5.92564 -9.74063,9.6296 -18.8375,11.1107 -9.0981,1.47993 -19.7836,0.844495 -32.0566,-1.90631 -3.81027,11.993 -8.64101,21.5671 -14.4958,28.7258 -5.85595,7.1599 -12.2032,10.7375 -19.0454,10.7375 -6.84572,0 -13.1741,-3.57759 -18.9935,-10.7375 -5.81816,-7.15872 -10.6335,-16.6997 -14.4403,-28.6231 -12.2765,2.61498 -22.9809,3.17955 -32.1156,1.69608 -9.13472,-1.48111 -15.3934,-5.1839 -18.7797,-11.1107 -3.38625,-5.92327 -3.45593,-13.1883 -0.209057,-21.7962 3.24097,-8.60322 9.0981,-17.5631 17.5631,-26.8762 -8.46503,-9.3107 -14.3399,-18.2872 -17.6186,-26.927 -3.27995,-8.64101 -3.2268,-15.9214 0.158269,-21.8517 3.38625,-5.92209 9.66267,-9.60716 18.834,-11.0552 9.16897,-1.44686 19.8911,-0.863393 32.1676,1.74686 3.73704,-11.9186 8.52999,-21.4773 14.3848,-28.6738 5.85595,-7.19297 12.2032,-10.793 19.049,-10.793 6.84218,0 13.1895,3.58231 19.0454,10.741 5.85477,7.1599 10.6855,16.7009 14.4958,28.6195 12.2729,-2.54057 22.9915,-3.08743 32.1629,-1.64056zm-129.507 4.70791l0 0c-8.11306,0.989772 -13.5757,3.91775 -16.3974,8.78511 -2.89609,4.93941 -2.71892,11.1473 0.527957,18.6226 3.24097,7.4788 8.7792,15.3415 16.6112,23.5903 6.63194,-6.69808 14.1781,-13.1517 22.6407,-19.362 0.989772,-10.0135 2.7886,-19.7836 5.39768,-29.3057 -11.0753,-2.54057 -20.6683,-3.31538 -28.7801,-2.33033zm0.635438 59.254l0 0c-7.76108,8.25243 -13.245,16.1174 -16.4541,23.5939 -3.21144,7.47762 -3.37089,13.6513 -0.475988,18.5175 2.82049,4.93941 8.27132,7.88392 16.3501,8.8359 8.07526,0.953157 17.6494,0.121655 28.7246,-2.48978 -2.60908,-9.30716 -4.40791,-18.9687 -5.39768,-28.9916 -8.46267,-6.20202 -16.0466,-12.6934 -22.747,-19.4659zm4.23429 -4.12799l0 0c4.93232,5.01146 10.8922,10.0879 17.8785,15.2352 -0.4252,-4.6524 -0.635438,-9.76543 -0.635438,-15.3415 0,-2.53821 0.0330711,-5.02209 0.107481,-7.45872 0.0696856,-2.43309 0.177167,-4.88508 0.316538,-7.35478 -6.70045,4.8709 -12.5907,9.84338 -17.6671,14.9198zm41.1582 30.6841l0 0c5.85241,3.45593 11.8111,6.56108 17.882,9.31188 6.2032,-2.82168 12.1288,-5.92327 17.7745,-9.31188 6.27643,-3.66617 11.8808,-7.22958 16.8226,-10.6867 0.561028,-5.78154 0.844495,-12.4832 0.844495,-20.1037 0,-7.54612 -0.283467,-14.2111 -0.844495,-19.9986 -5.29256,-3.52089 -10.9336,-7.08431 -16.9289,-10.6843 -5.78627,-3.24215 -11.6765,-6.31068 -17.6682,-9.20558 -6.07091,2.8949 -11.9599,5.96343 -17.6718,9.20558 -6.42052,3.80909 -12.0627,7.40675 -16.9289,10.7918 -0.564571,5.64335 -0.845676,12.2729 -0.845676,19.8911 0,7.62053 0.281105,14.2855 0.845676,19.9974 4.44098,3.17601 10.0123,6.77604 16.7186,10.793zm-2.96459 -66.8675l0 0c4.09019,-2.46734 8.53235,-4.82957 13.3324,-7.09021 -7.47644,-3.17483 -14.8135,-5.81934 -22.0065,-7.93825 -1.90395,7.40675 -3.35199,15.1312 -4.33822,23.1734 3.87759,-2.68112 8.21581,-5.39414 13.0123,-8.14495zm13.3324 79.4581l0 0c-5.07996,-2.39648 -9.55874,-4.79413 -13.4363,-7.19297 -4.37602,-2.40002 -8.64338,-5.04453 -12.8056,-7.93471 0.845676,7.61817 2.22285,15.2706 4.12799,22.9584 6.91305,-1.8319 14.2832,-4.44216 22.114,-7.83077zm7.51423 -90.1483l0 0c10.0123,-4.37011 19.3253,-7.65006 27.9321,-9.83984 -3.24569,-10.9288 -7.31817,-19.6572 -12.2221,-26.1852 -4.90279,-6.52446 -10.1753,-9.78905 -15.8174,-9.78905 -5.64217,0 -10.9005,3.26459 -15.7667,9.78905 -4.86618,6.528 -8.9233,15.1856 -12.1655,25.975 9.0981,2.53939 18.4431,5.89375 28.0396,10.0501zm0 93.6409l0 0c-9.17251,4.1646 -18.4832,7.47998 -27.9357,9.94614 3.17483,10.9336 7.19533,19.6442 12.0615,26.1345 4.86618,6.49257 10.1245,9.73354 15.7667,9.73354 5.64217,0 10.9147,-3.24097 15.8174,-9.73354 4.90398,-6.49021 8.97645,-15.2009 12.2221,-26.1345 -9.38275,-2.39884 -18.6946,-5.71422 -27.9321,-9.94614zm20.9494 -10.6855l0 0c-5.15083,3.03428 -9.66622,5.43193 -13.5426,7.19297 7.75636,3.38861 15.1277,5.99887 22.1128,7.83077 1.69017,-6.55635 3.10278,-14.1781 4.23192,-22.8557 -4.02169,2.61026 -8.28904,5.22169 -12.8021,7.83195zm8.57015 -87.2936l0 0c-6.77249,1.90631 -14.1084,4.51539 -22.01,7.83077 5.22169,2.6823 9.6296,5.08114 13.2261,7.19769 4.79531,2.75081 9.13472,5.46382 13.0159,8.14495 -0.920086,-7.82841 -2.33033,-15.5517 -4.23192,-23.1734zm33.54 47.0838l0 0c7.82959,-8.24888 13.3489,-16.1115 16.5568,-23.5903 3.20908,-7.47526 3.40514,-13.6832 0.583469,-18.6226 -2.82049,-4.86736 -8.28904,-7.77644 -16.4009,-8.72842 -8.11187,-0.953157 -17.7049,-0.122836 -28.7778,2.48388 2.60671,9.10165 4.44216,18.8718 5.50162,29.3093 8.18156,5.92682 15.6922,12.3107 22.5368,19.1482zm0.688588 59.254l0 0c8.07408,-0.986228 13.5237,-3.9142 16.3442,-8.78393 2.82168,-4.86618 2.63034,-11.0351 -0.578745,-18.5127 -3.21144,-7.47644 -8.69534,-15.3781 -16.4541,-23.7014 -6.70399,6.77249 -14.2513,13.2261 -22.6431,19.3631 -1.06064,10.0867 -2.85947,19.7872 -5.39532,29.0943 11.0729,2.68112 20.647,3.53034 28.727,2.54057zm-13.1198 -47.3496l0 0c2.99884,-2.57364 5.76382,-5.165 8.30321,-7.77644 -4.79531,-4.72563 -10.6843,-9.76897 -17.6671,-15.1312 0.351971,5.64689 0.529138,10.6524 0.529138,15.0249 0,4.86972 -0.177167,10.1233 -0.529138,15.7655 3.24215,-2.67994 6.36501,-5.30555 9.36385,-7.88274z"/>
 </g>
</svg>
