<?xml version="1.0" encoding="UTF-8"?>
<!DOCTYPE svg PUBLIC "-//W3C//DTD SVG 1.1//EN" "http://www.w3.org/Graphics/SVG/1.1/DTD/svg11.dtd">
<!-- Creator: CorelDRAW -->
<svg xmlns="http://www.w3.org/2000/svg" xml:space="preserve" width="200px" height="200px" style="shape-rendering:geometricPrecision; text-rendering:geometricPrecision; image-rendering:optimizeQuality; fill-rule:evenodd; clip-rule:evenodd"
viewBox="0 0 200 200"
 xmlns:xlink="http://www.w3.org/1999/xlink">
 <defs>
  <style type="text/css">
   <![CDATA[
    .fil0 {fill:#2B2A29;fill-rule:nonzero}
   ]]>
  </style>
 </defs>
 <g id="Layer_x0020_1">
  <metadata id="CorelCorpID_0Corel-Layer"/>
  <path class="fil0" d="M84.4601 31.8132c0.500791,-3.40278 2.25356,-5.10476 5.27012,-5.10476 4.33586,0 8.26188,-0.0307089 11.7721,-0.121655 3.50908,-0.0720478 8.27841,-0.132285 14.295,-0.132285 2.33742,0 3.91893,1.04528 4.75516,3.10514 0.837408,2.07521 1.26143,4.07602 1.26143,5.98587 0,1.89687 -0.0885834,3.51026 -0.253939,4.83783l-37.3456 0c-0.337798,-2.31262 -0.256301,-5.16382 0.245671,-8.57015zm17.0423 112.275l0 0c16.3773,-0.0909456 29.4935,-0.18071 39.3558,-0.253939 9.85992,-0.0909456 18.0415,-0.133466 24.5648,-0.133466 6.35438,0 10.4458,-1.92639 12.2812,-5.76264 1.83663,-3.83861 2.76262,-7.25793 2.76262,-10.2591l0 -71.11c0,-2.85238 -0.925992,-6.18194 -2.76262,-10.0194 -1.83545,-3.85161 -5.92682,-5.67406 -12.2812,-5.5087 -6.18666,0 -12.3686,-0.0602367 -18.5494,-0.134647 -6.18903,-0.0885834 -12.3686,-0.134647 -18.5505,-0.134647 0.509059,-3.49137 0.381499,-7.92762 -0.37205,-13.258 -0.755911,-5.34335 -3.30003,-8.01739 -7.64297,-8.01739l-35.5869 0c-3.189,0 -5.31618,1.46458 -6.40753,4.37602 -1.08072,2.93979 -1.61812,5.98587 -1.61812,9.13708 0,3.17955 0,5.77682 0,7.76227 -6.18903,0 -12.3698,0.0460634 -18.5517,0.134647 -6.18666,0.07441 -12.3686,0.134647 -18.5482,0.134647 -6.01658,-0.165356 -10.0265,1.6571 -12.0343,5.5087 -2.0008,3.83743 -3.00002,7.16699 -3.00002,10.0194l0 71.6025c0,2.85238 0.954338,6.15123 2.88073,9.90008 1.91813,3.76066 5.9717,5.62918 12.1536,5.62918 6.17958,0 12.3615,0.04252 18.5482,0.133466 6.18194,0.0732289 12.3627,0.11693 18.5517,0.11693 0.164175,0.166537 8.43668,0.210238 24.8069,0.137009zm-99.002 36.4125l0 0 14.5348 0 0 -14.3623 -14.5348 0 0 14.3623zm30.0782 0l0 0 14.5418 0 0 -14.3623 -14.5418 0 0 14.3623zm30.0829 0l0 0 14.5348 0 0 -14.3623 -14.5348 0 0 14.3623zm30.0687 0l0 0 14.543 0 0 -14.3623 -14.543 0 0 14.3623zm30.0841 0l0 0 14.5348 0 0 -14.3623 -14.5348 0 0 14.3623zm30.077 0l0 0 14.5418 0 0 -14.3623 -14.5418 0 0 14.3623zm30.077 0l0 0 14.5336 0 0 -14.3623 -14.5336 0 0 14.3623z"/>
 </g>
</svg>
