<?xml version="1.0" encoding="UTF-8"?>
<!DOCTYPE svg PUBLIC "-//W3C//DTD SVG 1.1//EN" "http://www.w3.org/Graphics/SVG/1.1/DTD/svg11.dtd">
<!-- Creator: CorelDRAW -->
<svg xmlns="http://www.w3.org/2000/svg" xml:space="preserve" width="200px" height="200px" style="shape-rendering:geometricPrecision; text-rendering:geometricPrecision; image-rendering:optimizeQuality; fill-rule:evenodd; clip-rule:evenodd"
viewBox="0 0 200 200"
 xmlns:xlink="http://www.w3.org/1999/xlink">
 <defs>
  <style type="text/css">
   <![CDATA[
    .fil0 {fill:#2B2A29;fill-rule:nonzero}
   ]]>
  </style>
 </defs>
 <g id="Layer_x0020_1">
  <metadata id="CorelCorpID_0Corel-Layer"/>
  <path class="fil0" d="M160.644 197.5l-24.4608 -24.5589c-5.58311,2.68939 -11.3906,4.81775 -17.4214,6.37918 -6.03312,1.56143 -12.2895,2.34451 -18.762,2.34451 -6.48076,0 -12.73,-0.783077 -18.762,-2.34451 -6.03194,-1.56143 -11.8395,-3.68979 -17.4226,-6.37918l-24.4608 24.5589 -36.5401 -36.6464 24.4762 -24.5482c-2.67522,-5.59729 -4.8024,-11.4273 -6.36383,-17.4757 -1.56261,-6.04729 -2.34333,-12.3261 -2.34333,-18.8316 0,-6.49611 0.780715,-12.7749 2.34333,-18.8222 1.56143,-6.04611 3.68861,-11.8784 6.36383,-17.4828l-24.4762 -24.547 36.5401 -36.6475 24.4608 24.56c5.58311,-2.68349 11.3906,-4.81067 17.4226,-6.37092 6.03194,-1.56261 12.2812,-2.35277 18.762,-2.35277 6.47249,0 12.7288,0.790164 18.762,2.35277 6.03076,1.56025 11.8383,3.68743 17.4214,6.37092l24.4608 -24.56 36.5401 36.6475 -24.4762 24.547c2.6764,5.60437 4.79531,11.4367 6.35674,17.4828 1.56261,6.04729 2.35041,12.3261 2.35041,18.8222 0,6.50556 -0.787801,12.7844 -2.35041,18.8316 -1.56143,6.04847 -3.68034,11.8784 -6.35674,17.4757l24.4762 24.5482 -36.5401 36.6464zm-28.7211 -97.5019l0 0c0,-4.28389 -0.843314,-8.40597 -2.52167,-12.358 -1.68545,-3.95082 -3.98271,-7.39258 -6.89061,-10.3312 -2.91498,-2.92916 -6.33312,-5.24177 -10.2461,-6.93785 -3.92129,-1.69253 -8.01148,-2.54175 -12.2647,-2.54175 -4.48586,0 -8.63156,0.849219 -12.4359,2.54175 -3.80436,1.69608 -7.16817,4.00869 -10.0761,6.93785 -2.91616,2.93861 -5.21343,6.38037 -6.89061,10.3312 -1.68663,3.952 -2.52049,8.07408 -2.52049,12.358 0,4.51893 0.833865,8.70125 2.52049,12.5375 1.67718,3.83389 3.97444,7.2225 6.89061,10.154 2.9079,2.93861 6.2717,5.25004 10.0761,6.94257 3.80436,1.6949 7.95006,2.53821 12.4359,2.53821 4.25318,0 8.34337,-0.843314 12.2647,-2.53821 3.91302,-1.69253 7.33116,-4.00397 10.2461,-6.94257 2.9079,-2.93152 5.20516,-6.32013 6.89061,-10.154 1.67836,-3.83625 2.52167,-8.01857 2.52167,-12.5375z"/>
 </g>
</svg>
