<?xml version="1.0" encoding="UTF-8"?>
<!DOCTYPE svg PUBLIC "-//W3C//DTD SVG 1.1//EN" "http://www.w3.org/Graphics/SVG/1.1/DTD/svg11.dtd">
<!-- Creator: CorelDRAW -->
<svg xmlns="http://www.w3.org/2000/svg" xml:space="preserve" width="200px" height="200px" style="shape-rendering:geometricPrecision; text-rendering:geometricPrecision; image-rendering:optimizeQuality; fill-rule:evenodd; clip-rule:evenodd"
viewBox="0 0 200 200"
 xmlns:xlink="http://www.w3.org/1999/xlink">
 <defs>
  <style type="text/css">
   <![CDATA[
    .fil0 {fill:#2B2A29;fill-rule:nonzero}
   ]]>
  </style>
 </defs>
 <g id="Layer_x0020_1">
  <metadata id="CorelCorpID_0Corel-Layer"/>
  <path class="fil0" d="M131.831 97.4594l20.8632 44.6708c-0.800794,1.87561 -1.86852,2.94215 -3.74176,3.74294l0 2.14608c-1.07363,1.06654 -5.35162,2.66931 -5.35162,4.27681 0,1.06891 0.801975,2.6764 1.3382,3.74294 -0.536225,3.21262 -5.61619,6.68864 -8.82881,6.68864 -3.47719,0 -8.82881,-9.62842 -10.1658,-11.7674l-25.1423 -38.7924 -52.9634 82.1262c-3.21262,2.40356 -10.1658,3.20554 -13.9088,3.20554 -3.47719,0 -4.01342,-2.66931 -5.61737,-5.34571 -1.60749,-2.40947 -4.01224,-5.35044 -4.01224,-8.2914 0,-1.60867 0.264569,-2.67522 0.800794,-4.28389 0.536225,-2.14017 1.60395,-3.74294 -0.264569,-5.34571 -0.536225,-0.536225 -1.3382,-1.07363 -1.3382,-1.87442 0,-3.47719 4.54492,-9.89535 6.41816,-13.1068l6.41698 -10.9666c10.969,-19.2604 31.3018,-43.3362 45.7456,-60.721l3.20672 -3.74885 -19.7907 -54.5674c-0.80788,-2.13899 -2.94687,-6.68864 -2.94687,-9.09338 0,-1.87442 2.41065,-4.27799 3.47719,-5.61619l1.87442 -1.60867c0.536225,-0.536225 1.07245,-0.801975 1.87324,-0.801975 1.87324,0 2.94215,1.33702 4.27917,2.41065 1.60277,-1.3382 2.40947,-1.3382 4.27917,-1.3382 1.60867,-0.806699 1.60867,-0.806699 2.40947,-1.87324 0.801975,-1.3382 1.3382,-2.14017 2.94215,-2.14017 2.93979,0 3.74176,2.6764 4.81421,4.81421l10.9678 21.9356 9.36503 18.1879 6.68273 -8.29258 13.1068 -14.9812c2.94687,-3.47601 23.2738,-28.0868 25.6845,-28.0868 1.60277,0 7.75518,3.74767 9.35795,5.08587l2.94687 -2.6764c0.530319,-0.801975 2.13899,-2.67522 2.94097,-2.67522 0.801975,0 1.3382,1.60277 1.60277,2.13899 1.07245,2.6764 5.35162,5.61619 5.35162,7.49061 0,1.60277 -1.87324,3.21262 -2.94097,4.27917 -2.94687,2.67522 -6.68864,7.76108 -9.09928,10.9678l-37.9834 49.2216 -2.94097 4.27799 8.2914 16.5852z"/>
 </g>
</svg>
