<?xml version="1.0" encoding="UTF-8"?>
<!DOCTYPE svg PUBLIC "-//W3C//DTD SVG 1.1//EN" "http://www.w3.org/Graphics/SVG/1.1/DTD/svg11.dtd">
<!-- Creator: CorelDRAW -->
<svg xmlns="http://www.w3.org/2000/svg" xml:space="preserve" width="200px" height="200px" style="shape-rendering:geometricPrecision; text-rendering:geometricPrecision; image-rendering:optimizeQuality; fill-rule:evenodd; clip-rule:evenodd"
viewBox="0 0 200 200"
 xmlns:xlink="http://www.w3.org/1999/xlink">
 <defs>
  <style type="text/css">
   <![CDATA[
    .fil0 {fill:#2B2A29;fill-rule:nonzero}
   ]]>
  </style>
 </defs>
 <g id="Layer_x0020_1">
  <metadata id="CorelCorpID_0Corel-Layer"/>
  <polygon class="fil0" points="75.6325,53.9591 75.6325,36.5838 180.083,36.5838 180.083,163.413 77.3605,163.413 77.3605,149.51 59.9532,149.51 59.9532,172.094 59.9532,179.044 68.6568,179.044 188.798,179.044 197.502,179.044 197.502,172.094 197.502,29.6329 197.502,20.9529 188.798,20.9529 66.9171,20.9529 58.2135,20.9529 58.2135,29.6329 58.2135,53.9591 "/>
  <polygon class="fil0" points="51.252,132.139 72.1388,111.295 2.50041,111.295 2.50041,93.9114 72.1388,93.9114 51.252,71.3309 75.6325,71.3309 101.741,99.1319 75.6325,132.139 "/>
 </g>
</svg>
