<?xml version="1.0" encoding="UTF-8"?>
<!DOCTYPE svg PUBLIC "-//W3C//DTD SVG 1.1//EN" "http://www.w3.org/Graphics/SVG/1.1/DTD/svg11.dtd">
<!-- Creator: CorelDRAW -->
<svg xmlns="http://www.w3.org/2000/svg" xml:space="preserve" width="200px" height="200px" style="shape-rendering:geometricPrecision; text-rendering:geometricPrecision; image-rendering:optimizeQuality; fill-rule:evenodd; clip-rule:evenodd"
viewBox="0 0 200 200"
 xmlns:xlink="http://www.w3.org/1999/xlink">
 <defs>
  <style type="text/css">
   <![CDATA[
    .fil0 {fill:#2B2A29;fill-rule:nonzero}
   ]]>
  </style>
 </defs>
 <g id="Layer_x0020_1">
  <metadata id="CorelCorpID_0Corel-Layer"/>
  <path class="fil0" d="M122.469 41.9862c3.54097,-10.0737 11.9836,-35.4015 25.3278,-35.4015 9.53393,0 14.1603,8.16502 14.1603,16.8852 0,15.247 -12.5281,45.7539 -17.4308,61.2749l6.26462 1.90868c4.90161,1.08662 7.62644,1.9075 9.80441,6.53391 4.08665,8.17329 5.72485,20.973 5.72485,30.2306 0,16.069 -5.99532,37.8558 -16.8911,50.1146 -13.0678,14.432 -32.4085,23.9671 -51.7421,23.9671 -15.7985,0 -34.3148,-4.6335 -45.213,-16.6159 -9.52803,-10.6206 -18.7927,-31.8617 -18.7927,-46.0232 0,-10.3501 7.35596,-19.6088 17.706,-19.3383 -1.09135,-4.35712 -2.18269,-8.71306 -2.18269,-13.0761 0,-4.07956 1.36182,-6.26344 3.81617,-9.52685 2.17797,-2.9953 8.98826,-9.25992 13.3442,-9.25992 3.54097,0 8.17329,1.63112 11.4367,2.44844 -4.35594,-17.7025 -19.8793,-49.5689 -19.8793,-67.0009 0,-8.44259 7.35124,-16.6088 16.3395,-16.6088 5.99532,0 10.8969,5.98824 13.6218,10.6206 4.62523,8.17211 10.6194,24.7809 13.6135,34.0408l9.25992 25.3337 11.7119 -30.5069zm16.8852 69.1789l0 0 2.17797 4.35712 -1.08662 2.45317c-8.71779,1.6323 -13.0737,3.26459 -19.884,9.52921 -7.08076,6.53509 -17.9718,18.7927 -17.9718,29.1427 0,5.17327 3.26459,12.5292 4.35712,17.973l-2.45435 2.45317c-8.71424,-7.62526 -10.891,-13.3442 -11.4379,-24.5116l-6.26344 0c0.270475,2.44844 0.816148,7.62644 -0.816148,10.0749 -2.17915,3.81617 -7.89809,6.81147 -11.9836,6.81147 -5.44847,0 -13.0749,-4.6335 -17.1604,-8.17447 -4.08074,-3.81027 -7.35124,-9.80323 -9.80441,-14.706l0 -5.98824 2.17797 0.270475c2.72364,6.53982 14.1674,17.9765 20.9706,17.9765 2.72482,0 8.17329,-2.17915 8.17329,-5.44847 0,-2.72482 -13.3454,-20.425 -15.7926,-23.6955 -2.45553,-3.26459 -4.9087,-5.98824 -9.26582,-5.98824 -4.62641,0 -11.4367,7.07958 -11.4367,11.4367 0,3.26932 5.17327,18.7927 7.08076,22.3325 2.45317,5.71894 9.80441,17.432 14.706,20.973 7.35833,5.71776 21.5187,8.16502 30.7774,8.16502 17.9765,0 35.9483,-6.53391 47.6602,-20.4238 10.0761,-11.9836 15.7997,-30.7774 15.7997,-46.2996 0,-10.3513 -1.6382,-20.6966 -12.2588,-24.5116 -10.3501,-3.81027 -31.8688,-6.2658 -43.3043,-7.35124l-9.52921 -0.814967c-1.36182,2.44726 -2.17797,4.35594 -2.17797,7.07958 0,5.71894 5.44138,10.891 10.3442,13.3442 7.62644,3.54097 16.3454,3.54097 24.5116,3.54097l13.8911 0zm-81.4317 -8.17211l0 0c0,5.99296 9.80559,19.6088 13.3442,24.5116 4.08783,5.17799 11.1686,15.2529 18.5186,15.2529 3.26932,0 6.26344,-2.45435 6.26344,-5.71894 0,-5.17917 -12.5292,-25.8734 -15.5222,-31.0514 -4.08665,-6.80557 -5.98824,-11.4367 -14.4367,-12.7997 -2.99412,2.17915 -8.16739,5.71894 -8.16739,9.80559zm26.9601 -74.6215l0 0c-1.90159,-5.17799 -4.90161,-16.0678 -11.9824,-16.0678 -3.81027,0 -5.71776,4.35476 -5.71776,7.35006 0,10.0796 5.17091,24.5116 8.71188,34.316l7.08667 19.3383 2.44726 6.26462c1.363,-1.36182 1.9075,-1.9075 3.81617,-1.9075l13.3454 1.36182 -17.7072 -50.6555zm12.5292 87.6952l0 0 6.26462 14.9777 12.2588 -11.4367 -18.5234 -3.54097zm46.2996 -58.5572l0 0c1.9075,-6.26462 9.25755,-28.0526 9.25755,-33.4999 0,-3.54097 -2.17797,-6.80557 -5.98824,-6.80557 -8.17211,0 -14.1615,22.3336 -15.7985,27.5057l-12.7997 35.4097 16.3395 2.44726 8.98944 -25.0573z"/>
 </g>
</svg>
