<?xml version="1.0" encoding="UTF-8"?>
<!DOCTYPE svg PUBLIC "-//W3C//DTD SVG 1.1//EN" "http://www.w3.org/Graphics/SVG/1.1/DTD/svg11.dtd">
<!-- Creator: CorelDRAW -->
<svg xmlns="http://www.w3.org/2000/svg" xml:space="preserve" width="200px" height="200px" style="shape-rendering:geometricPrecision; text-rendering:geometricPrecision; image-rendering:optimizeQuality; fill-rule:evenodd; clip-rule:evenodd"
viewBox="0 0 200 200"
 xmlns:xlink="http://www.w3.org/1999/xlink">
 <defs>
  <style type="text/css">
   <![CDATA[
    .fil0 {fill:#2B2A29;fill-rule:nonzero}
   ]]>
  </style>
 </defs>
 <g id="Layer_x0020_1">
  <metadata id="CorelCorpID_0Corel-Layer"/>
  <path class="fil0" d="M2.50041 127.801l0 -55.7048c0,-19.9017 3.04254,-32.8774 9.13236,-38.9294 6.08863,-6.0532 19.0856,-9.08275 38.9968,-9.08275l98.7386 0c19.9065,0 32.9046,3.02955 38.9979,9.08275 6.08863,6.05202 9.1359,19.0277 9.1359,38.9294l0 55.7048c0,19.9017 -3.04727,32.8999 -9.1359,38.9838 -6.09336,6.08509 -19.0915,9.12881 -38.9979,9.12881l-98.7386 0c-19.9112,0 -32.9081,-3.04372 -38.9968,-9.12881 -6.08981,-6.08391 -9.13236,-19.082 -9.13236,-38.9838zm48.102 43.1862l0 0 98.8968 0c18.2269,0 29.966,-2.63506 35.2078,-7.9099 5.24295,-5.27366 7.86975,-17.0222 7.86975,-35.2408l0 -55.7804c0,-18.2186 -2.62679,-29.9435 -7.86975,-35.1865 -5.24177,-5.23823 -16.9808,-7.85912 -35.2078,-7.85912l-98.8968 0c-18.2352,0 -29.9884,2.62089 -35.2621,7.85912 -5.27957,5.24295 -7.91463,16.9679 -7.91463,35.1865l0 55.7804c0,18.2186 2.63506,29.9672 7.91463,35.2408 5.27366,5.27484 17.0269,7.9099 35.2621,7.9099z"/>
 </g>
</svg>
