<?xml version="1.0" encoding="UTF-8"?>
<!DOCTYPE svg PUBLIC "-//W3C//DTD SVG 1.1//EN" "http://www.w3.org/Graphics/SVG/1.1/DTD/svg11.dtd">
<!-- Creator: CorelDRAW -->
<svg xmlns="http://www.w3.org/2000/svg" xml:space="preserve" width="200px" height="200px" style="shape-rendering:geometricPrecision; text-rendering:geometricPrecision; image-rendering:optimizeQuality; fill-rule:evenodd; clip-rule:evenodd"
viewBox="0 0 200 200"
 xmlns:xlink="http://www.w3.org/1999/xlink">
 <defs>
  <style type="text/css">
   <![CDATA[
    .fil0 {fill:#2B2A29;fill-rule:nonzero}
   ]]>
  </style>
 </defs>
 <g id="Layer_x0020_1">
  <metadata id="CorelCorpID_0Corel-Layer"/>
  <path class="fil0" d="M197.502 155.811c0,3.93192 -1.57678,7.46817 -4.71854,10.5993 -3.14294,3.14176 -6.87053,4.70673 -11.1839,4.70673l-20.0387 0 0 -66.5887c0,-19.6442 -5.55595,-36.1337 -16.656,-49.4921 -11.1131,-13.3584 -26.1805,-20.0376 -45.2023,-20.0376 -19.0336,0 -34.0054,6.58234 -44.9035,19.7387 -10.9087,13.1682 -16.3572,29.764 -16.3572,49.7909l0 66.5887 -20.6246 0c-4.32523,0 -7.95715,-1.4693 -10.8969,-4.40909 -2.95042,-2.93979 -4.41972,-6.57171 -4.41972,-10.8969l0 -35.3318c0,-4.31342 1.38663,-8.04101 4.18114,-11.1851 2.78388,-3.12876 6.55989,-4.70673 11.3399,-4.70673l12.5458 0c0,-21.6864 6.39218,-39.7302 19.2013,-54.115 12.8092,-14.3871 29.6447,-21.5919 50.5315,-21.5919 20.8868,0 37.6255,7.20478 50.2327,21.5919 12.606,14.3848 18.9143,32.4286 18.9143,54.115l11.9375 0c4.37248,0 8.1603,1.57797 11.3387,4.70673 3.17837,3.14412 4.77878,6.87171 4.77878,11.1851l0 35.3318z"/>
 </g>
</svg>
