<?xml version="1.0" encoding="UTF-8"?>
<!DOCTYPE svg PUBLIC "-//W3C//DTD SVG 1.1//EN" "http://www.w3.org/Graphics/SVG/1.1/DTD/svg11.dtd">
<!-- Creator: CorelDRAW -->
<svg xmlns="http://www.w3.org/2000/svg" xml:space="preserve" width="200px" height="200px" style="shape-rendering:geometricPrecision; text-rendering:geometricPrecision; image-rendering:optimizeQuality; fill-rule:evenodd; clip-rule:evenodd"
viewBox="0 0 200 200"
 xmlns:xlink="http://www.w3.org/1999/xlink">
 <defs>
  <style type="text/css">
   <![CDATA[
    .fil0 {fill:#2B2A29;fill-rule:nonzero}
   ]]>
  </style>
 </defs>
 <g id="Layer_x0020_1">
  <metadata id="CorelCorpID_0Corel-Layer"/>
  <polygon class="fil0" points="89.6381,175.597 78.0986,195.144 76.2148,172.536 61.3788,189.729 63.734,167.119 45.8354,181.486 52.1933,159.581 32.1747,170.652 42.3015,150.162 20.634,157.462 34.2948,139.092 11.6859,142.391 28.4081,126.848 5.56185,125.905 24.8754,113.657 2.50041,108.711 23.4604,100 2.50041,91.2846 24.8754,86.3393 5.56185,74.0923 28.4081,73.1486 11.6859,57.6075 34.2948,60.904 20.634,42.5342 42.3015,49.8346 32.1747,29.3471 52.1933,40.4141 45.8354,18.5116 63.734,32.8786 61.3788,10.2709 76.2148,27.462 78.0986,4.85319 89.6381,24.4006 95.2921,2.49687 103.299,23.9305 112.956,3.20436 116.725,25.8132 129.912,6.9721 129.674,29.816 146.161,14.0375 141.686,36.4101 160.761,23.6931 152.52,44.8893 173.245,35.705 161.47,55.2524 183.609,49.8346 168.534,67.0281 191.143,65.6155 173.245,79.7439 195.853,82.5715 175.599,93.1685 197.502,100 175.599,106.828 195.853,117.426 173.245,120.251 191.143,134.383 168.534,132.971 183.609,150.162 161.47,144.745 173.245,164.293 152.52,155.108 160.761,176.302 141.686,163.588 146.161,185.96 129.674,170.182 129.912,193.026 116.725,174.186 112.956,196.794 103.299,176.067 95.2921,197.501 "/>
 </g>
</svg>
