<?xml version="1.0" encoding="UTF-8"?>
<!DOCTYPE svg PUBLIC "-//W3C//DTD SVG 1.1//EN" "http://www.w3.org/Graphics/SVG/1.1/DTD/svg11.dtd">
<!-- Creator: CorelDRAW -->
<svg xmlns="http://www.w3.org/2000/svg" xml:space="preserve" width="200px" height="200px" style="shape-rendering:geometricPrecision; text-rendering:geometricPrecision; image-rendering:optimizeQuality; fill-rule:evenodd; clip-rule:evenodd"
viewBox="0 0 200 200"
 xmlns:xlink="http://www.w3.org/1999/xlink">
 <defs>
  <style type="text/css">
   <![CDATA[
    .fil0 {fill:#2B2A29;fill-rule:nonzero}
    .fil1 {fill:#FEFEFE;fill-rule:nonzero}
   ]]>
  </style>
 </defs>
 <g id="Layer_x0020_1">
  <metadata id="CorelCorpID_0Corel-Layer"/>
  <polygon class="fil0" points="187.231,177.833 188.945,177.833 190.659,177.833 192.364,177.833 194.077,176.117 195.788,174.419 197.502,172.692 197.502,170.994 197.502,169.277 197.502,167.565 197.502,165.869 197.502,164.157 197.502,162.439 197.502,160.743 195.788,159.031 194.077,157.315 194.077,155.602 192.364,155.602 190.659,153.889 188.945,153.889 187.231,153.889 12.7572,153.889 11.0505,153.889 9.34377,155.602 7.62644,155.602 5.91855,157.315 5.91855,159.031 4.20712,160.743 4.20712,162.439 2.50041,164.157 2.50041,165.869 2.50041,167.565 2.50041,169.277 4.20712,170.994 4.20712,172.692 5.91855,174.419 5.91855,176.117 7.62644,176.117 9.34377,177.833 11.0505,177.833 12.7572,177.833 "/>
  <polygon class="fil0" points="127.372,176.117 194.077,105.995 117.093,22.1647 7.62644,141.913 38.4192,176.117 "/>
  <polygon class="fil1" points="113.694,39.2956 23.0281,138.501 113.694,138.501 "/>
  <polygon class="fil1" points="122.247,42.7102 122.247,102.568 178.694,102.568 "/>
  <polygon class="fil1" points="176.981,111.12 123.946,111.12 123.946,148.765 91.4535,148.765 91.4535,169.277 123.946,169.277 "/>
  <polygon class="fil1" points="45.2637,169.277 81.1825,169.277 81.1825,148.765 26.4545,148.765 "/>
 </g>
</svg>
