<?xml version="1.0" encoding="UTF-8"?>
<!DOCTYPE svg PUBLIC "-//W3C//DTD SVG 1.1//EN" "http://www.w3.org/Graphics/SVG/1.1/DTD/svg11.dtd">
<!-- Creator: CorelDRAW -->
<svg xmlns="http://www.w3.org/2000/svg" xml:space="preserve" width="200px" height="200px" style="shape-rendering:geometricPrecision; text-rendering:geometricPrecision; image-rendering:optimizeQuality; fill-rule:evenodd; clip-rule:evenodd"
viewBox="0 0 200 200"
 xmlns:xlink="http://www.w3.org/1999/xlink">
 <defs>
  <style type="text/css">
   <![CDATA[
    .fil0 {fill:#2B2A29;fill-rule:nonzero}
   ]]>
  </style>
 </defs>
 <g id="Layer_x0020_1">
  <metadata id="CorelCorpID_0Corel-Layer"/>
  <g id="_231992888">
   <path id="_231992768" class="fil0" d="M118.151 34.8959c8.94456,0 16.2001,-7.25321 16.2001,-16.2025 0,-8.9481 -7.25557,-16.1954 -16.2001,-16.1954 -8.94102,0 -16.1978,7.2473 -16.1978,16.1954 0,8.94928 7.25675,16.2025 16.1978,16.2025z"/>
   <path id="_231992744" class="fil0" d="M135.794 38.5279c-5.6091,0 -25.3219,0 -30.7857,0 -7.13273,0 -13.4458,3.6579 -17.1403,9.19141 -5.40359,8.11306 -11.1981,16.8592 -14.269,21.4927 -7.86384,0 -19.9313,0 -22.9514,0 -3.8646,0 -6.99809,3.039 -6.99809,6.89887 0,3.86342 3.13349,6.991 6.99809,6.991 4.49767,0 26.8124,-0.0413389 26.8124,-0.0413389 2.22994,-0.04252 4.39492,-1.14332 5.71422,-3.14294 2.48152,-3.75712 10.6772,-16.0572 10.6772,-16.0572l3.60357 0c0,0 0,116.606 0,124.272 0,5.17799 4.23665,9.3674 9.40401,9.3674 5.17799,0 9.3733,-4.1894 9.3733,-9.3674 0,-7.66541 0,-72.1647 0,-72.1647l3.84098 0c0,0 0,64.4993 0,72.1647 0,5.17799 4.19885,9.3674 9.37094,9.3674 5.17209,0 9.40992,-4.1894 9.40992,-9.3674 0,-7.66541 0,-124.272 0,-124.272l3.60239 0c0,0 0,40.1566 0,44.6578 0,3.85987 3.13585,6.99691 6.99336,6.99691 3.86105,0 6.90005,-3.13703 6.90005,-6.99691 0,-3.86224 0,-43.7732 0,-49.5287 0,-11.2973 -9.25283,-20.4616 -20.5561,-20.4616z"/>
  </g>
 </g>
</svg>
