<?xml version="1.0" encoding="UTF-8"?>
<!DOCTYPE svg PUBLIC "-//W3C//DTD SVG 1.1//EN" "http://www.w3.org/Graphics/SVG/1.1/DTD/svg11.dtd">
<!-- Creator: CorelDRAW -->
<svg xmlns="http://www.w3.org/2000/svg" xml:space="preserve" width="200px" height="200px" style="shape-rendering:geometricPrecision; text-rendering:geometricPrecision; image-rendering:optimizeQuality; fill-rule:evenodd; clip-rule:evenodd"
viewBox="0 0 200 200"
 xmlns:xlink="http://www.w3.org/1999/xlink">
 <defs>
  <style type="text/css">
   <![CDATA[
    .fil0 {fill:black;fill-rule:nonzero}
   ]]>
  </style>
 </defs>
 <g id="Layer_x0020_1">
  <metadata id="CorelCorpID_0Corel-Layer"/>
  <g id="_231984680">
   <g>
    <path id="_231984992" class="fil0" d="M122.803 57.6123c15.2174,0 27.553,-12.3355 27.553,-27.5577 0,-15.2198 -12.3355,-27.5565 -27.553,-27.5565 -15.2198,0 -27.5577,12.3367 -27.5577,27.5565 0,15.2222 12.3379,27.5577 27.5577,27.5577z"/>
    <polygon id="_231984848" class="fil0" points="17.5986,65.3285 25.5663,107.739 46.237,107.739 54.0843,65.3285 "/>
   </g>
   <path id="_231984776" class="fil0" d="M87.0845 196.134l0 -87.7554 -4.65949 0 -7.33116 21.1667c-2.73782,7.94416 -9.61897,13.9088 -18.3616,13.9088 0,0 -25.6018,0 -33.3699,0 -6.66619,0 -12.0698,-5.40477 -12.0698,-12.0686 0,-6.66501 5.40359,-11.9032 12.0698,-11.9032 4.20358,0 17.7899,0 30.0994,0l9.93787 -28.7258c4.09255,-15.0249 17.0328,-26.0825 33.3381,-26.0825 9.42645,0 49.3279,0 59.0072,0 19.4954,0 32.9648,15.8068 32.9648,35.3022 0,9.93315 0,78.7955 0,85.4546 0,6.66856 -5.24532,12.0686 -11.9044,12.0686 -6.66856,0 -12.0698,-5.40004 -12.0698,-12.0686 0,-7.76581 0,-77.0522 0,-77.0522l-6.21501 0 0 87.7554 -71.436 0z"/>
  </g>
 </g>
</svg>
