<?xml version="1.0" encoding="UTF-8"?>
<!DOCTYPE svg PUBLIC "-//W3C//DTD SVG 1.1//EN" "http://www.w3.org/Graphics/SVG/1.1/DTD/svg11.dtd">
<!-- Creator: CorelDRAW -->
<svg xmlns="http://www.w3.org/2000/svg" xml:space="preserve" width="200px" height="200px" style="shape-rendering:geometricPrecision; text-rendering:geometricPrecision; image-rendering:optimizeQuality; fill-rule:evenodd; clip-rule:evenodd"
viewBox="0 0 200 200"
 xmlns:xlink="http://www.w3.org/1999/xlink">
 <defs>
  <style type="text/css">
   <![CDATA[
    .fil0 {fill:#2B2A29;fill-rule:nonzero}
   ]]>
  </style>
 </defs>
 <g id="Layer_x0020_1">
  <metadata id="CorelCorpID_0Corel-Layer"/>
  <path class="fil0" d="M42.3523 17.9045c-22.0242,0 -39.8519,17.8596 -39.8519,39.8543 0,22.0159 17.8277,39.8495 39.8519,39.8495 22.0206,0 39.8483,-17.8336 39.8483,-39.8495 0,-21.9947 -17.8277,-39.8543 -39.8483,-39.8543zm1.06891 63.7588l0 0c-12.9225,0 -23.3836,-10.4587 -23.3836,-23.3588 0,-12.9249 10.4611,-23.4155 23.3836,-23.4155 12.9284,0 23.3907,10.4906 23.3907,23.4155 0,12.9001 -10.4623,23.3588 -23.3907,23.3588z"/>
  <path class="fil0" d="M56.1229 58.3044c0,7.01935 -5.70713,12.7548 -12.7466,12.7548 -7.05714,0 -12.7584,-5.73548 -12.7584,-12.7548 0,-7.07368 5.70123,-12.7513 12.7584,-12.7513 7.03943,0 12.7466,5.6776 12.7466,12.7513z"/>
  <path class="fil0" d="M121.509 17.9045c-22.0183,0 -39.8519,17.8596 -39.8519,39.8543 0,22.0159 17.8336,39.8495 39.8519,39.8495 22.01,0 39.8531,-17.8336 39.8531,-39.8495 0,-21.9947 -17.8431,-39.8543 -39.8531,-39.8543zm1.06772 63.7588l0 0c-12.9308,0 -23.3836,-10.4587 -23.3836,-23.3588 0,-12.9249 10.4528,-23.4155 23.3836,-23.4155 12.9296,0 23.3813,10.4906 23.3813,23.4155 0,12.9001 -10.4517,23.3588 -23.3813,23.3588z"/>
  <path class="fil0" d="M135.28 58.3044c0,7.01935 -5.70123,12.7548 -12.7584,12.7548 -7.04415,0 -12.7466,-5.73548 -12.7466,-12.7548 0,-7.07368 5.70241,-12.7513 12.7466,-12.7513 7.05714,0 12.7584,5.6776 12.7584,12.7513z"/>
  <polygon class="fil0" points="30.6711,179.981 28.0053,129.495 28.0053,95.4929 98.6618,95.4929 142.78,95.4929 142.257,101.871 160.306,101.871 190.077,82.2136 197.502,82.2136 197.502,182.093 161.906,166.7 139.591,166.151 139.591,178.904 "/>
 </g>
</svg>
