<?xml version="1.0" encoding="UTF-8"?>
<!DOCTYPE svg PUBLIC "-//W3C//DTD SVG 1.1//EN" "http://www.w3.org/Graphics/SVG/1.1/DTD/svg11.dtd">
<!-- Creator: CorelDRAW -->
<svg xmlns="http://www.w3.org/2000/svg" xml:space="preserve" width="200px" height="200px" style="shape-rendering:geometricPrecision; text-rendering:geometricPrecision; image-rendering:optimizeQuality; fill-rule:evenodd; clip-rule:evenodd"
viewBox="0 0 200 200"
 xmlns:xlink="http://www.w3.org/1999/xlink">
 <defs>
  <style type="text/css">
   <![CDATA[
    .str0 {stroke:#FEFEFE;stroke-width:3.31302}
    .fil1 {fill:none;fill-rule:nonzero}
    .fil0 {fill:#2B2A29;fill-rule:nonzero}
   ]]>
  </style>
 </defs>
 <g id="Layer_x0020_1">
  <metadata id="CorelCorpID_0Corel-Layer"/>
  <path class="fil0" d="M155.461 70.4273c0,16.1387 -13.0844,29.2219 -29.2231,29.2219 -16.1387,0 -29.2242,-13.0832 -29.2242,-29.2219 0,-16.1399 13.0855,-29.2231 29.2242,-29.2231 16.1387,0 29.2231,13.0832 29.2231,29.2231z"/>
  <path class="fil1 str0" d="M155.461 70.4273c0,16.1387 -13.0844,29.2219 -29.2231,29.2219 -16.1387,0 -29.2242,-13.0832 -29.2242,-29.2219 0,-16.1399 13.0855,-29.2231 29.2242,-29.2231 16.1387,0 29.2231,13.0832 29.2231,29.2231"/>
  <path class="fil0" d="M146.963 32.653l-21.3025 -30.155 -22.5439 30.155 -40.4247 0 0 -16.2615 -18.6238 0 0 16.2615 0 2.3634 0 14.4852 53.7618 0c6.6532,-8.8359 17.1982,-14.5773 29.112,-14.5773 11.9127,0 22.4565,5.74138 29.1073,14.5773l20.1628 0 0 -16.8486 -29.249 0z"/>
  <path class="fil0" d="M176.205 54.4233l-16.6537 0c2.34333,4.83783 3.69452,10.2438 3.69452,15.9816 0,20.2962 -16.4576,36.7503 -36.7538,36.7503 -20.2986,0 -36.7527,-16.4541 -36.7527,-36.7503 0,-5.73784 1.35001,-11.1438 3.69216,-15.9816l-48.435 0 0 56.5682 55.5713 0 -2.6953 0.296459c0,0 4.84728,3.09215 9.95205,6.29178l-56.2186 -0.674415 0 3.54806 59.7914 -0.641344c4.06421,2.5264 7.58392,4.66067 8.05518,4.77878l0.296459 0.0413389 0 29.8372 -0.415751 0.396854 -29.0825 35.881c-0.664966,0.820873 -5.66815,5.71658 -5.16618,6.12288l9.71228 0.0236222c1.00631,-0.0236222 1.44686,0.0708667 2.11301,-0.746463l24.3179 -29.9991 0 29.3908c0,0.979142 0.523232,1.77403 1.17048,1.77403l6.23509 0c0.643706,0 1.16694,-0.794888 1.16694,-1.77403l0 -29.8172 21.7384 30.7254c0.564571,0.798431 0.97796,0.941346 1.60395,1.03583l4.44452 0.0165356c0.322443,-0.229136 -1.22245,-3.26695 -1.79057,-4.06657l-23.523 -33.2507c0.304727,-0.668509 0.481894,-1.40552 0.481894,-2.18742l0 -33.4042 20.9895 -13.3029 -3.14412 -0.296459 25.6041 0 0 -56.5682z"/>
  <path class="fil0" d="M26.7404 113.455c0,0 -6.37092,5.04925 -0.388586,10.7965 0,0 22.9159,3.34136 25.1683,-3.72759l-0.232679 -3.57523c0,0 -2.56301,-5.82524 -24.547,-3.49373z"/>
 </g>
</svg>
