<?xml version="1.0" encoding="UTF-8"?>
<!DOCTYPE svg PUBLIC "-//W3C//DTD SVG 1.1//EN" "http://www.w3.org/Graphics/SVG/1.1/DTD/svg11.dtd">
<!-- Creator: CorelDRAW -->
<svg xmlns="http://www.w3.org/2000/svg" xml:space="preserve" width="200px" height="200px" style="shape-rendering:geometricPrecision; text-rendering:geometricPrecision; image-rendering:optimizeQuality; fill-rule:evenodd; clip-rule:evenodd"
viewBox="0 0 200 200"
 xmlns:xlink="http://www.w3.org/1999/xlink">
 <defs>
  <style type="text/css">
   <![CDATA[
    .fil0 {fill:#2B2A29;fill-rule:nonzero}
   ]]>
  </style>
 </defs>
 <g id="Layer_x0020_1">
  <metadata id="CorelCorpID_0Corel-Layer"/>
  <path class="fil0" d="M171.76 164.153c2.89845,3.95672 4.34885,8.14258 4.34885,12.5611 0,5.48272 -2.09884,10.3217 -6.29414,14.5064 -4.19649,4.18586 -9.04023,6.27879 -14.5336,6.27879 -6.56816,0 -12.1347,-3.04136 -16.7104,-9.12999l-111.016 -147.052c-2.44608,-3.19491 -3.66381,-6.69454 -3.66381,-10.5013 0,-7.00045 3.20554,-13.4741 9.61543,-19.4092 6.40989,-5.93627 13.2733,-8.90913 20.5998,-8.90913 6.86344,0 12.5895,2.97286 17.171,8.91976l73.7037 97.8693c0.453547,0.611816 0.685045,1.29686 0.685045,2.05513 0,2.74727 -1.37481,4.11854 -4.12208,4.11854 -1.06891,0 -1.98781,-0.458271 -2.74608,-1.37718l-72.5616 -96.3669c-3.3579,-4.42208 -7.55439,-6.63549 -12.5871,-6.63549 -5.18744,0 -9.92134,2.02324 -14.1911,6.06619 -4.27562,4.04885 -6.41107,8.66109 -6.41107,13.8485 0,3.36262 1.06536,6.48903 3.20436,9.38866l104.381 138.713c4.72799,6.25635 9.76307,9.38157 15.1076,9.38157 3.05199,0 5.6091,-1.1008 7.67132,-3.3142 2.05513,-2.21577 3.08861,-5.0776 3.08861,-8.58904 0,-4.26854 -1.6819,-8.69653 -5.03508,-13.2781l-98.6594 -130.932c-1.676,-2.13545 -3.58467,-3.20436 -5.72012,-3.20436 -4.58035,0 -6.86816,2.2134 -6.86816,6.63549 0,1.6819 0.607091,3.28585 1.82954,4.80831l65.4655 87.2097c0.453547,0.76536 0.685045,1.53072 0.685045,2.28899 0,2.44608 -1.14332,3.66381 -3.43113,3.66381 -1.22363,0 -2.21931,-0.532681 -2.97876,-1.60277l-67.5265 -89.7255c-1.83427,-2.44018 -2.74727,-5.11303 -2.74727,-8.01266 0,-3.81499 1.52363,-7.21069 4.57563,-10.1835 3.05317,-2.97286 6.48903,-4.46578 10.3064,-4.46578 4.26972,0 7.9288,1.98309 10.9843,5.94217l104.381 138.433z"/>
 </g>
</svg>
