<?xml version="1.0" encoding="UTF-8"?>
<!DOCTYPE svg PUBLIC "-//W3C//DTD SVG 1.1//EN" "http://www.w3.org/Graphics/SVG/1.1/DTD/svg11.dtd">
<!-- Creator: CorelDRAW -->
<svg xmlns="http://www.w3.org/2000/svg" xml:space="preserve" width="200px" height="200px" style="shape-rendering:geometricPrecision; text-rendering:geometricPrecision; image-rendering:optimizeQuality; fill-rule:evenodd; clip-rule:evenodd"
viewBox="0 0 200 200"
 xmlns:xlink="http://www.w3.org/1999/xlink">
 <defs>
  <style type="text/css">
   <![CDATA[
    .str0 {stroke:#2B2A29;stroke-width:4.16696}
    .fil0 {fill:none;fill-rule:nonzero}
   ]]>
  </style>
 </defs>
 <g id="Layer_x0020_1">
  <metadata id="CorelCorpID_0Corel-Layer"/>
  <path class="fil0 str0" d="M2.50041 69.988c0,0 9.79023,-6.85399 26.2396,-10.1091 0,0 12.6851,-4.80122 15.019,-5.74375 2.3327,-0.942527 2.3327,-0.942527 2.3327,-0.942527 0,0 24.703,-9.0733 33.4668,-9.67803 0,0 6.32722,-1.39253 9.83866,-2.90672 0,0 11.2808,-3.14294 16.7009,5.06579 0,0 3.42168,3.62956 9.14889,7.42683 0,0 12.7253,11.4792 15.7206,16.1718 0,0 2.31734,2.6953 5.015,4.72445 0,0 4.34885,4.34413 4.08428,9.267 0,0 0.576382,9.87291 0.19134,11.445 0,0 0.532681,5.01618 1.60986,7.06069 0,0 3.17128,10.1706 1.19883,14.9989"/>
  <line class="fil0 str0" x1="143.067" y1="116.768" x2="197.502" y2= "145.2" />
  <path class="fil0 str0" d="M3.36735 69.4824c0,0 13.2816,-3.82208 25.4695,18.4112 0,0 10.8084,18.4336 3.43703,25.3667 0,0 9.28236,-12.9792 20.9647,-6.47367 0,0 11.1839,9.07684 31.0668,6.72643 0,0 5.33626,1.9323 10.1292,1.5756 0,0 4.7646,0.752368 5.29492,1.42088 0,0 -10.0891,9.44889 -0.161812,16.258 0,0 3.75475,3.36499 7.05596,-0.702761 0,0 0.587012,2.79687 2.19805,4.60161"/>
  <line class="fil0 str0" x1="108.822" y1="136.666" x2="96.3197" y2= "159.986" />
  <path class="fil0 str0" d="M127.197 99.2653c-6.46659,-7.01698 -3.9957,-14.4131 -3.9957,-14.4131 -8.69416,0.00590556 -16.0737,-11.3611 -16.0737,-11.3611 -5.67052,3.59294 -10.1788,-0.266931 -10.1788,-0.266931"/>
  <polyline class="fil0 str0" points="96.9492,73.2242 96.2618,87.9031 96.4354,89.0357 "/>
  <path class="fil0 str0" d="M96.4354 89.0357c9.61307,7.78353 25.3632,12.3343 25.3632,12.3343 16.2745,6.12761 8.05164,19.5309 8.05164,19.5309 -6.96502,10.4162 -22.2226,-0.142915 -22.2226,-0.142915 -1.17402,-0.336617 -7.89809,-4.24846 -7.89809,-4.24846"/>
  <path class="fil0 str0" d="M126.038 103.175c0,0 -0.844495,-2.32325 0.858668,-3.49018"/>
  <path class="fil0 str0" d="M126.841 99.2736c0,0 2.52876,2.61734 7.90518,0.713391"/>
  <path class="fil0 str0" d="M122.915 84.7176c0,0 2.93152,-0.872842 5.24768,-2.98231"/>
  <path class="fil0 str0" d="M107.128 73.4911c0,0 -0.910637,-4.80712 0.00472445,-6.1654"/>
  <line class="fil0 str0" x1="131.761" y1="110.507" x2="143.067" y2= "116.768" />
  <path class="fil0 str0" d="M141.563 115.784c0,0 -0.856306,-7.02289 1.45867,-9.13117"/>
  <path class="fil0 str0" d="M112.797 97.9023c0,0 -4.11617,-6.79494 1.0878,-10.2851 0,0 2.30553,-2.00789 4.62996,-1.13269"/>
  <path class="fil0 str0" d="M101.655 92.4208c0,0 1.20237,-3.40042 5.55949,-3.502"/>
  <path class="fil0 str0" d="M111.961 88.9613c0,0 -2.67994,1.7634 -9.55047,-7.01817"/>
  <line class="fil0 str0" x1="102.411" y1="81.9432" x2="101.036" y2= "79.4085" />
  <path class="fil0 str0" d="M96.6551 84.5121c0,0 5.2028,-3.03782 5.33154,-9.39102"/>
  <path class="fil0 str0" d="M102.337 90.8806c0,0 -4.565,-5.98706 -4.46815,-7.23785"/>
  <path class="fil0 str0" d="M96.1602 88.3483c0,0 -1.20001,0.770085 -4.26263,-3.77838"/>
  <path class="fil0 str0" d="M96.3197 87.4046c0,0 -3.47011,-4.95004 -4.75161,-13.995"/>
  <line class="fil0 str0" x1="96.8819" y1="72.9124" x2="97.2716" y2= "57.7445" />
  <path class="fil0 str0" d="M117.745 122.434c0,0 -2.5512,0.210238 -3.44058,-4.34177 0,0 -0.168899,-6.84336 3.24215,-10.5414 0,0 2.49805,-3.2516 4.93468,-2.46144 0,0 3.61656,0.0342522 5.57957,2.45907"/>
  <line class="fil0 str0" x1="128.061" y1="107.548" x2="128.236" y2= "107.775" />
  <path class="fil0 str0" d="M128.236 107.775c1.91694,2.64805 2.43309,3.86932 1.49411,8.05754 0,0 -0.532681,5.04453 -5.64217,6.82919 0,0 -3.60948,1.04646 -6.34257,-0.227955"/>
  <path class="fil0 str0" d="M103.602 113.619c0,0 -1.47521,-7.80006 5.09768,-12.1973"/>
  <path class="fil0 str0" d="M53.7477 107.047c0,0 -1.65356,-0.257482 -6.93431,-6.46304"/>
  <path class="fil0 str0" d="M76.4522 108.864c0,0 3.97444,4.10082 8.42133,4.67956"/>
  <path class="fil0 str0" d="M106.624 132.065c0,0 -0.0814967,-6.58115 2.31616,-10.415"/>
  <line class="fil0 str0" x1="108.712" y1="136.45" x2="115.004" y2= "124.577" />
 </g>
</svg>
