<?xml version="1.0" encoding="UTF-8"?>
<!DOCTYPE svg PUBLIC "-//W3C//DTD SVG 1.1//EN" "http://www.w3.org/Graphics/SVG/1.1/DTD/svg11.dtd">
<!-- Creator: CorelDRAW -->
<svg xmlns="http://www.w3.org/2000/svg" xml:space="preserve" width="200px" height="200px" style="shape-rendering:geometricPrecision; text-rendering:geometricPrecision; image-rendering:optimizeQuality; fill-rule:evenodd; clip-rule:evenodd"
viewBox="0 0 200 200"
 xmlns:xlink="http://www.w3.org/1999/xlink">
 <defs>
  <style type="text/css">
   <![CDATA[
    .fil0 {fill:#2B2A29;fill-rule:nonzero}
   ]]>
  </style>
 </defs>
 <g id="Layer_x0020_1">
  <metadata id="CorelCorpID_0Corel-Layer"/>
  <path class="fil0" d="M146.973 150.752c0,6.46777 -1.24253,12.4997 -3.71223,18.1017 -2.47797,5.61028 -5.85831,10.5521 -10.1375,14.8253 -4.28625,4.27917 -9.23629,7.65124 -14.8454,10.1209 -5.61737,2.47089 -11.6635,3.69924 -18.1312,3.69924 -6.47485,0 -12.5635,-1.22836 -18.2753,-3.69924 -5.71067,-2.4697 -10.7115,-5.84178 -14.9919,-10.1209 -4.28744,-4.27326 -7.6666,-9.21503 -10.1363,-14.8253 -2.47915,-5.60201 -3.71342,-11.6339 -3.71342,-18.1017 0,-4.37366 1.14095,-11.0741 3.42286,-20.1002 2.28073,-9.02487 5.18744,-19.0513 8.71188,-30.0746 3.51735,-11.0245 7.32525,-22.3313 11.4237,-33.9286 4.09137,-11.5902 7.89927,-22.1423 11.4237,-31.6479 3.51617,-9.50322 7.56502,-20.3376 12.1347,-32.503 4.56382,12.1655 8.6103,22.9998 12.1347,32.503 3.51735,9.50559 7.28273,20.0576 11.2784,31.6479 3.99688,11.5973 7.754,22.9041 11.2784,33.9286 3.51617,11.0233 6.42407,21.0498 8.70479,30.0746 2.28191,9.02606 3.42995,15.7265 3.42995,20.1002z"/>
 </g>
</svg>
