<?xml version="1.0" encoding="UTF-8"?>
<!DOCTYPE svg PUBLIC "-//W3C//DTD SVG 1.1//EN" "http://www.w3.org/Graphics/SVG/1.1/DTD/svg11.dtd">
<!-- Creator: CorelDRAW -->
<svg xmlns="http://www.w3.org/2000/svg" xml:space="preserve" width="200px" height="200px" style="shape-rendering:geometricPrecision; text-rendering:geometricPrecision; image-rendering:optimizeQuality; fill-rule:evenodd; clip-rule:evenodd"
viewBox="0 0 200 200"
 xmlns:xlink="http://www.w3.org/1999/xlink">
 <defs>
  <style type="text/css">
   <![CDATA[
    .fil0 {fill:#2B2A29;fill-rule:nonzero}
   ]]>
  </style>
 </defs>
 <g id="Layer_x0020_1">
  <metadata id="CorelCorpID_0Corel-Layer"/>
  <path class="fil0" d="M185.86 77.0793c0,20.5844 -7.27683,38.1605 -21.8163,52.7284 -14.5466,14.5714 -32.0896,21.8529 -52.6327,21.8529 -14.2466,0 -26.4392,-5.07642 -36.5814,-15.2293 -10.1398,-10.1528 -15.2104,-22.3573 -15.2104,-36.6133 0,-14.2572 5.07642,-26.4628 15.234,-36.6145 10.1528,-10.1517 22.3632,-15.2304 36.6251,-15.2304 13.5698,0 25.3467,4.65712 35.3282,13.956 9.98394,9.30125 15.4466,20.7439 16.4009,34.329 2.24411,-6.16068 3.37207,-12.5387 3.37207,-19.1399 0,-15.28 -5.39532,-28.3207 -16.1741,-39.1243 -10.7835,-10.8072 -23.7935,-16.2131 -39.0346,-16.2131 -21.4821,0 -39.8424,7.65242 -55.0823,22.949 -15.247,15.2954 -22.864,33.7184 -22.864,55.2689 0,21.5565 7.61108,39.9806 22.8462,55.276 15.2293,15.2966 33.5719,22.9431 55.0363,22.9431 17.5655,0 33.4491,-5.5087 47.6425,-16.5356 1.64293,-1.58623 4.14925,-3.83861 7.52604,-6.74887 2.42246,-2.11301 4.67248,-3.17719 6.7536,-3.17719 2.68349,0 5.01972,1.02993 7.0099,3.0768 1.98899,2.04569 2.98349,4.3772 2.98349,6.98628 0,2.35277 -0.994496,4.66775 -2.98349,6.9284 -8.03865,8.97645 -18.5435,16.0761 -31.5038,21.299 -12.28,4.96894 -24.7278,7.45281 -37.3479,7.45281 -26.7971,0 -49.7047,-9.53275 -68.7194,-28.5983 -19.0206,-19.0667 -28.525,-42.0322 -28.525,-68.8954 0,-26.8656 9.4985,-49.8382 28.5085,-68.9025 19.0076,-19.0643 41.9058,-28.6053 68.6911,-28.6053 20.5608,0 38.1204,7.28864 52.6776,21.8577 14.5584,14.569 21.8399,32.1451 21.8399,52.7236zm-42.2011 22.7388l0 0c0,-8.94338 -3.17719,-16.6064 -9.52212,-22.9892 -6.34375,-6.378 -13.9666,-9.57291 -22.8569,-9.57291 -8.89613,0 -16.5202,3.19491 -22.864,9.57291 -6.34257,6.38273 -9.51622,14.0458 -9.51622,22.9892 0,9.03196 3.17365,16.7175 9.51622,23.0553 6.34375,6.33903 14.0127,9.50441 22.9951,9.50441 8.89023,0 16.4895,-3.189 22.7943,-9.57291 6.29769,-6.378 9.45362,-14.0399 9.45362,-22.9868z"/>
 </g>
</svg>
