<?xml version="1.0" encoding="UTF-8"?>
<!DOCTYPE svg PUBLIC "-//W3C//DTD SVG 1.1//EN" "http://www.w3.org/Graphics/SVG/1.1/DTD/svg11.dtd">
<!-- Creator: CorelDRAW -->
<svg xmlns="http://www.w3.org/2000/svg" xml:space="preserve" width="200px" height="200px" style="shape-rendering:geometricPrecision; text-rendering:geometricPrecision; image-rendering:optimizeQuality; fill-rule:evenodd; clip-rule:evenodd"
viewBox="0 0 200 200"
 xmlns:xlink="http://www.w3.org/1999/xlink">
 <defs>
  <style type="text/css">
   <![CDATA[
    .fil0 {fill:#2B2A29;fill-rule:nonzero}
   ]]>
  </style>
 </defs>
 <g id="Layer_x0020_1">
  <metadata id="CorelCorpID_0Corel-Layer"/>
  <path class="fil0" d="M168.033 78.1731c-2.36222,1.69017 -5.07996,2.36931 -8.12369,1.35119l-16.2356 -5.41303 0 41.2893c0,14.8879 -12.5328,27.4112 -27.416,27.4112l-41.9649 0c-5.4154,0 -7.78234,2.36695 -7.78234,7.78353l0 49.4047 -37.2286 0 0 -67.0068c0,-14.8891 12.521,-27.4077 27.4183,-27.4077l41.9578 0c6.08981,0 7.78234,-1.6949 7.78234,-7.78353l0 -23.6907 -16.2415 5.41303c-3.04491,1.01812 -5.75438,0.338979 -8.12369,-1.35119 -3.38507,-2.70947 -3.38507,-7.78353 -1.01812,-11.1721l44 -67.0021 43.994 67.0021c2.36695,3.38861 2.36695,8.46267 -1.01812,11.1721z"/>
 </g>
</svg>
