<?xml version="1.0" encoding="UTF-8"?>
<!DOCTYPE svg PUBLIC "-//W3C//DTD SVG 1.1//EN" "http://www.w3.org/Graphics/SVG/1.1/DTD/svg11.dtd">
<!-- Creator: CorelDRAW -->
<svg xmlns="http://www.w3.org/2000/svg" xml:space="preserve" width="200px" height="200px" style="shape-rendering:geometricPrecision; text-rendering:geometricPrecision; image-rendering:optimizeQuality; fill-rule:evenodd; clip-rule:evenodd"
viewBox="0 0 200 200"
 xmlns:xlink="http://www.w3.org/1999/xlink">
 <defs>
  <style type="text/css">
   <![CDATA[
    .fil0 {fill:#2B2A29;fill-rule:nonzero}
   ]]>
  </style>
 </defs>
 <g id="Layer_x0020_1">
  <metadata id="CorelCorpID_0Corel-Layer"/>
  <path class="fil0" d="M100.15 113.08c-3.57523,-3.56932 -3.57523,-9.36503 0,-12.9367 3.5705,-3.56696 9.36267,-3.56696 12.9344,0l18.2423 18.2435 0 -25.8002c0,-5.0528 4.09137,-9.14417 9.1418,-9.14417 5.06106,0 9.15362,4.09137 9.15362,9.14417l0 25.8002 18.2423 -18.2435c3.57168,-3.5705 9.36622,-3.5705 12.9367,0 3.5705,3.57168 3.5705,9.36031 0,12.9367l-18.2021 18.1997 25.76 0.0448822c5.05161,0 9.14299,4.09137 9.14299,9.14653 0,5.05161 -4.09137,9.14653 -9.14299,9.14653l-25.7789 0 18.221 18.2446c3.5705,3.5705 3.5705,9.36149 0,12.932 -3.5705,3.57641 -9.36503,3.57641 -12.9367,0l-18.1986 -18.1974 -0.0437011 25.7565c0,5.05161 -4.09255,9.14653 -9.15362,9.14653 -5.05043,0 -9.1418,-4.09491 -9.1418,-9.14653l0 -25.8014 -18.2423 18.2423c-3.57168,3.57641 -9.36385,3.57641 -12.9344,0 -3.57523,-3.5705 -3.57523,-9.36149 0,-12.932l18.2399 -18.2446 -25.7978 0c-5.04925,0 -9.14535,-4.09491 -9.14535,-9.14653 0,-5.05516 4.0961,-9.14653 9.14535,-9.14653l25.7825 0 -18.2246 -18.2446z"/>
  <path class="fil0" d="M89.9109 20.8289c0,-5.05043 -4.09491,-9.14535 -9.14653,-9.14535 -5.04925,0 -9.14653,4.09491 -9.14653,9.14535l0 37.8487 -53.5032 -53.4985c-3.5705,-3.57641 -9.36149,-3.57641 -12.932,0 -3.57641,3.56578 -3.57641,9.35795 0,12.9332l53.4784 53.5032 -37.8286 0c-5.05043,0 -9.14653,4.0961 -9.14653,9.14771 0,5.05043 4.0961,9.14535 9.14653,9.14535l59.906 -0.03189c2.33624,0 4.67838,-0.890558 6.47013,-2.6764 1.77167,-1.77994 2.66813,-4.10909 2.6764,-6.43706l0.0259845 -59.9343z"/>
  <path class="fil0" d="M100.15 113.08c-3.57523,-3.56932 -3.57523,-9.36503 0,-12.9367 3.5705,-3.56696 9.36267,-3.56696 12.9344,0l18.2423 18.2435 0 -25.8002c0,-5.0528 4.09137,-9.14417 9.1418,-9.14417 5.06106,0 9.15362,4.09137 9.15362,9.14417l0 25.8002 18.2423 -18.2435c3.57168,-3.5705 9.36622,-3.5705 12.9367,0 3.5705,3.57168 3.5705,9.36031 0,12.9367l-18.2021 18.1997 25.76 0.0448822c5.05161,0 9.14299,4.09137 9.14299,9.14653 0,5.05161 -4.09137,9.14653 -9.14299,9.14653l-25.7789 0 18.221 18.2446c3.5705,3.5705 3.5705,9.36149 0,12.932 -3.5705,3.57641 -9.36503,3.57641 -12.9367,0l-18.1986 -18.1974 -0.0437011 25.7565c0,5.05161 -4.09255,9.14653 -9.15362,9.14653 -5.05043,0 -9.1418,-4.09491 -9.1418,-9.14653l0 -25.8014 -18.2423 18.2423c-3.57168,3.57641 -9.36385,3.57641 -12.9344,0 -3.57523,-3.5705 -3.57523,-9.36149 0,-12.932l18.2399 -18.2446 -25.7978 0c-5.04925,0 -9.14535,-4.09491 -9.14535,-9.14653 0,-5.05516 4.0961,-9.14653 9.14535,-9.14653l25.7825 0 -18.2246 -18.2446z"/>
  <path class="fil0" d="M89.9109 20.8289c0,-5.05043 -4.09491,-9.14535 -9.14653,-9.14535 -5.04925,0 -9.14653,4.09491 -9.14653,9.14535l0 37.8487 -53.5032 -53.4985c-3.5705,-3.57641 -9.36149,-3.57641 -12.932,0 -3.57641,3.56578 -3.57641,9.35795 0,12.9332l53.4784 53.5032 -37.8286 0c-5.05043,0 -9.14653,4.0961 -9.14653,9.14771 0,5.05043 4.0961,9.14535 9.14653,9.14535l59.906 -0.03189c2.33624,0 4.67838,-0.890558 6.47013,-2.6764 1.77167,-1.77994 2.66813,-4.10909 2.6764,-6.43706l0.0259845 -59.9343z"/>
 </g>
</svg>
