<?xml version="1.0" encoding="UTF-8"?>
<!DOCTYPE svg PUBLIC "-//W3C//DTD SVG 1.1//EN" "http://www.w3.org/Graphics/SVG/1.1/DTD/svg11.dtd">
<!-- Creator: CorelDRAW -->
<svg xmlns="http://www.w3.org/2000/svg" xml:space="preserve" width="200px" height="200px" style="shape-rendering:geometricPrecision; text-rendering:geometricPrecision; image-rendering:optimizeQuality; fill-rule:evenodd; clip-rule:evenodd"
viewBox="0 0 200 200"
 xmlns:xlink="http://www.w3.org/1999/xlink">
 <defs>
  <style type="text/css">
   <![CDATA[
    .fil0 {fill:#2B2A29;fill-rule:nonzero}
   ]]>
  </style>
 </defs>
 <g id="Layer_x0020_1">
  <metadata id="CorelCorpID_0Corel-Layer"/>
  <path class="fil0" d="M147.7 52.0764l-26.3636 0 35.9341 36.0806 -58.6764 0 0 -72.1163 -23.8762 0 0 72.1163 -24.1384 0c-13.3572,0 -24.7242,4.63823 -34.1058,13.91 -9.31661,9.40519 -13.9737,20.7486 -13.9737,34.0408 0,13.291 4.64767,24.5671 13.9513,33.8424 9.36385,9.33551 20.712,14.0056 34.0455,14.0056 13.2639,0 24.6498,-4.66539 34.1459,-13.9962 4.74453,-4.73035 8.25833,-9.88 10.5343,-15.4525 2.27482,-5.57248 3.41696,-11.6942 3.41696,-18.3722l0 -24.1018 58.6764 0 -33.5896 35.842 29.588 0 44.2326 -47.7299 -49.8016 -48.0689zm-72.9821 84.0774l0 0c0,6.67801 -2.32088,12.3202 -6.96383,16.9253 -4.83665,4.67012 -10.5887,7.00045 -17.2572,7.00045 -6.73352,0 -12.4548,-2.33033 -17.1568,-7.00045 -4.64177,-4.60515 -6.96383,-10.2473 -6.96383,-16.9253 0,-6.61423 2.32207,-12.3214 6.96383,-17.1202 4.83547,-4.66539 10.5521,-7.00045 17.1568,-7.00045l24.2211 0 0 24.1207z"/>
 </g>
</svg>
