<?xml version="1.0" encoding="UTF-8"?>
<!DOCTYPE svg PUBLIC "-//W3C//DTD SVG 1.1//EN" "http://www.w3.org/Graphics/SVG/1.1/DTD/svg11.dtd">
<!-- Creator: CorelDRAW -->
<svg xmlns="http://www.w3.org/2000/svg" xml:space="preserve" width="200px" height="200px" style="shape-rendering:geometricPrecision; text-rendering:geometricPrecision; image-rendering:optimizeQuality; fill-rule:evenodd; clip-rule:evenodd"
viewBox="0 0 200 200"
 xmlns:xlink="http://www.w3.org/1999/xlink">
 <defs>
  <style type="text/css">
   <![CDATA[
    .fil0 {fill:#2B2A29;fill-rule:nonzero}
   ]]>
  </style>
 </defs>
 <g id="Layer_x0020_1">
  <metadata id="CorelCorpID_0Corel-Layer"/>
  <path class="fil0" d="M36.0912 2.49805l127.821 0 0 195.002 -127.821 0 0 -195.002zm122.173 189.948l0 0 0 -184.894 -116.823 0 0 184.894 116.823 0zm-103.445 -165.573l0 0 90.6633 0 0 23.4829 -90.6633 0 0 -23.4829zm0 30.618l0 0 17.2407 0 0 17.5383 -17.2407 0 0 -17.5383zm0 24.9687l0 0 17.2407 0 0 17.2419 -17.2407 0 0 -17.2419zm0 24.3758l0 0 17.2407 0 0 17.5395 -17.2407 0 0 -17.5395zm0 24.3746l0 0 17.2407 0 0 17.5383 -17.2407 0 0 -17.5383zm0 24.6734l0 0 41.2255 0 0 17.5383 -41.2255 0 0 -17.5383zm85.3129 -110.877l0 0 0 -12.4855 -80.1207 0 0 12.4855 80.1207 0zm-60.9383 12.4844l0 0 17.2419 0 0 17.5383 -17.2419 0 0 -17.5383zm0 24.9687l0 0 17.2419 0 0 17.2419 -17.2419 0 0 -17.2419zm0 24.3758l0 0 17.2419 0 0 17.5395 -17.2419 0 0 -17.5395zm0 24.3746l0 0 17.2419 0 0 17.5383 -17.2419 0 0 -17.5383zm24.3746 -73.7191l0 0 17.5395 0 0 17.5383 -17.5395 0 0 -17.5383zm0 24.9687l0 0 17.5395 0 0 17.2419 -17.5395 0 0 -17.2419zm0 24.3758l0 0 17.5395 0 0 17.5395 -17.5395 0 0 -17.5395zm0 24.3746l0 0 17.5395 0 0 17.5383 -17.5395 0 0 -17.5383zm0 24.6734l0 0 17.5395 0 0 17.5383 -17.5395 0 0 -17.5383zm24.6722 -24.2778l0 0 17.2419 0 0 41.8161 -17.2419 0 0 -41.8161zm0.196065 -74.1148l0 0 17.2407 0 0 17.5383 -17.2407 0 0 -17.5383zm0 24.9687l0 0 17.2407 0 0 17.2419 -17.2407 0 0 -17.2419zm0 24.3758l0 0 17.2407 0 0 17.5395 -17.2407 0 0 -17.5395z"/>
 </g>
</svg>
