<?xml version="1.0" encoding="UTF-8" standalone="no"?>
<!-- Created with Inkscape (http://www.inkscape.org/) -->

<svg
   xmlns:dc="http://purl.org/dc/elements/1.1/"
   xmlns:cc="http://creativecommons.org/ns#"
   xmlns:rdf="http://www.w3.org/1999/02/22-rdf-syntax-ns#"
   xmlns:svg="http://www.w3.org/2000/svg"
   xmlns="http://www.w3.org/2000/svg"
   xmlns:sodipodi="http://sodipodi.sourceforge.net/DTD/sodipodi-0.dtd"
   xmlns:inkscape="http://www.inkscape.org/namespaces/inkscape"
   width="200"
   height="200"
   id="svg2"
   version="1.1"
   inkscape:version="0.48.4 r9939"
   sodipodi:docname="cruchenie.svg">
  <defs
     id="defs4" />
  <sodipodi:namedview
     id="base"
     pagecolor="#ffffff"
     bordercolor="#666666"
     borderopacity="1.0"
     inkscape:pageopacity="0.0"
     inkscape:pageshadow="2"
     inkscape:zoom="0.35"
     inkscape:cx="375"
     inkscape:cy="520"
     inkscape:document-units="px"
     inkscape:current-layer="layer1"
     showgrid="false"
     inkscape:window-width="1366"
     inkscape:window-height="684"
     inkscape:window-x="-8"
     inkscape:window-y="-8"
     inkscape:window-maximized="1" />
  <metadata
     id="metadata7">
    <rdf:RDF>
      <cc:Work
         rdf:about="">
        <dc:format>image/svg+xml</dc:format>
        <dc:type
           rdf:resource="http://purl.org/dc/dcmitype/StillImage" />
        <dc:title></dc:title>
      </cc:Work>
    </rdf:RDF>
  </metadata>
  <g
     inkscape:label="Layer 1"
     inkscape:groupmode="layer"
     id="layer1"
     transform="translate(0,-852.36218)">
    <path
       style="fill:#666666"
       d="m 57.726711,905.07953 c -0.04809,0.002 -0.07625,0.008 -0.07854,0.023 -0.900066,6.14261 -2.839755,11.98921 -4.886915,17.76304 -1.03199,2.93561 -2.169826,5.83983 -3.002816,8.85275 -0.902523,3.26444 -0.0073,0.46986 -0.578973,2.22182 -0.04245,0.11331 1.566901,0.81555 1.609354,0.70223 0.694086,-1.38382 0.159706,-0.22075 0.863548,-2.24484 0.794422,-2.28458 1.683475,-4.52582 2.521967,-6.7921 0.543875,-0.29003 1.075684,-0.59839 1.579914,-0.94398 1.22756,3.43964 2.791342,6.75989 4.317756,10.08453 0.242874,0.4297 0.483298,0.85964 0.726171,1.28935 0.02155,0.0512 0.342998,-0.0485 0.686918,-0.17268 -0.06294,0.39312 -0.0989,0.78818 -0.07854,1.18574 -0.0065,0.11762 1.641823,0.30183 1.648607,0.18419 0.659764,-2.89606 1.60065,-5.69772 2.355142,-8.56494 0.530388,-2.06601 0.931123,-3.43977 1.305136,-5.56032 0.534257,-3.02921 0.795663,-6.1315 1.197197,-9.18659 0.01796,-0.12267 -1.70911,-0.46803 -1.727104,-0.34536 -0.628161,3.00908 -0.935302,6.09313 -1.491586,9.11753 -0.358853,1.9508 -0.783622,3.48717 -1.265891,5.39913 -0.526812,2.03736 -1.101392,4.06045 -1.579905,6.11289 -1.531876,-3.57803 -3.157191,-7.12051 -4.671041,-10.70619 0.08981,-0.0891 0.178214,-0.18238 0.264958,-0.27628 3.301294,-3.25516 6.367219,-6.75957 9.106555,-10.52199 0.06245,-0.10322 -1.419294,-1.07023 -1.481782,-0.96701 -2.988659,3.45589 -5.966166,6.91792 -9.175247,10.16511 -0.19464,0.22233 -0.405413,0.42683 -0.618226,0.62165 1.931068,-5.50647 3.665519,-11.13617 4.072442,-17.07232 0.01551,-0.10558 -1.282447,-0.38194 -1.619167,-0.36839 z m 16.122926,6.82663 c -1.906959,0.0293 -3.751569,0.74733 -5.505149,1.32388 -0.111366,0.0385 0.506867,1.66174 0.618225,1.62319 1.951208,-0.52391 4.70026,-1.64766 6.7416,-0.94398 0.143002,0.12437 0.348982,0.19381 0.42196,0.36838 0.141884,0.33936 -0.188133,1.87767 -0.196264,1.911 -0.449923,1.86163 -1.223233,3.65663 -1.864489,5.44519 -0.963395,2.10677 -1.933003,4.51975 -3.689726,6.08986 -0.438191,0.39163 -1.126252,0.67739 -1.658412,0.92096 -0.879786,0.16264 -1.376652,-0.26991 -2.011687,-0.82886 -0.08082,-0.0986 -1.395798,0.99505 -1.314949,1.09364 0.29692,0.26677 0.548611,0.59763 0.892988,0.79432 1.118929,0.63908 2.28792,0.74182 3.454208,0.43746 0.856796,-0.39916 1.40757,-0.59111 2.149073,-1.25481 1.907089,-1.70701 3.025839,-4.24253 4.033181,-6.56185 0.751528,-2.19928 2.886967,-6.83721 1.521034,-9.15206 -0.225435,-0.38204 -0.667732,-0.58288 -1.000941,-0.87491 -0.588876,-0.12229 -1.171147,-0.31131 -1.766357,-0.36839 -0.27464,-0.0263 -0.551876,-0.0272 -0.824295,-0.023 z m 5.348137,2.08367 c -0.01363,0.004 -0.02833,0.0154 -0.02939,0.023 -0.459042,2.88266 -1.079366,5.74456 -1.393462,8.65704 -0.208234,1.9308 -0.155959,2.681 -0.147199,4.57028 0.105562,1.26308 0.08522,2.54172 0.33365,3.78744 -0.850796,1.35179 -1.627078,2.75688 -2.28645,4.23643 -0.131001,0.69281 -0.438346,1.26691 -0.765424,1.86495 -0.05127,0.10664 1.469715,0.92398 1.521026,0.81735 0.346419,-0.61488 0.709908,-1.21736 0.87337,-1.92251 1.417701,-2.89007 3.317941,-5.44314 5.210752,-8.01236 0.883492,-1.29658 1.832828,-2.55424 2.708418,-3.85653 1.107516,-1.6472 2.027518,-3.39908 2.992995,-5.13436 0.193113,-0.34708 0.405812,-0.68342 0.608414,-1.02458 0.04841,-0.10825 -1.502047,-0.87955 -1.550476,-0.7713 -0.206502,0.28279 -0.428002,0.55718 -0.618225,0.85189 -1.077268,1.66912 -2.034882,3.4096 -3.169625,5.04227 -5.275125,7.5898 2.56131,-3.95352 -2.688792,3.81048 -0.405176,0.54606 -0.795476,1.1043 -1.187385,1.65773 0.0057,-0.41925 -0.01037,-0.83405 -0.06866,-1.19725 0.0316,-1.74797 0.01168,-2.53677 0.206078,-4.31701 0.318097,-2.91274 0.912394,-5.78609 1.148132,-8.7146 0.0169,-0.11501 -1.493179,-0.43072 -1.697665,-0.36839 z m 18.311245,1.32389 c -0.01339,0.004 -0.02833,0.0155 -0.02939,0.023 -0.469696,3.69471 -1.355483,7.23628 -2.453275,10.75223 -0.169184,0.56067 -0.347961,1.11767 -0.510288,1.68075 -0.120069,0.41659 -0.227524,0.8336 -0.333641,1.2433 -0.189546,-0.39868 -0.396783,-0.77222 -0.451401,-0.74828 -1.261,0.25583 -2.526539,0.38484 -3.827111,0.40292 -0.207645,0.0295 -1.232491,0.30379 -1.403278,0.0576 -0.519676,-0.74923 0.277647,-2.04615 0.23552,-2.7859 0.776209,-3.25886 1.89873,-6.39846 2.737851,-9.63556 0.01772,-0.12066 -1.679948,-0.4545 -1.697665,-0.33385 -1.120553,3.10315 -2.141384,6.23557 -2.835985,9.4859 -0.180548,1.35068 -0.846615,3.24974 0.529907,4.32852 0.845995,0.66299 1.908136,0.5701 2.865424,0.65619 1.23677,0.0128 2.410879,-0.12365 3.591594,-0.36838 -0.02817,0.13087 -0.05241,0.25831 -0.07846,0.3914 -0.205743,1.0484 -0.287074,2.08764 -0.559354,3.11976 -0.79008,2.091 -1.468972,4.20076 -1.864481,6.42371 -0.08456,0.24486 -0.170573,0.49191 -0.255144,0.73677 -0.0369,0.11705 1.631331,0.7387 1.668224,0.62165 0.111865,-0.31724 0.221802,-0.63826 0.33365,-0.9555 0.391599,-2.18845 1.10149,-4.26008 1.844863,-6.33161 0.253789,-1.03959 0.338548,-2.07994 0.578972,-3.11976 0.2018,-0.87272 0.459483,-1.71603 0.726163,-2.56718 0.174671,-0.55742 0.36091,-1.11338 0.539728,-1.66924 0.271537,-0.85598 0.962415,-2.99424 1.187384,-3.84502 0.620332,-2.34595 0.856111,-4.7712 1.128505,-7.19502 0.01657,-0.1131 -1.467102,-0.42969 -1.668232,-0.36838 z m 9.410761,1.79587 c -0.73385,0.016 -1.46346,0.0706 -2.18832,0.1842 -0.11137,0.0385 0.50686,1.66174 0.61822,1.62319 1.87249,-0.0995 3.75492,0.0325 5.63272,0.19571 0.12881,-0.0205 -0.25389,-1.88544 -0.38271,-1.86496 -1.22642,-0.0875 -2.45682,-0.1648 -3.67991,-0.13814 z m -4.28833,0.33385 c -0.0134,0.004 -0.0185,0.0155 -0.0196,0.023 -0.4744,3.63127 -1.65556,7.05549 -2.688782,10.52199 -0.129834,0.47602 -0.272615,0.94833 -0.39253,1.4275 -0.113595,0.45387 -0.181544,0.91891 -0.304202,1.36992 -0.381246,1.40185 -0.996818,2.72775 -1.462155,4.09828 -0.371865,0.93776 -0.38412,1.97821 -0.588785,2.95859 -0.0609,0.29186 -0.164678,0.57693 -0.284576,0.85189 -0.114525,-0.003 -0.228929,-0.01 -0.343463,-0.0115 -0.05396,0.003 -0.04384,0.35233 -0.0098,0.73677 -0.07005,0.13734 -0.139932,0.27887 -0.206077,0.41444 -0.570139,0.77163 -0.2597,0.46291 -0.863548,0.94398 -0.08017,0.0875 1.195565,1.30775 1.275703,1.22028 0.874031,-0.79375 0.47177,-0.33213 1.177572,-1.40447 0.01649,-0.0342 0.03241,-0.0694 0.04907,-0.10361 2.938953,0.18182 5.875473,0.26285 8.812153,0.61013 1.10714,0.0655 2.16229,0.48101 3.23833,0.73678 -0.0712,0.17285 -0.14691,0.34385 -0.21589,0.51804 -0.0406,0.11556 1.60807,0.78325 1.6486,0.66769 0.13615,-0.34958 0.28402,-0.69289 0.43178,-1.03607 0.12302,-0.0292 0.23924,-0.0685 0.36308,-0.0921 0.0378,-0.0144 -0.0265,-0.22989 -0.11776,-0.48351 0.11476,-0.25445 0.23327,-0.5073 0.35328,-0.75979 0.34566,-0.97256 0.53162,-1.9514 0.81448,-2.94708 0.24773,-0.872 0.51737,-1.73674 0.78505,-2.60172 1.06196,-0.12536 2.11602,-0.28044 3.17945,-0.41443 0.11935,-0.0409 -0.53813,-1.79071 -0.65748,-1.74983 -0.65106,0.0781 -1.30284,0.16174 -1.95281,0.24175 0.0214,-0.0769 0.0478,-0.15318 0.0687,-0.23024 0.91625,-3.42002 1.39367,-6.9995 2.7771,-10.2572 0.0484,-0.10826 -1.50203,-0.87957 -1.55046,-0.77131 -1.69447,3.23088 -2.18051,6.94537 -3.08132,10.47594 -0.0928,0.33891 -0.19743,0.67548 -0.29439,1.01305 -0.8731,0.093 -1.7496,0.18013 -2.62991,0.23025 -0.11136,0.0385 0.50687,1.67325 0.61823,1.63471 0.49585,0.0263 0.99214,0.0186 1.48177,0 -0.17732,0.62055 -0.35291,1.23782 -0.51028,1.86494 -0.24436,0.97375 -0.36678,1.95086 -0.70654,2.88952 -0.0447,0.0914 -0.084,0.18443 -0.12757,0.27629 -1.3998,-0.37289 -2.76717,-0.96452 -4.21963,-1.05911 -2.57112,-0.33438 -5.15001,-0.45131 -7.722914,-0.51804 0.06033,-0.18007 0.115481,-0.36529 0.157012,-0.55258 0.19526,-0.88051 0.171886,-1.83133 0.529906,-2.67078 0.499911,-1.41584 1.145866,-2.77519 1.560286,-4.22492 0.11436,-0.40005 0.17862,-0.81749 0.28458,-1.22027 3.14268,0.17805 6.2595,0.15185 9.39113,0.0346 l 0.93225,-0.11512 c 0.11699,-0.0338 -0.44234,-1.73752 -0.55935,-1.70378 -0.30083,0.003 -0.60195,-0.003 -0.9028,0 -2.77519,0.0445 -5.54891,0.007 -8.32151,0.0346 1.1064,-3.417 2.2592,-6.85003 2.48271,-10.51048 0.0166,-0.1131 -1.47692,-0.41816 -1.67804,-0.35687 z m 18.91966,4.89261 c -0.0481,0.002 -0.0763,0.008 -0.0785,0.023 -0.69795,4.10612 -2.43352,7.87545 -3.88599,11.70772 -0.97866,3.08819 -2.35708,6.00303 -2.91449,9.23265 -0.10495,1.18766 -0.11844,0.65911 -0.0294,1.60016 0.003,0.12025 1.68118,0.16629 1.67804,0.0461 0.002,-0.66592 -0.0151,-0.2531 0.0883,-1.23179 0.62498,-3.11506 2.0748,-5.91396 3.03225,-8.91031 1.53424,-3.90851 3.30794,-7.81748 3.72898,-12.09913 0.0155,-0.10557 -1.28244,-0.38193 -1.61916,-0.36839 z m 5.3972,0.18419 c -0.0489,0.002 -0.0763,0.008 -0.0785,0.023 -0.96162,5.32291 -2.65843,10.44424 -4.65141,15.40309 -1.1259,2.4679 -1.99826,5.04954 -3.26777,7.43677 -0.12875,0.36902 -0.5073,1.10044 0.0981,1.45051 1.5423,0.89182 3.46821,-0.59156 4.61215,-1.2548 0.69458,-0.40272 1.37844,-0.82501 2.07057,-1.2318 2.31581,-1.59397 4.63825,-3.18411 7.02617,-4.67388 -0.11294,0.41561 -0.22584,0.82584 -0.33364,1.24331 -0.57735,2.66108 -1.8408,5.15375 -2.10982,7.89724 -0.0224,0.0311 -0.0203,0.032 -0.0393,0.0576 0.27911,0.01 0.55742,0.11389 0.83412,0.18419 -0.3254,0.01 -1.53359,0.3602 -1.50141,0.46048 0.42041,0.29712 0.78027,0.74966 1.26589,0.89794 0.5679,0.17338 0.98905,-1.01546 1.1187,-1.32388 0.31557,-2.56473 1.97224,-5.02985 2.41402,-7.57492 0.30279,-1.14254 0.62712,-2.27676 0.96168,-3.40755 0.12721,-0.0726 0.25501,-0.14695 0.38271,-0.21873 0.0308,-0.0229 -0.075,-0.17796 -0.20607,-0.3799 1.02385,-3.41819 2.13763,-6.81232 3.09113,-10.25721 0.038,-0.11711 -1.63028,-0.73877 -1.66824,-0.62165 -1.20765,3.39796 -2.38067,6.80609 -3.41495,10.26873 -3.20453,1.68909 -6.20816,3.72107 -9.11637,5.87113 -1.01155,0.64365 -2.00253,1.33136 -3.03225,1.94553 0.097,-0.17049 0.18969,-0.33862 0.27477,-0.51804 0.85225,-1.79724 1.587,-3.65685 2.48271,-5.43368 2.0677,-5.05514 3.87881,-10.31942 4.43552,-15.86356 0.0158,-0.10735 -1.30624,-0.39367 -1.64859,-0.3799 z m 3.32664,26.35102 c -0.0231,-7.3e-4 -0.0455,-0.0122 -0.0687,-0.0115 -0.0604,0.002 -0.30872,0.5189 0.0687,0.0115 z m 14.55282,-19.80068 c -1.20037,0.13475 -2.40793,0.26527 -3.59159,0.48351 -0.49906,-0.1255 -1.20526,-0.25142 -1.21682,-0.17268 -0.0288,0.15343 -0.0589,0.30719 -0.0883,0.46048 -0.0194,0.005 -0.0394,0.006 -0.0589,0.0115 -0.0238,0.008 -0.0113,0.0973 0.0196,0.21872 -0.0506,0.26405 -0.10068,0.52931 -0.14719,0.79433 -0.25048,1.42667 -0.421,2.87338 -0.69673,4.29398 -0.11666,0.60103 -0.25734,1.20257 -0.40234,1.79588 -0.30721,0.0387 -0.61336,0.0853 -0.92243,0.11512 -0.0902,0.0312 0.29959,1.08677 0.51028,1.47354 -0.29788,1.08561 -0.62082,2.15616 -0.93224,3.23487 -0.46103,1.36374 -1.1406,2.6102 -1.82524,3.85653 -0.0557,0.11162 1.54385,0.99805 1.59953,0.88643 0.14758,-0.24353 0.29646,-0.48023 0.44159,-0.72526 0.082,0.14977 0.14834,0.24171 0.17664,0.23025 4.64984,-0.72371 9.24848,-1.76854 13.98366,-1.98008 0.45427,0.0361 0.89996,0.0791 1.35421,0.11512 0.12691,-0.0193 -0.22637,-1.86119 -0.35327,-1.84192 l -1.5701,-0.14965 c -4.28897,0.0957 -8.4772,0.86539 -12.60983,1.83041 0.25645,-0.51954 0.48294,-1.0461 0.67711,-1.60018 0.38882,-1.26884 0.75336,-2.54972 1.07944,-3.8335 2.43172,-0.26288 4.79685,-0.88017 7.20281,-1.27783 0.11995,-0.0455 -0.59641,-1.80678 -0.71636,-1.76134 -2.02175,0.31846 -4.02024,0.76675 -6.03505,1.11666 0.3844,-1.74863 0.68813,-3.51836 0.87337,-5.31855 1.29823,-0.16906 2.59847,-0.28823 3.90561,-0.40292 0.12685,-0.0407 -0.53063,-1.89418 -0.65748,-1.85344 z m -86.365074,19.17903 c -8.591582,0.31364 -17.232531,1.28919 -25.40611,4.61633 -1.369017,0.61028 -2.758938,1.14501 -4.101875,1.83041 -5.859861,2.9907 -11.359506,7.09236 -16.181798,11.99552 -0.251073,0.37972 4.331645,4.54707 4.582717,4.16735 5.197506,-3.22767 10.098701,-7.13943 15.55376,-9.79673 1.184863,-0.57717 2.411779,-1.00531 3.621033,-1.50807 1.238415,-0.4368 2.459991,-0.96673 3.719162,-1.31237 1.270544,-0.34876 2.569107,-0.52203 3.85655,-0.77131 5.458818,-1.05695 10.580345,-1.62934 16.113104,-1.64621 8.244967,0.5091 16.513903,0.7383 24.738819,1.58866 8.547285,1.11149 16.228962,4.63472 23.865462,9.05996 6.34644,4.0341 12.46777,8.56493 19.41031,11.10909 1.47935,0.54213 2.99516,0.92062 4.4944,1.38145 9.61525,1.93644 19.48051,0.59843 29.00751,-1.41598 4.90038,-1.18833 9.8154,-2.56523 14.57245,-4.45515 -1.43743,1.83101 -2.90784,3.6253 -4.38645,5.41065 -1.71901,2.21636 -3.25628,4.61249 -4.80842,6.98779 -0.11368,0.21315 2.45736,2.10112 2.57103,1.88798 0.10079,-0.147 0.20339,-0.29046 0.30421,-0.43746 0.1546,0.0919 0.272,0.15281 0.29439,0.11512 0.0616,-0.0758 0.3382,-0.40737 0.55935,-0.67921 -0.11848,0.42652 -0.23025,0.8543 -0.32383,1.23179 -0.0453,0.22551 2.67294,0.97379 2.71822,0.74828 0.62496,-2.72857 2.54223,-3.78895 3.84674,-6.14742 4.47748,-6.11839 8.35473,-12.80552 13.12011,-18.63797 0.0466,-0.0704 -0.23358,-0.40373 -0.61823,-0.78281 0.35011,-0.52308 0.70234,-1.03991 1.05001,-1.56563 0.0961,-0.20932 -2.4259,-1.8095 -2.52197,-1.60018 -0.27644,0.33181 -0.56769,0.658 -0.84393,0.99004 0.0733,-0.4477 0.11086,-0.78723 0.0491,-0.80584 -3.69771,-0.10799 -7.41807,-0.13473 -11.05936,-1.02458 -1.94924,-0.47634 -3.25132,-1.10053 -5.10281,-1.87645 -2.57309,-1.58651 -1.33995,-0.76281 -3.71916,-2.45207 -0.16033,-0.16573 -2.16221,2.49356 -2.00188,2.65928 2.35044,1.791 1.65802,1.27856 3.73879,2.65928 -0.31924,0.66835 -0.581,1.31563 -0.50046,1.36993 2.64482,1.72172 5.35574,2.94913 8.15468,3.81048 -5.77569,2.26673 -11.71734,3.97392 -17.70283,5.23797 -7.72996,1.48854 -15.65072,2.85658 -23.47293,1.64621 -1.31948,-0.32962 -2.65655,-0.55921 -3.95468,-0.99003 -6.78852,-2.25289 -12.74195,-6.71682 -18.84115,-10.70617 -8.13398,-4.85297 -16.598166,-8.82262 -25.700503,-10.32629 -9.531153,-1.03986 -19.128345,-1.26116 -28.693501,-1.56564 z"
       id="path2985"
       inkscape:connector-curvature="0" />
  </g>
</svg>
