<?xml version="1.0" encoding="UTF-8"?>
<!DOCTYPE svg PUBLIC "-//W3C//DTD SVG 1.1//EN" "http://www.w3.org/Graphics/SVG/1.1/DTD/svg11.dtd">
<!-- Creator: CorelDRAW -->
<svg xmlns="http://www.w3.org/2000/svg" xml:space="preserve" width="200px" height="200px" style="shape-rendering:geometricPrecision; text-rendering:geometricPrecision; image-rendering:optimizeQuality; fill-rule:evenodd; clip-rule:evenodd"
viewBox="0 0 200 200"
 xmlns:xlink="http://www.w3.org/1999/xlink">
 <defs>
  <style type="text/css">
   <![CDATA[
    .fil0 {fill:#2B2A29;fill-rule:nonzero}
   ]]>
  </style>
 </defs>
 <g id="Layer_x0020_1">
  <metadata id="CorelCorpID_0Corel-Layer"/>
  <path class="fil0" d="M147.289 35.5444c-3.60593,3.50908 -8.53589,4.87917 -13.9714,4.87917 -6.9225,0 -13.1942,-2.80396 -16.799,-8.13786 -3.5894,5.43548 -9.91898,8.13786 -16.9206,8.13786 -6.91305,0 -13.147,-2.87246 -16.7458,-8.20636 -3.57759,5.50989 -9.90716,8.20636 -16.9631,8.20636 -5.13665,0 -9.81031,-1.1315 -13.3596,-4.30397l-2.66104 -19.1553c3.66145,4.85909 9.47488,7.9914 16.0206,7.9914 7.05596,0 13.3855,-3.48664 16.9631,-8.99771 3.59885,5.32918 9.83275,8.99771 16.7458,8.99771 7.00163,0 13.3312,-3.49727 16.9206,-8.92802 3.60475,5.32681 9.87646,8.92802 16.799,8.92802 7.05832,0 13.2615,-3.64609 16.8379,-9.15598l-2.86656 19.7446z"/>
  <polygon class="fil0" points="152.404,197.5 180.166,2.49805 159.601,2.69057 134.609,176.936 65.3828,176.936 40.4011,2.69057 19.8368,2.49805 47.5988,197.5 "/>
 </g>
</svg>
