<?xml version="1.0" encoding="UTF-8"?>
<!DOCTYPE svg PUBLIC "-//W3C//DTD SVG 1.1//EN" "http://www.w3.org/Graphics/SVG/1.1/DTD/svg11.dtd">
<!-- Creator: CorelDRAW -->
<svg xmlns="http://www.w3.org/2000/svg" xml:space="preserve" width="200px" height="200px" style="shape-rendering:geometricPrecision; text-rendering:geometricPrecision; image-rendering:optimizeQuality; fill-rule:evenodd; clip-rule:evenodd"
viewBox="0 0 200 200"
 xmlns:xlink="http://www.w3.org/1999/xlink">
 <defs>
  <style type="text/css">
   <![CDATA[
    .fil0 {fill:#2B2A29;fill-rule:nonzero}
   ]]>
  </style>
 </defs>
 <g id="Layer_x0020_1">
  <metadata id="CorelCorpID_0Corel-Layer"/>
  <path class="fil0" d="M97.9626 24.8293c-1.76104,-27.6817 -23.8821,-21.6108 -23.8821,-21.6108 -21.7632,7.86384 -11.6517,28.0136 -11.6517,28.0136l35.0436 60.095 0.490161 -66.4978z"/>
  <path class="fil0" d="M175.159 98.3748c27.9085,-1.77403 21.7691,-23.7002 21.7691,-23.7002 -7.95124,-21.5789 -28.2605,-11.5359 -28.2605,-11.5359l-60.5639 34.8133 67.0553 0.422838z"/>
  <path class="fil0" d="M134.302 33.1302c11.7509,-25.1659 -10.6064,-30.2861 -10.6064,-30.2861 -22.9171,-3.3768 -23.7144,19.1163 -23.7144,19.1163l1.92167 69.3927 32.3991 -58.2229z"/>
  <path class="fil0" d="M94.1346 95.0511l-57.7103 -32.4168c0,0 -21.0557,-10.3158 -5.69768,-32.1794 0,0 15.606,-12.2812 28.4837,3.19373l34.9243 61.4025z"/>
  <path class="fil0" d="M90.9125 98.0004c0,0 -58.7001,-34.3881 -59.1961,-33.8979 0,0 -21.7939,-10.5627 -28.7282,11.5465 0,0 -4.45988,17.6824 13.6206,22.8415l74.3037 -0.490161z"/>
  <path class="fil0" d="M92.1503 101.929l-74.3014 0c0,0 -21.0545,4.17759 -13.1281,26.2797 0,0 5.44847,15.9674 24.5211,8.59849l62.9084 -34.8782z"/>
  <path class="fil0" d="M94.6283 106.106l-60.682 32.6648c0,0 -16.0974,11.0576 -4.4587,28.988 0,0 18.0828,18.4218 33.6853,-6.14414 15.6037,-24.56 31.4554,-55.5087 31.4554,-55.5087z"/>
  <path class="fil0" d="M97.3531 110.771l-33.6853 56.4973c0,0 -11.8855,17.6824 7.43037,28.4884 0,0 20.8053,9.82685 26.7486,-17.1899l-0.493705 -67.7958z"/>
  <path class="fil0" d="M101.318 109.793l-0.497248 66.5604c0,0 0.497248,25.5474 24.2742,20.3895 0,0 17.5844,-4.18114 12.8777,-24.5624l-36.6546 -62.3875z"/>
  <path class="fil0" d="M104.289 105.861l32.1995 57.7197c0,0 13.3714,19.6502 30.7136,6.38863 0,0 17.334,-14.4934 -2.23348,-30.7018l-60.6796 -33.4066z"/>
  <path class="fil0" d="M108.251 102.178l66.8722 -0.249215c0,0 25.5132,-0.48898 19.3242,25.5474 0,0 -6.93785,18.6651 -28.7305,8.35282l-57.4658 -33.6511z"/>
  <path class="fil0" d="M104.537 93.824l0.315357 -0.559847 31.6361 -56.4205c0,0 8.42133,-18.6698 30.214,-6.87761 0,0 17.3434,13.9997 -1.976,31.4376l-60.1895 32.4203z"/>
 </g>
</svg>
