<?xml version="1.0" encoding="UTF-8"?>
<!DOCTYPE svg PUBLIC "-//W3C//DTD SVG 1.1//EN" "http://www.w3.org/Graphics/SVG/1.1/DTD/svg11.dtd">
<!-- Creator: CorelDRAW -->
<svg xmlns="http://www.w3.org/2000/svg" xml:space="preserve" width="200px" height="200px" style="shape-rendering:geometricPrecision; text-rendering:geometricPrecision; image-rendering:optimizeQuality; fill-rule:evenodd; clip-rule:evenodd"
viewBox="0 0 200 200"
 xmlns:xlink="http://www.w3.org/1999/xlink">
 <defs>
  <style type="text/css">
   <![CDATA[
    .fil0 {fill:#2B2A29;fill-rule:nonzero}
   ]]>
  </style>
 </defs>
 <g id="Layer_x0020_1">
  <metadata id="CorelCorpID_0Corel-Layer"/>
  <path class="fil0" d="M25.6467 2.49805c1.0878,0 6.35202,2.43073 15.8009,7.28155 9.44535,4.85555 18.5222,9.63078 27.2329,14.3233 8.70479,4.69138 15.2068,8.2288 19.4954,10.604l8.83353 -11.3162 43.1094 22.9785 0.970874 16.9206 15.7655 8.65282 0 77.9675c4.34177,0 7.92053,0.707486 10.7304,2.11183 2.81223,1.4067 6.54808,3.80436 11.2087,7.19651 1.15158,0.835046 3.13467,2.08112 5.94453,3.74176 2.81223,1.66301 4.86854,3.27758 6.18076,4.8461 1.30513,1.56852 1.96301,3.5953 1.96301,6.08863 0,2.49805 -0.707486,4.49885 -2.11419,5.99887 -1.40434,1.50592 -3.62601,3.05554 -6.66383,4.6524 -3.039,1.59923 -5.32327,2.91026 -6.85517,3.93546 -2.75317,2.04923 -5.53705,4.06184 -8.3481,6.04375 -2.81105,1.98663 -5.81579,2.97404 -9.01424,2.97404l-18.7974 0 -133.97 -66.1245 0 -110.827c0,-1.72679 0.631895,-3.1831 1.90041,-4.37129 1.2697,-1.18702 2.77916,-1.77994 4.53429,-1.77994 1.0382,0 2.95632,0.579926 5.75438,1.73978l0 -8.18392c0,-3.63664 2.11183,-5.45437 6.33785,-5.45437zm-12.4324 17.9919l0 0 0 106.159 125.649 62.5989 0 -101.052 -17.856 -9.80677 -5.66225 6.05674 -32.4499 -17.3116 -1.05237 -9.42527 -68.6285 -37.2192zm136.675 53.8681l0 0 -15.7277 -8.45204 -0.961425 -16.3312 -34.1778 -18.3498 -8.73314 11.3174 -66.0478 -35.1109 0 12.1962 63.3584 33.605 1.15276 11.4273 23.9978 12.5777 7.29573 -6.83627 24.6215 12.1997 0 108.183 5.22169 0 0 -116.426z"/>
 </g>
</svg>
