<?xml version="1.0" encoding="UTF-8"?>
<!DOCTYPE svg PUBLIC "-//W3C//DTD SVG 1.1//EN" "http://www.w3.org/Graphics/SVG/1.1/DTD/svg11.dtd">
<!-- Creator: CorelDRAW -->
<svg xmlns="http://www.w3.org/2000/svg" xml:space="preserve" width="200px" height="200px" style="shape-rendering:geometricPrecision; text-rendering:geometricPrecision; image-rendering:optimizeQuality; fill-rule:evenodd; clip-rule:evenodd"
viewBox="0 0 200 200"
 xmlns:xlink="http://www.w3.org/1999/xlink">
 <defs>
  <style type="text/css">
   <![CDATA[
    .fil0 {fill:#2B2A29;fill-rule:nonzero}
   ]]>
  </style>
 </defs>
 <g id="Layer_x0020_1">
  <metadata id="CorelCorpID_0Corel-Layer"/>
  <path class="fil0" d="M184.285 17.634c-8.66582,-8.69653 -19.3041,-12.9698 -31.9195,-12.8363 -19.6584,0.207876 -36.4526,10.9194 -50.3543,32.1865l0.00118111 -0.158269 -3.37325 6.36147c0,0 -1.54608,-2.80514 -3.63428,-6.5847l0.0177167 0.455909c-5.13547,-10.5013 -11.6824,-18.3379 -19.6395,-23.5325 -7.95597,-5.19335 -16.7198,-7.7351 -26.2561,-7.63471 -12.5399,0.134647 -23.4758,4.1268 -32.8231,12.0119 -9.32606,7.89219 -13.9312,17.9871 -13.8013,30.2955 0.0448822,4.25673 1.36418,10.3973 3.94609,18.4194 4.64059,11.9942 17.0021,27.6097 37.0845,46.8771 20.099,19.2439 34.068,33.6074 41.9247,43.0622 7.85557,9.45244 12.9946,22.3443 15.43,38.646 1.86498,-14.3493 9.3237,-28.6786 22.3868,-42.9948 13.0631,-14.3411 27.9853,-30.1904 44.7854,-47.5728 16.8013,-17.3824 26.1604,-30.7278 28.0632,-40.0302 0.983866,-3.29176 1.43151,-7.68077 1.37245,-13.1977 -0.146458,-13.819 -4.54492,-25.0762 -13.2107,-33.7739z"/>
 </g>
</svg>
