<?xml version="1.0" encoding="UTF-8"?>
<!DOCTYPE svg PUBLIC "-//W3C//DTD SVG 1.1//EN" "http://www.w3.org/Graphics/SVG/1.1/DTD/svg11.dtd">
<!-- Creator: CorelDRAW -->
<svg xmlns="http://www.w3.org/2000/svg" xml:space="preserve" width="200px" height="200px" style="shape-rendering:geometricPrecision; text-rendering:geometricPrecision; image-rendering:optimizeQuality; fill-rule:evenodd; clip-rule:evenodd"
viewBox="0 0 200 200"
 xmlns:xlink="http://www.w3.org/1999/xlink">
 <defs>
  <style type="text/css">
   <![CDATA[
    .fil0 {fill:#2B2A29;fill-rule:nonzero}
   ]]>
  </style>
 </defs>
 <g id="Layer_x0020_1">
  <metadata id="CorelCorpID_0Corel-Layer"/>
  <polygon class="fil0" points="91.6318,185.511 85.9767,196.595 83.4881,184.377 76.7002,194.785 75.3455,182.342 67.6517,192.069 67.6517,179.628 58.8288,188.45 60.1883,176.007 50.4595,184.153 52.9481,171.937 42.5413,178.949 46.1626,166.958 35.3046,173.068 40.0539,161.53 28.5179,166.508 34.3987,155.422 22.4092,159.268 29.4215,148.863 17.2053,151.577 24.8978,141.847 12.456,143.207 21.2765,134.386 8.8359,134.61 18.3368,126.692 5.89493,125.788 16.0749,118.549 3.85869,116.514 14.7167,110.404 2.72837,107.238 14.0387,102.036 2.50041,97.737 14.2655,93.8913 3.17955,88.2361 15.3946,85.5208 4.76342,78.9597 17.2053,77.6026 7.25203,69.9124 19.695,69.6856 10.4186,61.0906 23.0884,61.9942 14.7167,52.7201 27.1597,54.7563 19.695,44.5752 31.6833,47.9685 25.3502,37.1093 37.1129,41.6342 31.9101,30.3227 42.9948,35.7511 38.9235,23.9896 49.5535,30.5495 46.6138,18.3344 56.5693,26.0258 54.7575,13.5828 63.8072,22.1801 63.1292,9.73708 71.4986,19.0124 72.1766,6.57052 79.4168,16.7505 81.225,4.3087 87.5605,15.1667 90.5015,2.9516 95.9299,14.2619 100.001,2.49923 104.075,14.2619 109.503,2.9516 112.444,15.1667 118.777,4.3087 120.588,16.7505 127.828,6.57052 128.505,19.0124 136.875,9.73708 136.196,22.1801 145.246,13.5828 143.435,26.0258 153.39,18.3344 150.449,30.5495 161.082,23.9896 157.011,35.7511 168.093,30.3227 162.891,41.6342 174.655,37.1093 168.32,47.9685 180.311,44.5752 172.846,54.7563 185.287,52.7201 176.916,61.9942 189.358,61.0906 180.311,69.6856 192.752,69.9124 182.799,77.6026 195.241,78.9597 184.608,85.5208 196.824,88.2361 185.739,93.8913 197.502,97.737 185.966,102.036 197.276,107.238 185.287,110.404 196.145,116.514 183.93,118.549 194.11,125.788 181.667,126.692 191.17,134.61 178.725,134.386 187.548,143.207 175.107,141.847 182.799,151.577 170.582,148.863 177.594,159.268 165.606,155.422 171.487,166.508 159.949,161.53 164.7,173.068 153.841,166.958 157.461,178.949 147.055,171.937 149.543,184.153 139.818,176.007 141.174,188.45 132.351,179.628 132.351,192.069 124.659,182.342 123.302,194.785 116.515,184.377 114.028,196.595 108.372,185.511 104.754,197.498 100.001,185.965 95.2519,197.498 "/>
 </g>
</svg>
