<?xml version="1.0" encoding="UTF-8"?>
<!DOCTYPE svg PUBLIC "-//W3C//DTD SVG 1.1//EN" "http://www.w3.org/Graphics/SVG/1.1/DTD/svg11.dtd">
<!-- Creator: CorelDRAW -->
<svg xmlns="http://www.w3.org/2000/svg" xml:space="preserve" width="200px" height="200px" style="shape-rendering:geometricPrecision; text-rendering:geometricPrecision; image-rendering:optimizeQuality; fill-rule:evenodd; clip-rule:evenodd"
viewBox="0 0 200 200"
 xmlns:xlink="http://www.w3.org/1999/xlink">
 <defs>
  <style type="text/css">
   <![CDATA[
    .fil0 {fill:#2B2A29;fill-rule:nonzero}
   ]]>
  </style>
 </defs>
 <g id="Layer_x0020_1">
  <metadata id="CorelCorpID_0Corel-Layer"/>
  <path class="fil0" d="M62.8977 158.334c8.60558,-19.3572 17.8761,-38.0247 27.8152,-56.0107 9.93315,-17.9789 20.6258,-35.0483 32.0719,-51.2095 11.4473,-16.1564 20.1887,-27.2364 26.2183,-33.2329 6.02958,-5.99178 10.2036,-9.50204 12.5103,-10.519 2.30553,-1.01812 7.40675,-2.08702 15.3048,-3.19609 7.89691,-1.10788 13.3088,-1.66773 16.2391,-1.66773 1.86143,0 2.79451,0.715754 2.79451,2.13191 0,0.889377 -0.334255,1.75159 -0.996858,2.59608 -0.670871,0.843314 -2.59608,2.68585 -5.7839,5.51933 -16.0419,14.9139 -33.6782,36.9239 -52.9126,66.0277 -19.2356,29.1038 -35.32,59.6757 -48.2543,91.7039 -5.23114,12.7808 -8.82527,20.4592 -10.7706,23.0281 -1.9512,2.66104 -8.10951,3.99452 -18.4738,3.99452 -7.44809,0 -11.9056,-0.753549 -13.3678,-2.25474 -1.46222,-1.5071 -4.40555,-5.62327 -8.83826,-12.3485 -7.26502,-11.2336 -15.6462,-21.8565 -25.1282,-31.8605 -4.78586,-5.04335 -7.17525,-8.85007 -7.17525,-11.4154 0,-3.54215 2.60199,-7.15045 7.82014,-10.8213 5.21697,-3.6709 9.54574,-5.50752 12.9993,-5.50752 4.41854,0 9.8552,2.43545 16.3088,7.30518 6.45478,4.86972 13.656,14.1131 21.6191,27.7372z"/>
 </g>
</svg>
