<?xml version="1.0" encoding="UTF-8" standalone="no"?>
<!-- Created with Inkscape (http://www.inkscape.org/) -->

<svg
   xmlns:dc="http://purl.org/dc/elements/1.1/"
   xmlns:cc="http://creativecommons.org/ns#"
   xmlns:rdf="http://www.w3.org/1999/02/22-rdf-syntax-ns#"
   xmlns:svg="http://www.w3.org/2000/svg"
   xmlns="http://www.w3.org/2000/svg"
   xmlns:sodipodi="http://sodipodi.sourceforge.net/DTD/sodipodi-0.dtd"
   xmlns:inkscape="http://www.inkscape.org/namespaces/inkscape"
   width="200"
   height="200"
   id="svg2"
   version="1.1"
   inkscape:version="0.48.4 r9939"
   sodipodi:docname="monster.svg">
  <defs
     id="defs4" />
  <sodipodi:namedview
     id="base"
     pagecolor="#ffffff"
     bordercolor="#666666"
     borderopacity="1.0"
     inkscape:pageopacity="0.0"
     inkscape:pageshadow="2"
     inkscape:zoom="0.63516094"
     inkscape:cx="325.30097"
     inkscape:cy="299.43109"
     inkscape:document-units="px"
     inkscape:current-layer="layer1"
     showgrid="false"
     inkscape:window-width="1366"
     inkscape:window-height="684"
     inkscape:window-x="-8"
     inkscape:window-y="-8"
     inkscape:window-maximized="1" />
  <metadata
     id="metadata7">
    <rdf:RDF>
      <cc:Work
         rdf:about="">
        <dc:format>image/svg+xml</dc:format>
        <dc:type
           rdf:resource="http://purl.org/dc/dcmitype/StillImage" />
        <dc:title></dc:title>
      </cc:Work>
    </rdf:RDF>
  </metadata>
  <g
     inkscape:label="Layer 1"
     inkscape:groupmode="layer"
     id="layer1"
     transform="translate(0,-852.36218)">
    <path
       style="fill:#552200"
       d="m 133.82196,859.03231 c -0.81806,0 -1.63621,0.047 -1.63621,0.15289 -1.30942,4.95455 -3.31364,9.70355 -5.35945,14.43293 -0.53584,1.18089 -1.07265,2.36425 -1.60282,3.54707 -0.54524,-0.33448 -1.08325,-0.60291 -1.56943,-0.68801 -1.09376,-0.19145 -2.04238,-0.28781 -2.93851,-0.30578 -0.47703,-0.11201 -0.96839,-0.20484 -1.45256,-0.29049 -0.98451,-0.17416 -1.97757,-0.23322 -2.9719,-0.35165 -0.91158,0.003 -1.82699,-0.044 -2.73816,-0.0306 -0.30372,0.004 -0.61516,0.0111 -0.91828,0.0306 -1.91918,0.123 -5.00046,0.74288 -6.8287,1.13139 -2.70928,0.57575 -5.38763,1.21434 -8.080899,1.84998 -1.477349,0.34868 -2.949497,0.71319 -4.424459,1.07024 -3.646652,0.79377 -5.079802,1.13744 -8.715353,1.78883 -2.324435,0.41647 -4.656999,0.75735 -6.995656,1.05495 -0.217223,0.0276 -0.433795,0.0493 -0.651145,0.0764 -1.060938,0.13255 -2.124987,0.25495 -3.188953,0.38223 -1.053349,0.12601 -2.102793,0.26748 -3.155555,0.39752 -1.073071,0.18806 -2.161088,0.32797 -3.222344,0.5657 -3.940736,0.88274 -7.650379,2.31842 -11.152981,4.12806 -2.148524,-3.67009 -4.191057,-7.3927 -6.194244,-11.13048 -0.06091,-0.20133 -3.166383,0.59371 -3.105471,0.79504 0.942632,3.43376 2.294184,6.77323 3.95697,9.9685 0.456256,0.87675 0.948287,1.73653 1.435865,2.59915 -0.435414,0.26944 -0.873877,0.53088 -1.302295,0.81032 -0.556685,0.38735 -1.128879,0.76315 -1.686303,1.14668 -2.376389,-1.27223 -4.711264,-2.59791 -6.97896,-4.03632 -1.01325,-0.60868 -2.036907,-1.195 -3.038689,-1.81941 -3.02836,-1.88755 -5.994883,-3.95077 -9.316408,-5.39705 -0.168924,-0.14275 -2.372812,2.05889 -2.203883,2.20163 3.762414,2.7254 7.533429,5.44069 11.386726,8.05736 2.033834,1.41169 4.148966,2.70575 6.311116,3.9293 -1.810715,1.4663 -3.607057,2.94988 -5.593188,4.2198 -0.707248,0.56997 -1.269638,0.96051 -1.803176,1.69709 -1.421961,1.96311 -2.00397,4.30198 -2.654675,6.58961 -0.156145,0.37458 -0.304877,0.76425 -0.450792,1.14668 -0.09937,0.33809 -0.218357,0.66715 -0.300532,1.00908 -0.03645,0.15171 -0.05563,0.30543 -0.08348,0.45868 -0.03337,0.0861 -0.0654,0.17452 -0.100174,0.25991 -0.05377,0.20046 -0.14089,0.51318 -0.200354,0.73388 -0.0057,0.0157 -0.0112,0.03 -0.01668,0.0458 -0.140484,0.40396 -0.240154,0.83659 -0.333919,1.23842 -0.01761,0.0754 -0.03175,0.15708 -0.05009,0.22934 -0.611364,2.27178 -1.309648,4.83027 -1.702997,6.62019 -0.06898,0.3139 -0.134642,0.63348 -0.200353,0.94792 -0.002,0.005 0.002,0.0105 0,0.0153 -0.179796,0.48396 -0.291908,1.05168 -0.384009,1.48305 -0.26244,1.2291 0.05656,0.75197 -0.317226,1.25371 -0.287533,0.86513 -0.55989,1.75435 -0.734631,2.64501 -0.08057,0.41069 -0.07942,0.82894 -0.166957,1.23842 -0.05525,0.2584 -0.182672,0.51277 -0.267141,0.76446 l -0.200354,0.9785 c -0.451393,1.62229 -0.43492,3.28227 -0.333919,4.93838 -0.0034,0.10426 0.197203,0.20242 0.534273,0.2905 -0.07917,1.08288 -0.15113,2.17228 -0.200354,3.25658 -0.154593,2.83382 -0.158894,5.65146 -0.283829,8.48546 -0.108223,2.45502 -0.178161,2.91621 -0.317226,5.45821 -0.06629,1.21158 -0.124931,2.41162 -0.18366,3.62352 -0.321228,11.39655 -0.03621,22.80675 1.001767,34.17115 0.46586,5.7036 0.462088,5.4973 0.434098,5.2136 -0.0088,0.012 0.03743,0.8098 0.333919,4.8925 0.287387,3.95736 0.71286,7.91326 0.834806,11.87966 0.03606,1.1727 0.01076,2.3432 0.01668,3.5165 0.0181,5.1421 0.01707,10.2876 0.233744,15.4267 0,0.028 0.104446,0.047 0.267137,0.061 -10e-6,0.2196 9e-6,0.4377 0,0.6574 -5e-6,0.1505 0.438369,0.2852 1.118634,0.3822 0.06176,0.4213 0.34094,1.3521 0.434099,1.3301 0.188998,0.044 0.377824,0.082 0.567669,0.1224 -0.0039,0.04 -4.9e-4,0.069 0.01668,0.076 0.367178,0.1045 0.729132,0.2349 1.101941,0.3211 2.168271,0.5015 4.408808,0.8129 6.611649,1.1467 3.912159,0.5927 2.502625,0.3777 6.611645,0.902 1.2372,0.1586 2.467648,0.3422 3.706531,0.4893 2.712666,0.3221 5.433218,0.5776 8.147684,0.8867 4.501301,0.5126 8.992152,1.1018 13.49043,1.636 9.618603,1.1824 19.257496,2.2198 28.917601,3.0731 8.15861,0.6479 16.32905,1.1857 24.49315,1.7735 6.29065,0.5303 12.60343,0.3565 18.89996,0.046 4.34384,-0.011 8.63826,-0.6124 12.93946,-1.0855 2.37464,-0.2969 4.76374,-0.1257 7.14592,-0.046 1.1456,0.069 2.29196,0.075 3.43939,0.076 0.23676,0.06 1.17175,-3.013 0.93499,-3.073 -0.92493,-0.038 -1.8468,-0.082 -2.77156,-0.1224 0.0498,-0.2246 0.10452,-0.4485 0.15027,-0.6727 0.24123,-0.013 0.4341,-0.041 0.4341,-0.076 0.0404,-0.7207 0.009,-1.4384 -0.0501,-2.1557 0.29341,-2.0777 0.42234,-4.1737 0.4341,-6.2685 -0.0729,-1.5532 -0.0154,-0.8105 -0.15027,-2.2017 -0.001,-0.022 -0.0807,-0.038 -0.18365,-0.046 0.008,-0.082 0.005,-0.1633 0.0167,-0.2446 0.1292,-1.7339 0.32168,-3.4658 0.0501,-5.1983 -0.089,-0.6146 -0.20185,-1.2345 -0.30052,-1.85 -0.0121,-0.122 -0.0336,-0.245 -0.0501,-0.3669 -0.0186,-0.117 -0.0317,-0.2347 -0.0501,-0.3516 -0.29608,-1.8892 -0.52862,-3.7801 -0.4174,-5.6876 0.0411,-0.1128 0.0393,-0.1264 0.10018,-0.2905 0.12459,-0.4607 0.27397,-0.9091 0.36731,-1.376 0.18079,-0.9043 0.28413,-1.8407 0.26713,-2.7673 0.0409,-0.1636 0.0674,-0.284 0.11688,-0.474 0.88606,-3.4012 2.24785,-6.692 3.08877,-10.10606 0.46661,-2.1215 0.8848,-3.7588 1.11864,-5.9322 0.13302,-1.2363 0.19911,-2.4743 0.23374,-3.7153 2.9e-4,-0.01 0.0164,-0.02 0.0167,-0.031 0.10416,-0.3593 0.18458,-0.7491 0.28383,-1.4525 0.1174,-0.8322 -0.0899,-1.8852 0.0167,-2.7368 0.0238,-1.4744 0.0554,-2.944 0.0167,-4.4185 -0.0425,-1.2452 -0.13095,-2.4855 -0.16696,-3.7306 0.072,-1.4801 0.5237,-2.9216 0.60106,-4.4032 0.0665,-1.7837 -0.0294,-3.5988 -0.65115,-5.2748 0.0376,-7.7577 -0.13145,-15.52017 -1.53604,-23.19355 -0.33857,-1.80339 -0.62015,-3.61921 -1.01846,-5.41234 -1.78526,-8.03699 -4.7823,-15.79486 -7.06244,-23.71342 -0.60593,-2.20933 -0.86288,-3.10561 -1.11864,-4.03633 -0.0443,-0.24825 -0.0992,-0.50893 -0.18365,-0.82561 -0.0649,-0.2434 -0.14627,-0.48649 -0.23375,-0.71859 -0.004,-0.0107 -0.0126,-0.0199 -0.0167,-0.0306 -0.22548,-0.81695 -0.40778,-1.50512 -0.90159,-3.28716 -1.06867,-3.8565 -2.05193,-7.85405 -4.02375,-11.43625 -0.55253,-1.00378 -1.29339,-1.91704 -1.93675,-2.87436 -2.10552,-2.20711 -2.39203,-2.8456 -5.15909,-4.40326 -0.99879,-0.56226 -2.06928,-0.99783 -3.13886,-1.43718 0.28238,-0.48877 0.57151,-0.97783 0.8515,-1.46775 1.51104,-2.64404 3.05495,-5.31553 4.2742,-8.08795 0.18587,-0.42266 0.31981,-0.85421 0.48418,-1.28428 0.0885,-0.19757 -2.96683,-1.34425 -3.05538,-1.14668 -2.47168,3.39161 -4.80968,6.84404 -7.07914,10.35073 -1.26372,-0.41494 -2.53971,-0.83043 -3.8067,-1.23842 1.19638,-2.82479 2.37278,-5.65523 3.47278,-8.51604 0.0356,-0.0925 1.61082,-4.15435 1.75309,-4.57144 0.13204,-0.38712 0.20764,-0.78432 0.31723,-1.17727 0.0885,-0.19757 -2.96683,-1.34424 -3.05539,-1.14668 -2.69635,4.4572 -4.86236,9.16139 -7.02905,13.85194 -1.89719,-0.67324 -1.50824,-0.54184 -4.37437,-1.62065 0.59021,-1.43032 1.17551,-2.85593 1.73639,-4.29624 1.89507,-5.09005 3.88185,-10.30669 3.94027,-15.74779 0,-0.10594 -0.81815,-0.15289 -1.63621,-0.15289 z m -19.81824,18.30107 c 0.26223,-0.001 0.52206,-0.01 0.78471,0 -0.34018,0.11727 -0.65236,0.26353 -0.96837,0.41281 -0.82479,-0.0361 -1.64721,-0.0925 -2.47102,-0.1376 0.72758,-0.11395 1.43948,-0.21319 2.07031,-0.25992 0.19487,-0.0144 0.38899,-0.0143 0.58437,-0.0153 z m 0.8181,0.0153 c 0.0781,0.003 0.15562,-0.003 0.23375,0 -0.0891,0.0375 -0.17076,0.0832 -0.26714,0.0917 -0.0318,0.003 0.006,-0.0534 0.0334,-0.0917 z m 31.18828,9.72387 c 2.07992,0.8314 3.74753,1.55946 5.47631,2.99667 0.78047,0.64883 1.39015,1.4468 2.08701,2.17106 0.11324,0.17089 0.23268,0.336 0.35062,0.50454 -0.24717,-0.22658 -0.52039,-0.42936 -0.83481,-0.59628 l -1.13533,-0.82561 c -0.0691,4.9e-4 -0.13857,0.0284 -0.20035,0 -0.25506,-0.11733 -0.4395,-0.47034 -0.71793,-0.41281 -0.21345,0.0441 0.27114,0.30928 0.36731,0.48925 0.002,0.003 -3.6e-4,0.0109 0,0.0153 -0.0797,-0.0345 -0.15652,-0.0703 -0.23374,-0.10703 -0.16655,-0.1625 -0.32018,-0.32441 -0.48419,-0.48925 0.008,0.0813 0.0144,0.0916 0.0167,0.12232 -0.0806,-0.13525 -0.12617,-0.31152 -0.0835,-0.55041 -0.54876,-0.38827 -1.04143,-0.81974 -1.60282,-1.19255 -0.0185,-0.0123 -0.0457,-0.0229 -0.0668,-0.0306 -0.23299,-0.25656 -0.47204,-0.50311 -0.73464,-0.73388 -0.35736,-0.31404 -0.81418,-0.53346 -1.21881,-0.79503 -0.34779,-0.15521 -0.67957,-0.3425 -1.01846,-0.51983 0.009,-0.0161 0.024,-0.0298 0.0334,-0.0459 z m 24.76028,75.58936 c 9.8e-4,0.077 0.0158,0.1529 0.0167,0.2294 -0.009,-0.051 -0.0242,-0.1017 -0.0334,-0.1529 0.008,-0.025 0.009,-0.052 0.0167,-0.077 z"
       id="path2991"
       inkscape:connector-curvature="0" />
    <path
       style="fill:#000000"
       d="m 64.168729,920.11133 c -0.688284,-0.0205 -1.371069,0.0536 -2.052141,0.23376 -0.319809,0.0846 -0.626595,0.19753 -0.940567,0.2987 -0.628483,0.29577 -1.233761,0.65021 -1.795622,1.05193 -0.264715,-0.46301 -0.538197,-0.86459 -0.612793,-0.83116 -2.3508,0.49469 -4.037339,1.66937 -5.401118,3.46749 -0.294006,0.38765 -0.543368,0.8053 -0.812304,1.20777 -0.815055,1.63764 -1.387386,3.49884 -0.769554,5.28565 0.379732,1.09821 0.715648,1.31082 1.496352,2.1688 0.37436,0.23751 0.718475,0.52719 1.125826,0.71428 1.914579,0.87931 4.708426,0.59373 6.71221,0.15584 0.510026,-0.11146 1.009341,-0.27494 1.510604,-0.41558 1.696372,-0.48082 3.354706,-1.15633 4.745575,-2.18179 0.771046,-0.56848 0.968982,-0.8283 1.610362,-1.49349 1.000695,-1.14051 1.92724,-2.35975 1.995134,-3.87007 0.01194,-0.26563 -0.02862,-0.52666 -0.04276,-0.7922 -0.330573,-2.09967 -1.568541,-3.1185 -3.448735,-4.19475 -1.032468,-0.48331 -2.173344,-0.77094 -3.320477,-0.80518 z m -8.450829,6.29861 c -0.108814,0.28165 -0.210231,0.55376 -0.285018,0.83116 -0.02911,0.0574 -0.05583,0.11004 -0.08551,0.16883 -0.292186,0.74824 -0.595644,1.62496 -0.669795,2.48049 -0.195451,-1.03734 0.307905,-2.12852 0.74105,-3.05191 0.09185,-0.13633 0.203152,-0.28361 0.29927,-0.42857 z m 5.41537,2.02595 c 0.197203,-0.0118 0.389396,0.0251 0.584289,0.052 -0.06858,0.0925 -0.138747,0.18423 -0.213764,0.27272 -0.07443,0.003 -0.15363,0.009 -0.228016,0.013 -0.07507,0.004 -0.17089,0.0576 -0.228015,0.013 -0.09187,-0.0717 -0.08248,-0.19515 -0.01424,-0.33766 0.03234,-0.004 0.06777,-0.0111 0.09976,-0.013 z"
       id="path3107"
       inkscape:connector-curvature="0" />
    <path
       style="fill:#333333"
       id="path3148"
       d="m 56.55501,928.59801 c 1.547786,0.39757 2.83969,1.31792 4.398944,1.67258 0.162535,0.006 0.326004,0.0348 0.487598,0.0179 0.09038,-0.009 -0.274788,0.042 -0.269244,-0.0408 0.0057,-0.0861 0.187598,-0.0298 0.276026,-0.0605 0.484466,-0.16841 0.938776,-0.41566 1.363691,-0.68239 0.552932,-0.40462 1.147632,-0.75828 1.724103,-1.1342 0.14317,-0.12403 2.067895,1.72108 1.924726,1.84511 l 0,0 c -0.552889,0.33243 -1.053555,0.72824 -1.576829,1.09638 -0.21506,0.16216 -0.414768,0.34289 -0.645171,0.48649 -0.464148,0.28927 -1.764393,0.89677 -2.277046,0.96073 -0.983102,0.12266 -1.481997,0.002 -2.362371,-0.13333 -1.744192,-0.48493 -3.411836,-1.24892 -4.926016,-2.16973 -0.144182,-0.12125 1.737406,-1.97945 1.881589,-1.85821 z"
       inkscape:connector-curvature="0" />
    <g
       id="g3234"
       transform="matrix(0.48925166,0,0,0.48925166,-56.824832,738.03426)">
      <path
         inkscape:connector-curvature="0"
         id="path3109"
         d="m 404.91414,367.82749 c -2.99858,0.10484 -5.80413,1.23152 -9.05884,2.30936 -1.96812,0.82127 -3.93068,1.7216 -5.7965,2.78715 -3.20302,0.72146 -6.2147,2.17099 -8.65105,4.22054 -0.7505,0.63135 -1.3712,1.36342 -2.06809,2.04391 -0.60209,0.79174 -1.29407,1.51964 -1.80594,2.36244 -2.73717,4.50669 -2.42491,8.67714 -1.3399,13.51104 1.08015,3.21921 3.13584,6.04226 6.67034,7.37931 2.74829,1.03965 4.32659,0.78295 7.4568,0.90251 5.97454,-0.50509 12.04636,-2.35813 17.0982,-5.3354 1.09377,-0.64461 2.09885,-1.41736 3.14583,-2.12354 3.60458,-2.47829 6.62741,-5.53497 7.86459,-9.58249 0.68739,-2.24884 0.50571,-2.98431 0.49518,-5.28232 -0.49373,-4.19006 -2.5111,-8.05587 -6.14603,-10.75043 -0.65941,-0.48882 -1.39087,-0.86975 -2.09723,-1.30067 -2.07794,-0.88935 -3.96822,-1.20431 -5.76736,-1.14141 z m 0.37866,17.22725 c -0.0483,0.054 -0.0966,0.10562 -0.14564,0.15926 -0.12651,0.098 -0.25026,0.19602 -0.37866,0.29199 -0.09,-0.0776 -0.17215,-0.17084 -0.26216,-0.2389 0.13333,-0.0248 0.27556,-0.0265 0.4078,-0.0531 0.12432,-0.0528 0.25462,-0.10592 0.37866,-0.15926 z m -9.17535,2.2828 c 0.10191,0.0965 0.19338,0.19338 0.29128,0.29199 -0.0502,0.0918 -0.0938,0.16955 -0.14564,0.26544 -0.0238,0.0637 0.17972,0.18529 0.46605,0.31854 0.13046,0.36025 0.23474,0.80559 0.0291,1.00868 -0.17206,0.16996 -0.40442,0.28993 -0.61169,0.42471 -0.20402,0.0497 -0.40539,0.11555 -0.61169,0.15926 0.0191,0.0223 0.0584,0.032 0.0873,0.0531 -0.32843,0.1378 -0.65639,0.27042 -0.99036,0.39817 -0.0226,-0.0446 -0.04,-0.0831 -0.0582,-0.13273 0.47617,-0.90644 0.98446,-1.84592 1.54379,-2.78715 z"
         style="fill:#000000" />
      <path
         inkscape:connector-curvature="0"
         d="m 387.47176,389.522 c 2.75597,1.51852 5.2175,3.6319 8.40971,4.39336 0.45569,0.1087 0.93177,0.12674 1.39766,0.19011 -0.23004,-0.0711 -0.75796,-6.6e-4 -0.69011,-0.2132 0.082,-0.25692 0.5689,-0.14056 0.83753,-0.24857 0.33944,-0.1365 0.6726,-0.29181 0.97932,-0.48203 0.76698,-0.47567 1.42703,-1.39204 2.05036,-1.9978 0.65696,-0.74418 1.42867,-1.38629 2.2023,-2.02573 0.2745,-0.2721 4.49721,3.26568 4.2227,3.53779 l 0,0 c -0.75104,0.47662 -1.29769,0.83664 -1.76384,1.60572 -0.99719,0.96669 -1.73597,2.13904 -2.86003,3.00361 -0.46827,0.36016 -1.00951,0.63761 -1.55008,0.90056 -2.65535,1.29164 -2.20977,0.83395 -5.90314,0.99707 -0.73972,-0.15758 -1.49575,-0.26141 -2.21916,-0.47271 -3.77953,-1.10399 -6.9358,-3.41177 -9.64236,-5.98666 -0.24842,-0.29184 4.28072,-3.49337 4.52914,-3.20152 z"
         id="path3150"
         style="fill:#333333" />
    </g>
    <g
       id="g3238"
       transform="matrix(0.48925166,0,0,0.48925166,-60.738846,720.4212)">
      <path
         inkscape:connector-curvature="0"
         id="path3115"
         d="m 405.99256,468.69494 c -1.5568,0 -3.09375,0.0923 -3.09375,0.3125 -0.0809,0.79703 -0.1848,1.60778 -0.25,2.40625 -0.0116,0.14247 -0.0207,0.15079 -0.0312,0.28125 -4.2277,-0.81008 -8.48043,-1.66818 -12.8125,-1.25 -2.52171,0.0179 -4.96088,0.0545 -7.34375,-0.1875 -6.63089,-0.19542 -13.24115,-0.348 -19.875,-0.0937 -4.7176,0.07 -9.43886,0.21349 -14.15625,0.0625 -6.12407,-0.23012 -12.24579,-0.34315 -18.375,-0.28125 -6.37111,0.10777 -12.75556,0.23646 -19.125,0.375 -5.67281,-0.0982 -11.3269,-0.32425 -17,-0.40625 -9.52916,-0.24101 -19.09307,-0.3925 -28.625,-0.25 -4.84991,0.25024 -9.80833,0.49228 -14.34375,2.40625 -0.0957,0.055 0.0295,0.45497 0.28125,1 -1.12014,0.0739 -2.22531,0.17969 -3.34375,0.28125 -0.17017,0.0437 -0.0119,1.08703 0.25,2.25 -1.7389,-0.0428 -3.78125,0.0593 -3.78125,0.3125 -0.66721,6.01703 -0.86651,12.06985 -0.96875,18.125 -0.0935,0.51179 -0.13381,1.028 -0.125,1.5625 -0.1647,0.25152 -0.32445,0.50303 -0.4375,0.78125 -1.03376,2.54406 -0.0616,6.82468 0.4375,9.625 -0.0718,9.85404 0.25265,19.71206 0.46875,29.5625 0.14008,3.19573 0.0533,6.39196 0.0625,9.59375 -0.29682,2.11609 -0.77885,4.20348 -1.28125,6.28125 -0.12898,0.53346 -0.35919,1.22102 -0.53125,1.90625 -0.2044,0.40246 -0.37395,0.80317 -0.21875,1.09375 -0.0202,0.20998 -0.0162,0.4066 0,0.59375 0.38984,0.0695 0.76768,0.18268 1.15625,0.28125 0.55128,0.30153 1.16776,0.51354 1.78125,0.71875 0.66749,3.60866 1.45636,7.17037 2.5,10.6875 0.421,1.39177 0.44526,2.8134 0.34375,4.25 -0.0294,0.41601 -0.11175,0.83335 -0.0937,1.25 0.0212,0.48869 0.14335,0.9542 0.21875,1.4375 0.0204,0.18054 1.15785,0.17512 2.40625,0.0625 0.11516,0.85518 0.31447,1.68147 0.46875,2.53125 1.28252,2.69171 1.26386,3.83997 6.6875,2.0625 1.0564,-0.34621 1.10732,-1.92328 1.5625,-2.9375 0.20479,-0.45631 0.38048,-0.90971 0.5625,-1.375 7.82665,0.53064 15.69057,0.55258 23.53125,0.65625 11.48504,0.0293 22.95316,-0.0995 34.4375,-0.1875 4.30835,-0.0644 8.62885,-0.0831 12.9375,-0.0937 3.07353,1.17491 6.3604,1.716 9.6875,1.625 1.40675,-0.0385 2.81663,-0.22339 4.21875,-0.34375 0.12127,-0.10038 0.28971,-0.19596 0.4375,-0.28125 0.64913,-0.0729 1.27294,-0.43739 2.03125,-0.96875 7.18733,0.52981 14.35677,1.26298 21.5625,1.5 5.40669,0.20199 10.78504,-0.32223 16.15625,-0.84375 2.33875,-0.0882 4.27075,-0.0469 6.625,0 0.0835,1.4339 0.25406,2.87032 0.59375,4.28125 0.34113,0.54094 0.39174,1.62535 1.03125,1.625 1.88316,-10e-4 3.77266,-0.71943 5.40625,-1.65625 0.58517,-0.33559 0.51313,-1.23253 0.71875,-1.875 0.2447,-0.7646 0.44444,-1.53903 0.625,-2.3125 0.73233,-0.002 1.45518,0.004 2.1875,0 1.27321,1.9e-4 2.54734,0.0211 3.8125,-0.125 0.41781,-0.11025 -1.14469,-6.0165 -1.5625,-5.90625 -0.77448,-0.0732 -1.53855,-0.0645 -2.3125,-0.0625 -0.34441,-0.2449 -0.71938,-0.51412 -1,-0.6875 0.0239,-0.15509 0.0384,-0.31362 0.0625,-0.46875 2.138,-0.25277 1.8497,-0.49945 2.84375,0.75 -0.53739,-1.14046 -0.25525,-3.46209 -0.25,-4.5 0.51725,-4.74151 1.47647,-9.44575 1.6875,-14.21875 0.0656,-5.32425 -0.36204,-10.65333 0,-15.96875 0.41879,-2.61298 0.81247,-5.22874 1.21875,-7.84375 0.29264,-1.22845 0.60058,-2.44857 0.84375,-3.6875 0.32891,-1.67577 0.92751,-4.91895 0.71875,-6.90625 -0.0349,-0.33219 -0.0491,-0.91893 -0.34375,-0.96875 0.74733,-5.92432 1.42138,-11.85114 1.84375,-17.8125 0.30696,-5.75736 0.69331,-11.54606 0.65625,-17.3125 0.59218,10e-4 1.18906,0.0313 1.78125,0.0312 2.00054,-0.005 0.9858,-0.0242 2.96875,-0.0312 0.13676,-0.0351 0.0389,-0.7145 -0.125,-1.5625 0.0711,-0.004 0.042,0.004 0.125,0 0.42092,-0.13531 -1.48533,-6.07281 -1.90625,-5.9375 -1.75406,0.15377 -0.89481,0.0845 -2.59375,0.25 -0.22549,0.0189 -0.38984,0.0154 -0.59375,0.0312 -0.0885,-1.0593 -0.17774,-2.12977 -0.3125,-3.1875 0,-0.22017 -1.5682,-0.3125 -3.125,-0.3125 z m -58.84375,11.15625 c 0.26051,-0.002 0.52074,0.002 0.78125,0 -0.21629,0.0689 -0.42116,0.13668 -0.625,0.21875 -0.68799,-0.0661 -1.37359,-0.12973 -2.0625,-0.1875 0.63565,-0.007 1.27059,-0.0262 1.90625,-0.0312 z m 44.625,60.9375 c 0.0172,0.23917 0.0434,0.47975 0.0625,0.71875 -0.0492,0.0746 -0.10682,0.14434 -0.15625,0.21875 -0.1518,-0.11322 -0.29524,-0.22503 -0.4375,-0.3125 0.17294,-0.21092 0.35768,-0.41465 0.53125,-0.625 z"
         style="fill:#d40000" />
      <path
         sodipodi:nodetypes="cccccccccsccscsccccccccccccsscscccccsccccccscccssccscccscsccscccccsccsccccccccccccccccccccccccccccccccccccccccccccccccccsccccccccccccccc"
         inkscape:connector-curvature="0"
         id="path3156"
         d="m 262.21596,470.0397 c 0.0522,-0.15584 0.0632,-0.27189 0.03,-0.28652 -0.90232,-0.0467 -1.08133,-0.11497 -1.80404,0.11461 -1.10092,-0.0326 -2.20721,0.006 -3.3074,-0.0573 -1.92814,-0.0762 -3.84408,-0.0696 -5.77292,-0.0286 -1.74527,0.0362 -3.49295,-0.0332 -5.23171,0.14327 -0.19635,0.65327 -0.47504,1.04578 -0.60135,1.34665 -0.27473,0.10837 -0.46167,0.3606 -0.69154,0.54439 -0.067,0.4294 -0.2301,0.85563 -0.21047,1.28935 0.0166,0.36835 0.52496,1.06885 0.72161,1.34665 0.40069,0.56603 0.83717,1.11398 1.26283,1.66182 -0.0234,1.00774 0.36254,1.82534 0.69154,2.92252 0.28251,0.60539 0.49764,1.22947 0.84189,1.80509 0.38352,0.64128 1.23743,1.89513 2.25504,2.80791 -0.10478,0.48326 -0.0329,0.96185 0.30068,1.37531 0.28616,0.35469 0.70554,0.64692 1.17262,0.77361 0.39682,1.05082 0.80953,2.08168 1.23276,3.12308 -0.0632,0.57086 0.0727,1.0992 0.60135,1.40396 0.61754,1.31476 1.2262,2.652 1.80403,3.98265 -0.13804,0.19112 -0.2778,0.39631 -0.39087,0.60169 -0.70795,1.28589 -0.26146,2.19525 1.62363,2.32083 1.1962,2.75763 2.41655,5.49197 3.87868,8.13722 0.15468,0.29289 0.34808,0.5728 0.51115,0.85956 -0.33862,0.58204 -0.5621,1.14184 -0.54122,1.60452 0.08,1.76854 1.50589,1.96443 2.9466,1.66183 0.26557,0.25337 0.54067,0.48996 0.84188,0.7163 0.34579,0.087 0.6997,0.31453 1.05236,0.25787 1.70412,-0.27392 1.81216,-0.78533 2.85639,-1.83374 0.45721,-0.45904 0.91775,-0.89509 1.3831,-1.34665 2.06126,-2.00022 1.56983,-1.55052 3.84861,-3.69613 2.27621,-2.52837 4.85725,-4.7935 7.27628,-7.19169 1.95532,-1.93847 3.73636,-4.01409 5.68272,-5.95965 1.65573,-1.77256 3.02887,-3.76371 5.02123,-5.2147 1.15773,-1.04325 2.50182,-1.86739 3.69828,-2.86521 0.97038,-0.93831 0.51421,-0.51104 1.44323,-1.2607 0.14485,-0.16336 0.40759,-0.50847 0.69155,-0.80226 0.0561,0.0508 0.12502,0.092 0.15033,0.14326 0.1314,0.26588 0.22073,0.55635 0.33074,0.83091 1.26823,3.97292 2.52881,7.9595 3.93882,11.89065 1.34057,2.58601 2.10708,5.4631 3.72834,7.908 0.91941,1.14494 2.31676,2.66911 3.93882,2.89387 0.59974,0.0831 1.22806,0.003 1.8341,0 0.4478,-0.24995 0.96156,-0.4203 1.35303,-0.74496 0.37041,-0.30717 2.6296,-3.00602 2.82632,-3.23769 1.76984,-2.08431 3.55631,-4.14862 5.38205,-6.18887 2.65058,-3.00033 5.67028,-5.65976 8.71951,-8.28048 1.26869,-1.10701 1.26299,-1.09944 1.23276,-1.06013 0.0323,-0.002 0.26447,-0.14073 1.20269,-0.85956 0.27402,-0.20995 1.51089,-1.31662 1.95438,-1.48991 0.76627,-0.29944 0.60197,-0.004 0.57127,0.34382 0.19731,0.24104 0.42871,0.4873 0.60135,0.74496 1.07034,1.59736 1.84028,3.36993 2.82632,5.01413 0.55903,0.93217 2.00403,3.12498 2.58579,4.0113 0.60595,0.96212 1.31144,1.85199 2.07464,2.6933 0.20877,0.8638 0.62649,1.63884 1.68377,1.66183 0.2973,0.26192 0.58932,0.52618 0.90202,0.77361 1.34844,1.06694 2.82606,1.95582 4.20942,2.97982 1.2256,0.89653 2.42016,1.78354 4.11922,1.48992 1.60993,-0.27823 3.91572,-2.82623 4.90097,-3.83939 4.07866,-4.63581 7.80654,-9.52164 11.5759,-14.38339 0.87502,-0.74542 1.50472,-1.74105 2.37532,-2.49274 0.3372,-0.29114 0.71411,-0.54161 1.14255,-0.68765 0.0607,-0.0207 0.211,0.003 0.18041,0.0573 -0.0467,0.0827 -0.17872,0.0519 -0.27061,0.0859 0.9801,1.76057 1.77996,3.66692 2.46552,5.55852 1.42084,3.4965 3.1074,7.00301 5.41211,10.05691 1.06961,1.47221 2.55669,2.60009 4.6003,2.17757 1.03978,-0.21497 3.18066,-1.65462 3.93881,-2.12026 5.76985,-4.09502 10.31017,-9.48977 15.09378,-14.5553 1.17388,-1.09991 1.83959,-2.58394 2.82632,-3.81074 0.42359,-0.52664 1.0194,-1.01001 1.50337,-1.48991 1.07413,-0.68176 2.11414,-1.43067 3.06686,-2.26352 0.0374,-0.0422 -0.1995,-0.27005 -0.48108,-0.51574 0.64116,9.1e-4 1.28315,-6.5e-4 1.92431,0 0.15615,-0.0382 -0.41514,-2.1585 -0.57128,-2.12026 -1.80179,0.003 -3.61032,-0.004 -5.41211,0 -2.43592,0.005 -4.87049,0.0164 -7.30635,0 -3.65722,-0.0197 -7.31738,-0.007 -10.97456,-0.0286 -3.4409,0.002 -6.87264,-1.8e-4 -10.31308,0.0573 -2.34216,0.0131 -4.69392,-0.0114 -7.03574,-0.0573 -4.77024,-0.0775 -9.54126,-0.0642 -14.31203,-0.0286 -4.28785,0.0376 -8.55163,0.0843 -12.83873,-0.0286 -5.24572,-0.0952 -10.50901,-0.17213 -15.75526,-0.0286 -8.15322,0.16458 -16.32032,0.4709 -24.47477,0.22922 -3.08991,-0.17998 -3.21047,-0.1397 -6.13373,-0.48709 -0.3037,-0.0361 -0.59983,-0.10035 -0.90202,-0.14326 -0.12816,-0.16447 -0.24496,-0.34697 -0.33074,-0.51574 -0.26559,0.11131 -0.52287,0.25108 -0.78175,0.37248 -1.65387,-0.26169 -3.31045,-0.58031 -4.99117,-0.68765 -0.60618,-0.0387 -1.22658,0.005 -1.8341,0 -11.58719,-0.6385 -16.82087,-0.22228 -27.57165,-0.0862 z m 84.459,3.55287 c 0.45204,0.007 0.90107,0.0224 1.35303,0.0286 -0.1621,0.008 -0.31907,0.0188 -0.48108,0.0286 -0.28859,-0.0289 -0.58162,-0.0438 -0.87195,-0.0573 z m 54.39172,0 c 0.65134,-0.004 1.30278,0.003 1.95438,0 -0.0398,0.0107 -0.0803,0.018 -0.12027,0.0286 -0.59249,0.004 -1.18243,0.0709 -1.77397,0.11461 -0.016,-0.0464 -0.0404,-0.0982 -0.0601,-0.14326 z m -92.06603,0.51574 c 0.47094,0.0118 0.94221,0.0206 1.41317,0.0286 -0.15882,0.0118 -0.32319,0.0387 -0.48108,0.0573 -0.10066,2.2e-4 -0.20006,3e-5 -0.30067,0 -0.0799,0.003 -0.16067,-0.003 -0.24054,0 -0.12974,-0.0304 -0.26077,-0.0568 -0.39088,-0.0859 z m 66.0879,5.18604 c 0.0705,-0.002 0.13993,0.002 0.21047,0 -0.006,0.0865 -0.0256,0.17133 -0.03,0.25787 -0.0451,-0.0663 -0.0656,-0.13879 -0.12027,-0.20057 -0.0178,-0.0201 -0.0412,-0.0382 -0.0601,-0.0573 z m -77.06246,0.51574 c 9.3e-4,0.009 -9.3e-4,0.0192 0,0.0286 -0.0507,-0.002 -0.0997,3e-4 -0.15033,0 0.0325,-0.0193 0.092,-0.0286 0.15033,-0.0286 z m 38.99727,1.74778 c 0.0458,0.0159 0.1502,0.13084 0.24054,0.20056 -0.0246,0.005 -0.0345,0.0241 -0.0601,0.0286 -0.095,0.0168 -0.27114,-0.26066 -0.18041,-0.22922 z m 47.26578,14.66991 c 0.3151,0.069 0.63825,0.1112 0.96215,0.11461 -0.27483,0.0933 -0.52842,0.12403 -0.69155,0.0573 -0.0967,-0.0396 -0.18247,-0.11004 -0.2706,-0.17191 z m -73.78512,5.84504 c -0.0275,0.0736 -0.0914,0.11106 -0.18041,0.11461 0.059,-0.0355 0.12454,-0.0714 0.18041,-0.11461 z m -44.71006,6.33213 c 0.0821,0.0346 0.17947,0.0447 0.24054,0.0859 -0.0471,0.0701 -0.10329,0.15917 -0.15033,0.22922 -0.097,-0.0526 -0.18012,-0.11224 -0.27061,-0.17192 0.0614,-0.0459 0.11955,-0.0962 0.1804,-0.14326 z"
         style="fill:#ffffff" />
      <path
         inkscape:connector-curvature="0"
         id="path3172"
         d="m 386.14881,533.60119 c -0.49569,0.0218 -0.88769,0.35977 -1.34375,0.6875 -3.01,2.73868 -5.85389,5.64544 -8.53125,8.71875 -4.03642,4.06838 -7.75318,8.39927 -11.09375,13.0625 -3.15696,3.87709 -6.41726,7.75356 -8.5,12.34375 -0.22188,0.46268 -0.43655,0.79703 -0.5625,1.0625 -0.19178,-0.34972 -0.38296,-0.71576 -0.625,-1.03125 -1.47779,-1.30825 -3.28949,-2.19037 -4.59375,-3.71875 -0.0768,-0.1048 -1.64735,-2.25735 -1.71875,-2.375 -1.06023,-1.74659 -1.7215,-3.7307 -2.96875,-5.375 -1.64522,-2.11688 -3.34567,-4.19544 -4.0625,-6.84375 -1.46432,-3.77689 -2.4166,-7.91213 -5.03125,-11.09375 -0.67907,-0.1349 -1.33957,-0.43645 -2.03125,-0.40625 -1.30378,0.057 -2.68707,3.01935 -3.25,4 -0.23954,0.35658 -1.10493,1.64865 -1.28125,1.96875 -0.72421,1.31471 -1.15971,2.80935 -2.09375,4 -1.62184,1.81503 -3.08709,3.69227 -3.96875,6 -1.67134,2.94244 -3.64364,5.66721 -5.625,8.40625 -1.88094,2.94779 -3.66883,5.94294 -5,9.1875 -0.09,-0.35756 -0.18371,-0.68978 -0.3125,-0.84375 -0.55971,-1.94511 -0.0367,0.1116 -0.5,-2.375 -0.36211,-1.94344 -1.1454,-3.78134 -1.53125,-5.71875 -1.14456,-3.40825 -2.62266,-6.70672 -3.0625,-10.3125 -0.88996,-4.19168 -1.64029,-8.44434 -3.0625,-12.5 -0.36672,-0.71302 -1.0493,-2.44997 -1.96875,-2.8125 -2.24941,-0.88691 -3.05788,1.09978 -3.96875,2.5625 -0.5657,1.16653 -1.31162,2.22653 -1.90625,3.375 -0.62281,1.20291 -1.08419,2.48795 -1.71875,3.6875 -0.3353,0.60705 -1.0529,1.8475 -1.3125,2.46875 -0.52796,1.26345 -0.74261,2.66823 -1.40625,3.875 -0.30316,0.5562 -0.50532,1.13351 -0.8125,1.6875 -0.87862,1.58457 -2.11856,2.98786 -3.0625,4.53125 -2.10927,3.06801 -3.27481,6.45518 -4.25,10.03125 -0.14974,0.59751 -0.28763,1.22374 -0.46875,1.8125 -0.12152,0.39502 -0.2864,0.77139 -0.4375,1.15625 -0.0464,-0.12953 -0.10427,-0.24823 -0.15625,-0.375 -0.41021,-0.87971 -0.72091,-1.81994 -1.15625,-2.6875 -0.92428,-1.84194 -2.33739,-3.40806 -3.5,-5.09375 -1.85669,-3.02141 -3.49499,-6.19974 -4.71875,-9.53125 -1.33473,-3.44302 -2.43769,-6.9533 -3.09375,-10.59375 -0.92945,-2.37476 -1.91968,-3.40826 -4.40625,-1.9375 -1.54685,1.47189 -2.21538,2.96773 -3.28125,4.8125 -1.1623,2.01164 -2.44636,3.94822 -3.59375,5.96875 -3.49162,5.55059 -6.77077,11.22955 -10.40625,16.6875 -0.0136,0.0252 0.061,0.084 0.15625,0.15625 -0.0303,0.0455 -0.0502,0.11745 -0.25,0.40625 -0.18543,0.26798 -0.31113,0.36971 -0.46875,0.65625 -0.0983,0.17877 -0.1607,0.37905 -0.25,0.5625 -0.14523,0.28972 -0.18993,0.63951 -0.3125,0.9375 -0.004,0.009 -0.0211,-7.8e-4 -0.0312,0 -0.0288,0.0506 -0.0603,0.0773 -0.0937,0.125 -0.0329,0.0471 -0.061,0.10905 -0.0937,0.15625 -0.14866,0.21479 -0.18498,0.28886 -0.25,0.4375 -0.0385,0.0625 -0.0865,0.12391 -0.125,0.1875 -0.0715,0.11807 -0.20395,0.2764 -0.15625,0.3125 -0.0144,0.0296 -0.0168,0.0641 -0.0312,0.0937 -0.213,0.57542 -0.57968,1.0275 -0.0937,1.65625 0.12337,0.15963 0.35842,0.20843 0.53125,0.3125 0.43473,0.0773 0.855,0.0359 1.28125,0 0.10716,0.0375 0.23268,0.0708 0.34375,0.0937 0.0911,0.0185 0.18845,0.0253 0.28125,0.0312 0.11654,0.007 0.22738,0.0219 0.34375,0.0312 0.0468,0.0675 0.12239,0.11695 0.21875,0.21875 0.02,0.003 0.0421,-0.002 0.0625,0 0.0439,0.084 0.18705,0.0208 0.28125,0.0312 0.50737,0.0563 1.02144,0.0778 1.53125,0.0937 0.54771,0.0146 1.10848,0.0245 1.65625,0.0312 0.0409,0.0887 0.10022,0.16261 0.125,0.15625 5.53174,0.18593 11.05949,0.18625 16.59375,0.15625 2.73606,-0.0238 5.48266,-0.0174 8.21875,-0.0312 2.00951,-0.0101 3.97773,-0.13519 5.96875,0.15625 4.00601,0.87889 7.99041,1.54905 12.09375,1.65625 4.07189,-0.0494 8.14921,-0.44105 12.21875,-0.5625 2.79702,-0.0757 5.57852,0.002 8.375,0.0625 2.93109,0.0658 5.88101,0.0483 8.8125,0.0312 2.71614,-0.0197 5.40881,-0.0332 8.125,-0.0312 2.8403,0.004 5.69094,0.0303 8.53125,0.0312 3.05598,0 6.10027,7.6e-4 9.15625,0 2.66165,-4.4e-4 5.33835,-3.7e-4 8,0 3.05252,4.3e-4 6.10373,1.3e-4 9.15625,0 2.66135,-1.4e-4 5.3074,-2e-5 7.96875,0 3.0532,4e-5 6.10305,0 9.15625,0 l 8.59375,0 7.96875,0 2.875,0 c 0.16209,0.0416 0.75584,-2.2709 0.59375,-2.3125 l -2.875,0 -2.5,0 c -0.0134,-0.0169 -0.0436,-0.0146 -0.0625,-0.0312 -0.006,0.0165 -0.025,0.0142 -0.0312,0.0312 -0.0979,-0.0889 -0.17926,-0.1981 -0.28125,-0.28125 0.008,-0.0115 0.023,-0.0199 0.0312,-0.0312 -0.0824,-0.0905 -0.15953,-0.17106 -0.25,-0.25 0.44111,-0.2213 0.84313,-0.43568 0.8125,-0.5 -0.65628,-1.08379 -1.13019,-2.22369 -1.65625,-3.375 -0.35914,-0.93111 -0.89729,-1.79303 -1.25,-2.71875 -0.40141,-1.05352 -0.61519,-2.16603 -1.1875,-3.15625 -0.47196,-1.33147 -0.38771,-1.30437 -1.09375,-2.5 -0.82964,-1.40494 -1.82005,-2.61795 -2.03125,-4.3125 -0.45125,-3.11736 -0.87675,-6.31784 -2.0625,-9.25 -0.0982,-0.50952 -0.21855,-1.02593 -0.40625,-1.4375 -0.0927,-0.20322 -0.27906,-0.34765 -0.40625,-0.53125 -0.0208,9.2e-4 -0.0415,-3.3e-4 -0.0625,0 -1.18907,-2.6663 -2.25971,-5.40944 -2.9375,-8.25 -0.12051,-0.73244 -0.75748,-4.92636 -1.375,-5.34375 -0.43422,-0.2935 -0.76508,-0.38811 -1.0625,-0.375 z m 14.96875,42 c 0.0309,0.0339 0.0641,0.0579 0.0937,0.0937 0.0438,0.0531 0.12592,0.13347 0.1875,0.1875 0.48066,-1.31463 0.18393,-0.92057 -0.28125,-0.28125 z m -17.21875,-31.03125 c 0.003,0.0331 -0.004,0.0903 0,0.125 -0.0105,-10e-4 -0.0207,8.3e-4 -0.0312,0 0.009,-0.0421 0.0226,-0.0828 0.0312,-0.125 z m 3,9.34375 c 0.004,0.009 -0.004,0.0218 0,0.0312 0.005,0.022 0.0259,0.0405 0.0312,0.0625 -0.1565,0.0998 -0.31498,0.20871 -0.46875,0.3125 0.13032,-0.13425 0.31463,-0.2784 0.4375,-0.40625 z m -50.125,0.53125 c 0.004,0.0124 0.0276,0.0189 0.0312,0.0312 -0.0288,0.0335 -0.0651,0.0601 -0.0937,0.0937 0.0236,-0.0399 0.0388,-0.0851 0.0625,-0.125 z m 12.625,12.09375 c 0.0825,0.0851 0.16466,0.16837 0.25,0.25 -0.0442,-0.0204 -0.0812,-0.0412 -0.125,-0.0625 -0.0208,-0.01 -0.0414,-0.0224 -0.0625,-0.0312 -0.0252,-0.0502 -0.0374,-0.10598 -0.0625,-0.15625 z m -38.03125,5.90625 c 0.0971,0.009 0.11471,0.0692 0.1875,0.21875 -0.10551,-0.11564 -0.15752,-0.17959 -0.1875,-0.21875 z m 2.8125,0.9375 c 0.0421,0.007 0.0876,0.0153 0.125,0.0312 -0.0251,0.028 -0.0387,0.0646 -0.0625,0.0937 -0.0167,-0.0402 -0.0468,-0.0794 -0.0625,-0.125 z m -0.46875,2.21875 c 0.13986,0.0806 0.28584,0.15347 0.4375,0.21875 -0.19804,-0.005 -0.39571,0.004 -0.59375,0 0.0638,-0.0659 0.11468,-0.14284 0.15625,-0.21875 z m -22.40625,0.0625 c 0.0287,0.0335 0.0633,0.0601 0.0937,0.0937 -0.16643,-0.0245 -0.33367,-0.0364 -0.5,-0.0625 0.16307,-6.1e-4 0.28333,-0.0244 0.40625,-0.0312 z m 92.65625,0.0625 c 1.12422,-0.008 2.25078,0.004 3.375,0 0.72348,0.0235 1.43194,0.0369 2.15625,0.0312 0.0871,0.0533 0.1812,0.11302 0.28125,0.125 0.27872,0.0334 0.53157,-2.7e-4 0.75,-0.0625 0.01,0.0314 0.0209,0.0625 0.0312,0.0937 l -4.3125,0 c -2.66083,0 -5.33918,6e-5 -8,0 -0.36478,-10e-6 -0.72897,0 -1.09375,0 0.71069,-0.0526 1.41483,-0.0978 2.125,-0.15625 1.56145,-0.008 3.12604,-0.0198 4.6875,-0.0312 z m -88.34375,0.46875 c 0.5967,-0.0356 1.18406,0.0156 1.78125,0.0312 0.86721,0.0262 1.72637,0.003 2.59375,0 -0.67712,0.0302 -1.3536,0.0741 -2.03125,0.0937 -0.79216,-0.011 -1.56839,-0.0773 -2.34375,-0.125 z"
         style="fill:#ffffff" />
    </g>
    <path
       style="fill:#803300"
       d="m 119.01454,880.13129 c -6.28698,0.29976 -12.54075,0.80621 -18.69858,2.21692 -9.814553,2.16198 -19.663139,4.49503 -29.018741,8.22555 -0.548955,0.31548 3.900177,8.08235 4.449132,7.76687 0.586178,0.04 1.171342,0.14951 1.758248,0.12231 4.910745,-0.22759 9.774587,-1.34398 14.585814,-2.23221 0.243016,-0.0449 0.186889,-0.0348 0.412806,-0.0765 0.261246,0.54508 0.541201,0.96887 0.840901,1.28429 0.0085,0.25997 0.05656,0.54791 0.152892,0.88677 0.108413,0.38134 0.654966,0.10035 1.131394,-0.0917 0.525564,0.15109 1.087572,0.14165 1.697092,0.10703 -0.346914,0.0968 -3.893303,1.06769 -4.525578,1.78882 -1.341773,1.53037 0.114416,2.4389 1.635935,2.85907 1.01938,0.2815 2.123059,0.0606 3.180136,0.0917 3.916249,-0.28764 7.897929,-0.30859 11.787909,-0.90206 1.69517,-0.25861 2.53245,-0.58244 4.11277,-1.07023 0.16269,-0.0852 -1.04515,-2.37855 -1.20784,-2.29337 -3.14501,0.79707 -6.36806,1.0476 -9.60156,1.25371 3.81603,-0.92281 7.61667,-1.86 11.43625,-2.76733 1.44372,-0.17539 2.87661,-0.3877 4.31153,-0.67272 2.34397,-0.4656 1.73087,-0.28219 3.39419,-1.00909 -0.24026,-0.33923 -0.43759,-0.73584 -0.64215,-1.1161 0.88028,-0.15141 1.76121,-0.32708 2.62973,-0.53512 1.24428,-0.29804 5.26212,-1.01528 2.99667,-3.54707 -0.47217,-0.52768 -1.36436,-0.3687 -2.04874,-0.55041 -0.3822,-0.008 -0.76632,-0.008 -1.14669,0 -0.51079,-2.84744 -2.99886,-9.94543 -3.62352,-9.73917 z"
       id="path3245"
       inkscape:connector-curvature="0" />
  </g>
</svg>
