<?xml version="1.0" encoding="UTF-8"?>
<!DOCTYPE svg PUBLIC "-//W3C//DTD SVG 1.1//EN" "http://www.w3.org/Graphics/SVG/1.1/DTD/svg11.dtd">
<!-- Creator: CorelDRAW -->
<svg xmlns="http://www.w3.org/2000/svg" xml:space="preserve" width="200px" height="200px" style="shape-rendering:geometricPrecision; text-rendering:geometricPrecision; image-rendering:optimizeQuality; fill-rule:evenodd; clip-rule:evenodd"
viewBox="0 0 200 200"
 xmlns:xlink="http://www.w3.org/1999/xlink">
 <defs>
  <style type="text/css">
   <![CDATA[
    .fil0 {fill:#2B2A29;fill-rule:nonzero}
   ]]>
  </style>
 </defs>
 <g id="Layer_x0020_1">
  <metadata id="CorelCorpID_0Corel-Layer"/>
  <polygon class="fil0" points="110.358,2.49805 89.644,2.49805 89.644,113.28 110.358,113.28 "/>
  <path class="fil0" d="M137.838 38.1322l-0.00590556 0.0153545 -8.91267 17.8194c20.9187,10.6241 35.3365,32.3589 35.3365,57.3134 0,35.3578 -28.903,64.2525 -64.2572,64.2525 -35.3495,0 -64.2466,-28.8947 -64.2466,-64.2525 0,-25.0596 14.5265,-46.8653 35.5798,-57.441l-0.152363 -0.05315 -9.04613 -17.6434c-27.429,13.9324 -46.3492,42.4267 -46.3492,75.1376 0,46.3149 37.9007,84.2192 84.2144,84.2192 46.3173,0 84.2192,-37.9042 84.2192,-84.2192 0,-32.7227 -18.9391,-61.2288 -46.3799,-75.1482z"/>
  <polygon class="fil0" points="128.92,55.967 128.915,55.967 "/>
 </g>
</svg>
