<?xml version="1.0" encoding="UTF-8"?>
<!DOCTYPE svg PUBLIC "-//W3C//DTD SVG 1.1//EN" "http://www.w3.org/Graphics/SVG/1.1/DTD/svg11.dtd">
<!-- Creator: CorelDRAW -->
<svg xmlns="http://www.w3.org/2000/svg" xml:space="preserve" width="200px" height="200px" style="shape-rendering:geometricPrecision; text-rendering:geometricPrecision; image-rendering:optimizeQuality; fill-rule:evenodd; clip-rule:evenodd"
viewBox="0 0 200 200"
 xmlns:xlink="http://www.w3.org/1999/xlink">
 <defs>
  <style type="text/css">
   <![CDATA[
    .fil0 {fill:black;fill-rule:nonzero}
   ]]>
  </style>
 </defs>
 <g id="Layer_x0020_1">
  <metadata id="CorelCorpID_0Corel-Layer"/>
  <g id="_231991976">
   <path id="_231984320" class="fil0" d="M69.9041 39.8035c8.50164,0 15.3875,-6.89297 15.3875,-15.3946 0,-8.49692 -6.88588,-15.3911 -15.3875,-15.3911 -8.50282,0 -15.3934,6.89415 -15.3934,15.3911 0,8.50164 6.89061,15.3946 15.3934,15.3946z"/>
   <path id="_231984056" class="fil0" d="M81.3337 43.2618l-22.4612 0.0118111 -38.3318 -38.3271c-3.0012,-3.15239 -7.97959,-3.2764 -11.1308,-0.27638 -3.15475,2.99884 -3.27995,7.98077 -0.275199,11.1296l40.0302 40.0928 0.00472445 132.951c0,4.78114 3.8705,8.65637 8.65755,8.65637 4.77523,0 8.65046,-3.87523 8.65046,-8.65637l0.00944889 -72.1128 6.99336 0 0.0767723 72.1128c0,4.78114 3.87168,8.65637 8.65282,8.65637 4.77523,0 8.6481,-3.87523 8.6481,-8.65637l-0.05315 -132.951 40.0291 -40.0928c2.99884,-3.14884 2.87483,-8.13077 -0.277561,-11.1296 -3.14412,-3.00002 -8.13313,-2.87601 -11.1284,0.27638l-38.0944 38.3153z"/>
  </g>
  <g id="_231990296">
   <path id="_231993176" class="fil0" d="M148.224 85.4936c6.03902,0 10.9288,-4.89571 10.9288,-10.9359 0,-6.0343 -4.8898,-10.93 -10.9288,-10.93 -6.04021,0 -10.9336,4.89571 -10.9336,10.93 0,6.04021 4.89335,10.9359 10.9336,10.9359z"/>
   <path id="_231977144" class="fil0" d="M156.341 87.9503l-15.9545 0.00590556 -27.2246 -27.2223c-2.13191,-2.23703 -5.66934,-2.32797 -7.90636,-0.194883 -2.24057,2.12954 -2.33033,5.66697 -0.196065,7.904l28.4329 28.4778 0.00236222 94.4311c0,3.39451 2.74963,6.14769 6.14887,6.14769 3.39333,0 6.14414,-2.75317 6.14414,-6.14769l0.00826778 -51.2213 4.96657 0 0.0555122 51.2213c0,3.39451 2.74963,6.14769 6.14532,6.14769 3.39097,0 6.14296,-2.75317 6.14296,-6.14769l-0.0389767 -94.4311 28.4317 -28.4778c2.12954,-2.23703 2.04214,-5.77445 -0.197246,-7.904 -2.23348,-2.13309 -5.77682,-2.04214 -7.904,0.194883l-27.0569 27.2164z"/>
  </g>
 </g>
</svg>
