<?xml version="1.0" encoding="UTF-8"?>
<!DOCTYPE svg PUBLIC "-//W3C//DTD SVG 1.1//EN" "http://www.w3.org/Graphics/SVG/1.1/DTD/svg11.dtd">
<!-- Creator: CorelDRAW -->
<svg xmlns="http://www.w3.org/2000/svg" xml:space="preserve" width="200px" height="200px" style="shape-rendering:geometricPrecision; text-rendering:geometricPrecision; image-rendering:optimizeQuality; fill-rule:evenodd; clip-rule:evenodd"
viewBox="0 0 200 200"
 xmlns:xlink="http://www.w3.org/1999/xlink">
 <defs>
  <style type="text/css">
   <![CDATA[
    .fil0 {fill:#2B2A29;fill-rule:nonzero}
   ]]>
  </style>
 </defs>
 <g id="Layer_x0020_1">
  <metadata id="CorelCorpID_0Corel-Layer"/>
  <path class="fil0" d="M195.933 88.685c-7.64415,11.8229 -16.3312,20.9907 -30.0652,25.2262 -12.9958,4.01814 -28.5014,3.2894 -41.6247,0.546855 -14.8501,-3.10869 -26.4616,-11.0576 -37.7212,-20.8206 -9.3485,-8.0977 -18.9864,-16.6773 -30.7621,-21.0356 -21.5033,-7.98077 -51.9146,1.05355 -53.2221,27.8943 -0.55276,11.3387 4.96421,24.0852 16.3123,28.1034 9.89535,3.50318 21.058,1.43151 26.4711,-8.18628 1.93584,-3.4394 -1.99962,-7.67959 -5.51225,-5.51107 -9.89535,6.1158 -22.9018,-0.990953 -24.1301,-12.1584 -1.28623,-11.7343 11.0517,-20.3293 21.4443,-21.0521 22.4895,-1.56025 40.8759,21.2482 58.2099,32.3117 18.5328,11.8277 40.7991,12.045 61.7651,7.9288 18.5529,-3.64137 31.8841,-15.8304 40.2972,-32.3896 0.496067,-0.972055 -0.872842,-1.77639 -1.46222,-0.857487z"/>
 </g>
</svg>
