<?xml version="1.0" encoding="UTF-8"?>
<!DOCTYPE svg PUBLIC "-//W3C//DTD SVG 1.1//EN" "http://www.w3.org/Graphics/SVG/1.1/DTD/svg11.dtd">
<!-- Creator: CorelDRAW -->
<svg xmlns="http://www.w3.org/2000/svg" xml:space="preserve" width="200px" height="200px" style="shape-rendering:geometricPrecision; text-rendering:geometricPrecision; image-rendering:optimizeQuality; fill-rule:evenodd; clip-rule:evenodd"
viewBox="0 0 200 200"
 xmlns:xlink="http://www.w3.org/1999/xlink">
 <defs>
  <style type="text/css">
   <![CDATA[
    .fil0 {fill:black;fill-rule:nonzero}
   ]]>
  </style>
 </defs>
 <g id="Layer_x0020_1">
  <metadata id="CorelCorpID_0Corel-Layer"/>
  <g id="_230854104">
   <g>
    <g>
     <path id="_230854320" class="fil0" d="M93.5877 72.5758l22.6147 -12.7442 0 12.7194c-0.129922,2.59845 1.20237,5.17327 3.62365,6.53982 3.75239,2.11773 23.3104,13.3395 28.6786,16.3915 3.40869,1.94057 7.73864,0.729927 9.66976,-2.67994 1.92757,-3.40633 0.728746,-7.73982 -2.6823,-9.66504 -3.1453,-1.78466 -17.3801,-9.9426 -25.0762,-14.3399 -0.0200789,-7.79297 -0.0625989,-25.7541 -0.0625989,-27.0687l-0.0224411 0c-0.0921267,-2.51813 -0.759455,-5.05752 -2.08348,-7.40793 -4.43035,-7.8414 -14.3729,-10.6111 -22.212,-6.18312l-36.0712 20.3175c-8.63275,4.87209 -15.1607,13.043 -17.8832,22.7955l-13.9525 47.587 26.3175 0c0,15.43 0,65.6922 0,69.7529 0,4.9276 3.98389,8.90913 8.90558,8.90913 4.91697,0 8.90676,-3.98153 8.90676,-8.90913 0,-4.64649 0,-56.0343 0,-69.7529l25.2463 0 -13.917 -46.2618z"/>
     <path id="_230854272" class="fil0" d="M144.151 37.9491c9.78905,0 17.7226,-7.93707 17.7226,-17.7249 0,-9.78669 -7.93353,-17.7261 -17.7226,-17.7261 -9.78551,0 -17.7214,7.93943 -17.7214,17.7261 0,9.78787 7.93589,17.7249 17.7214,17.7249z"/>
    </g>
   </g>
  </g>
 </g>
</svg>
